<svg width="532" height="541" viewBox="0 0 532 541" fill="none" xmlns="http://www.w3.org/2000/svg">
<g clip-path="url(#clip0_1704_24114)">
<path d="M266.09 540.5C412.59 540.5 531.351 467.832 531.351 378.192C531.351 288.552 412.59 215.884 266.09 215.884C119.591 215.884 0.829163 288.552 0.829163 378.192C0.829163 467.832 119.591 540.5 266.09 540.5Z" fill="#F5F5F5"/>
<path d="M400.32 445.603C399.254 445.603 397.832 445.485 396.411 444.655L349.495 417.525C347.837 416.577 346.77 414.918 346.77 413.141C346.77 411.364 347.718 409.824 349.495 408.758L427.095 363.975C428.517 363.146 430.057 363.027 431.005 363.027C432.071 363.027 433.493 363.146 434.914 363.975L481.83 391.105C483.488 392.053 484.555 393.712 484.555 395.489C484.555 397.266 483.607 398.806 481.83 399.872L404.23 444.655C402.927 445.366 401.386 445.603 400.32 445.603Z" fill="#E0E0E0"/>
<path d="M301.751 504.958C295.59 504.958 289.785 504.247 284.217 502.944C278.53 501.641 273.317 499.627 268.697 497.257L268.578 497.139C267.63 496.665 266.446 495.836 264.906 494.888C263.484 493.94 261.944 492.992 260.404 492.044C258.863 490.978 257.442 490.03 256.02 489.083C254.598 488.135 253.532 487.306 252.703 486.713C248.675 483.633 245.713 479.96 243.699 476.051C241.566 471.667 240.856 467.047 241.803 462.308C242.633 457.806 245.121 453.422 248.912 449.039C252.584 445.011 257.679 441.22 264.55 437.547C272.132 433.519 279.478 430.557 286.468 428.78C293.458 427.003 300.092 426.055 306.371 425.937H306.964C313.006 425.937 318.811 426.647 324.261 428.188C329.71 429.728 334.805 431.742 339.544 434.23C341.439 435.296 343.453 436.481 345.586 437.902C347.718 439.324 349.614 440.627 351.154 441.812C354.116 443.944 356.13 446.314 357.196 448.92C358.262 451.408 358.618 454.015 358.262 456.503C358.381 456.503 358.618 456.503 358.736 456.503H359.092C361.343 456.503 363.357 457.213 365.015 458.398C367.266 459.938 368.451 462.663 367.977 465.388C367.74 467.284 367.148 469.298 366.555 471.43C365.726 473.918 364.304 476.524 362.29 479.131C360.395 481.619 357.788 483.988 354.471 486.713C351.272 489.32 346.889 491.926 341.676 494.769C335.16 498.205 328.407 500.811 321.773 502.47C315.138 504.01 308.622 504.84 302.462 504.958H301.751ZM297.604 464.796C297.841 464.914 298.078 465.151 298.315 465.27C300.448 466.691 302.462 467.402 304.476 467.639C304.831 467.639 305.186 467.757 305.542 467.757C306.49 467.757 307.319 467.639 308.03 467.284C307.793 467.165 307.674 467.047 307.437 466.81C305.305 465.388 303.172 464.559 301.158 464.322C300.803 464.322 300.448 464.203 300.092 464.203C299.263 464.322 298.433 464.44 297.604 464.796Z" fill="#E0E0E0"/>
<path d="M162.782 483.278L10.3073 395.489C7.10853 393.594 7.10853 390.632 10.3073 388.736L319.759 210.079C322.958 208.183 328.17 208.183 331.369 210.079L483.844 297.986C487.043 299.881 487.043 302.843 483.844 304.739L174.392 483.278C171.194 485.173 165.981 485.173 162.782 483.278Z" fill="#E0E0E0"/>
<path d="M152.593 36.2785L144.774 40.7804C144.774 40.425 144.893 40.0696 144.893 39.7142V37.4632C144.893 33.4351 142.049 31.8949 138.613 33.7905C137.192 34.6198 135.889 35.923 134.822 37.3447C134.23 32.3688 130.32 30.4733 125.463 33.1982C120.25 36.16 116.104 43.5053 116.104 49.429V52.7462C116.104 54.2863 116.341 55.5896 116.933 56.6558L110.535 60.3285C108.64 61.3947 107.1 64.1196 107.1 66.3706C107.1 68.6216 108.64 69.4509 110.535 68.3846L152.593 44.3346C154.489 43.2684 156.029 40.5435 156.029 38.2925C156.029 36.16 154.489 35.2122 152.593 36.2785Z" fill="#EBEBEB"/>
<path d="M101.294 15.6645L97.0293 17.3231V7.84524C97.0293 0.381444 91.1057 -1.39565 84.5897 2.27701C78.0736 6.06815 72.8608 15.0721 72.8608 22.5359V23.9576C71.4392 23.3652 69.5436 23.6022 67.4111 24.7869C62.7906 27.5118 58.9995 34.0278 58.9995 39.3591V39.9514L53.0758 43.3872C49.9955 45.1642 47.5076 49.4293 47.5076 52.9835C47.5076 56.5377 49.9955 57.9593 53.0758 56.1822L101.413 28.3411C104.493 26.564 106.981 22.299 106.981 18.7448C106.863 15.4275 104.375 13.8874 101.294 15.6645Z" fill="#EBEBEB"/>
<path d="M37.3193 361.132L45.3755 356.512C45.3755 356.512 50.2329 336.608 48.2189 318.6C45.494 293.365 28.9077 283.888 22.6287 286.02C16.3496 288.153 14.454 295.498 24.8797 310.544C31.1587 319.43 38.741 337.911 37.3193 361.132Z" fill="#14B86E"/>
<g opacity="0.15">
<path opacity="0.15" d="M37.3193 361.132L45.3755 356.512C45.3755 356.512 50.2329 336.608 48.2189 318.6C45.494 293.365 28.9077 283.888 22.6287 286.02C16.3496 288.153 14.454 295.498 24.8797 310.544C31.1587 319.43 38.741 337.911 37.3193 361.132Z" fill="black"/>
</g>
<path d="M40.6367 351.417C40.2813 351.299 40.0443 351.062 40.1628 350.706C44.5463 327.486 36.4901 301.303 26.4199 290.404C26.183 290.167 26.183 289.811 26.4199 289.574C26.6569 289.337 27.0123 289.337 27.2492 289.574C37.5564 300.711 45.731 327.249 41.3475 350.825C41.229 351.18 40.9921 351.417 40.6367 351.417Z" fill="white"/>
<path d="M15.0462 376.889C13.743 377.481 10.4258 374.638 9.478 373.927C7.81938 372.743 6.63465 371.084 5.80534 369.188C4.85755 367.056 4.73908 364.805 5.21297 362.435C5.44992 361.251 5.80534 360.066 6.27923 359C6.63465 357.815 7.10854 356.749 7.46396 355.564C7.81938 354.498 8.1748 353.313 8.1748 352.128C7.93785 349.759 6.04228 347.982 4.14671 346.56C2.13267 344.901 0.000158235 342.65 0.237104 339.925C0.355577 337.793 1.54031 335.779 3.08046 334.12C4.50213 332.462 6.16076 331.04 7.46396 329.263C8.41174 327.96 9.12258 326.538 9.12258 324.998C9.12258 324.05 8.76716 323.102 8.29327 322.155C7.34549 320.259 6.16075 318.482 5.56839 316.468C4.97602 314.454 5.21297 311.966 6.87159 310.663C8.1748 309.596 10.0704 309.478 11.8475 309.715C13.3876 309.952 14.9278 310.663 16.231 311.492C20.6145 314.217 22.8654 319.667 27.6044 321.799C29.3815 322.628 31.3955 322.865 33.2911 323.458C35.1866 324.05 37.0822 325.116 37.9115 326.893C39.4517 330.448 36.016 334.594 37.0822 338.385C38.03 341.703 41.1103 343.124 42.7689 346.205C43.4798 347.508 43.5982 349.048 43.3613 350.588C43.0059 353.076 42.532 354.972 41.2288 357.696C40.044 359.947 36.9637 364.331 36.9637 364.331C36.9637 364.331 15.2832 376.771 15.0462 376.889Z" fill="#14B86E"/>
<path d="M27.3676 370.492C27.0121 370.492 26.7752 370.136 26.8937 369.899C28.9077 347.745 19.6668 322.747 12.44 315.283C12.203 315.046 12.203 314.691 12.44 314.454C12.6769 314.217 13.0323 314.217 13.2693 314.454C20.6146 322.155 30.0924 347.508 27.9599 370.018C27.9599 370.255 27.723 370.492 27.3676 370.492Z" fill="white"/>
<path d="M25.235 343.125H25.1166C18.1266 340.518 9.24116 339.689 9.12269 339.689C8.76727 339.689 8.53033 339.333 8.6488 339.097C8.6488 338.741 8.88575 338.504 9.24116 338.623C9.35964 338.623 18.3636 339.452 25.472 342.058C25.7089 342.177 25.9459 342.532 25.8274 342.769C25.7089 343.006 25.472 343.243 25.235 343.125Z" fill="white"/>
<path d="M20.3775 389.803L162.19 471.668C166.81 474.274 172.26 474.393 176.999 471.905L462.519 307.109C467.021 304.502 470.693 298.697 470.693 294.195C470.693 289.575 467.021 283.77 462.519 281.282L321.299 199.772C316.797 197.166 309.452 197.166 305.068 199.772L20.3775 363.976C15.8755 366.582 12.2029 372.387 12.2029 376.889C12.2029 381.51 15.8755 387.315 20.3775 389.803Z" fill="#37474F"/>
<path d="M162.19 471.667L20.3775 389.802C15.8755 387.196 12.2029 381.391 12.2029 376.889C12.2029 372.268 15.8755 366.463 20.3775 363.975L169.89 277.608V473.8C167.166 473.8 164.559 473.089 162.19 471.667Z" fill="#263238"/>
<path d="M165.507 457.095C169.417 459.346 175.933 459.346 179.842 457.095L462.4 293.958C468.443 290.404 468.443 284.717 462.4 281.163L321.062 199.535C316.56 196.928 309.215 196.928 304.831 199.535L20.3776 363.975C15.8757 366.582 15.8757 370.847 20.3776 373.335L165.507 457.095Z" fill="#455A64"/>
<path d="M179.25 440.745C183.515 443.233 190.505 443.233 194.77 440.745L437.876 300.355C442.141 297.867 442.141 293.839 437.876 291.469L304.95 214.699C300.685 212.211 293.695 212.211 289.43 214.699L46.323 355.089C42.058 357.577 42.058 361.605 46.323 363.975L179.25 440.745Z" fill="#37474F"/>
<path d="M297.723 212.804C300.329 212.922 302.936 213.515 304.95 214.581L437.876 291.351C442.141 293.839 442.141 297.867 437.876 300.237L411.575 315.401L297.723 242.659V212.804Z" fill="#263238"/>
<path d="M289.43 220.505C293.695 218.017 300.685 218.017 304.95 220.505L437.876 297.275C438.706 297.749 439.417 298.341 439.89 298.934C439.417 299.526 438.706 300 437.995 300.474L194.77 440.746C190.505 443.234 183.515 443.234 179.25 440.746L46.323 363.975C45.4937 363.502 44.7829 362.909 44.309 362.317C44.7829 361.724 45.3752 361.251 46.2046 360.777L289.43 220.505Z" fill="#FAFAFA"/>
<path d="M389.303 255.454L365.727 241.829C364.305 241 364.305 239.697 365.608 238.986C366.911 238.275 369.162 238.275 370.584 239.104L394.16 252.729C395.582 253.558 395.582 254.861 394.279 255.572C392.857 256.402 390.724 256.283 389.303 255.454Z" fill="#263238"/>
<path d="M348.785 232.234C347.482 231.523 347.482 230.22 348.785 229.509C350.088 228.798 352.221 228.798 353.524 229.509C354.827 230.22 354.827 231.523 353.524 232.234C352.339 232.944 350.206 232.944 348.785 232.234Z" fill="#263238"/>
<path d="M339.307 226.665C338.004 225.954 338.004 224.651 339.307 223.94C340.61 223.23 342.743 223.23 344.046 223.94C345.349 224.651 345.349 225.954 344.046 226.665C342.743 227.376 340.61 227.376 339.307 226.665Z" fill="#263238"/>
<path d="M415.722 270.738C414.419 270.027 414.419 268.723 415.722 268.013C417.025 267.302 419.158 267.302 420.461 268.013C421.764 268.723 421.764 270.027 420.461 270.738C419.158 271.567 417.025 271.567 415.722 270.738Z" fill="#263238"/>
<path d="M406.126 265.287C404.823 264.576 404.823 263.273 406.126 262.562C407.429 261.852 409.561 261.852 410.865 262.562C412.168 263.273 412.168 264.576 410.865 265.287C409.561 265.998 407.429 265.998 406.126 265.287Z" fill="#263238"/>
<path d="M173.326 401.532V402.006C173.326 402.835 173.919 403.783 174.629 404.257L202.234 420.251C202.944 420.606 204.129 420.606 204.84 420.251L250.689 393.831C251.4 393.476 251.992 392.409 251.992 391.58V391.106C251.992 390.277 251.4 389.329 250.689 388.855L223.085 372.861C222.374 372.506 221.189 372.506 220.478 372.861L174.629 399.281C173.919 399.636 173.326 400.702 173.326 401.532Z" fill="#14B86E"/>
<path d="M173.326 401.532V402.006C173.326 402.835 173.919 403.783 174.629 404.257L202.234 420.251C202.944 420.606 204.129 420.606 204.84 420.251L250.689 393.831C251.4 393.476 251.992 392.409 251.992 391.58V391.106C251.992 390.277 251.4 389.329 250.689 388.855L223.085 372.861C222.374 372.506 221.189 372.506 220.478 372.861L174.629 399.281C173.919 399.636 173.326 400.702 173.326 401.532Z" fill="#14B86E"/>
<path opacity="0.3" d="M250.689 388.737L223.085 372.743C222.374 372.388 221.189 372.388 220.478 372.743L203.655 382.458V420.369C204.129 420.369 204.603 420.251 204.958 420.014L250.807 393.594C251.518 393.239 252.111 392.173 252.111 391.343V390.869C251.992 390.159 251.4 389.211 250.689 388.737Z" fill="white"/>
<path opacity="0.15" d="M250.689 388.737L223.085 372.743C222.374 372.388 221.189 372.388 220.478 372.743L203.655 382.458V420.369C204.129 420.369 204.603 420.251 204.958 420.014L250.807 393.594C251.518 393.239 252.111 392.173 252.111 391.343V390.869C251.992 390.159 251.4 389.211 250.689 388.737Z" fill="black"/>
<path opacity="0.3" d="M203.537 382.576L174.629 399.281C173.919 399.636 173.326 400.703 173.326 401.532V402.006C173.326 402.835 173.919 403.783 174.629 404.257L202.234 420.251C202.589 420.488 203.063 420.606 203.537 420.606V382.576Z" fill="white"/>
<path opacity="0.2" d="M203.537 382.576L174.629 399.281C173.919 399.636 173.326 400.703 173.326 401.532V402.006C173.326 402.835 173.919 403.783 174.629 404.257L202.234 420.251C202.589 420.488 203.063 420.606 203.537 420.606V382.576Z" fill="black"/>
<path d="M197.85 414.208L174.629 400.821C173.919 400.466 173.919 399.755 174.629 399.281L220.479 372.861C221.189 372.506 222.374 372.506 223.085 372.861L250.689 388.855C251.4 389.211 251.4 389.921 250.689 390.395L243.107 394.779L240.5 396.319L204.959 416.815C204.248 417.17 203.063 417.17 202.352 416.815L200.101 415.512L197.85 414.208Z" fill="#14B86E"/>
<path opacity="0.3" d="M197.85 414.208L174.629 400.821C173.919 400.466 173.919 399.755 174.629 399.281L220.479 372.861C221.189 372.506 222.374 372.506 223.085 372.861L250.689 388.855C251.4 389.211 251.4 389.921 250.689 390.395L243.107 394.779L240.5 396.319L204.959 416.815C204.248 417.17 203.063 417.17 202.352 416.815L200.101 415.512L197.85 414.208Z" fill="white"/>
<path opacity="0.15" d="M218.938 391.936L250.689 388.855L219.294 390.632L223.085 372.862C222.729 372.625 222.137 372.506 221.663 372.625L215.739 396.675L174.155 400.11C174.155 400.347 174.274 400.703 174.629 400.94L208.157 399.044L203.537 417.289L209.46 399.044L215.147 398.689C215.858 398.689 216.569 398.333 217.043 397.859C217.516 397.385 217.872 396.912 217.99 396.201L218.938 391.936Z" fill="black"/>
<path opacity="0.3" d="M183.989 399.162L215.621 396.556L216.806 392.054L217.398 389.566L221.545 372.506C221.071 372.506 220.715 372.624 220.36 372.743L197.495 386.012L174.629 399.281C174.274 399.518 174.155 399.755 174.155 399.992L180.553 399.518L183.989 399.162Z" fill="white"/>
<path d="M216.45 369.07C219.294 367.412 224.033 367.412 226.876 369.07C229.719 370.729 229.719 373.454 226.876 375.112C224.033 376.771 219.294 376.771 216.45 375.112C213.607 373.454 213.607 370.729 216.45 369.07Z" fill="#F28F8F"/>
<path d="M217.991 373.099C217.872 373.099 217.872 373.099 217.754 372.98L217.635 372.862L218.109 370.966V370.848C218.109 370.729 218.228 370.729 218.228 370.729L219.294 370.137C219.412 370.137 219.412 370.137 219.531 370.137C219.649 370.137 219.649 370.137 219.768 370.137L225.336 373.336C225.454 373.336 225.454 373.454 225.454 373.454C225.454 373.454 225.454 373.572 225.336 373.572L224.151 374.283C224.033 374.283 224.033 374.283 223.914 374.283C223.796 374.283 223.796 374.283 223.677 374.283L219.886 372.151L219.649 373.217C219.649 373.217 219.649 373.336 219.531 373.336C219.412 373.336 219.412 373.336 219.294 373.336L217.991 373.099Z" fill="#FAFAFA"/>
<path d="M269.645 381.273L238.486 363.265C237.776 362.909 237.776 362.198 238.486 361.725L351.391 296.564C352.102 296.209 353.287 296.209 353.998 296.564L385.156 314.572C385.867 314.928 385.867 315.639 385.156 316.112L272.251 381.273C271.54 381.747 270.356 381.747 269.645 381.273Z" fill="#14B86E"/>
<path d="M263.721 361.014C263.603 361.133 263.484 361.133 263.366 361.133C263.247 361.133 263.129 361.133 263.129 361.133L256.613 360.422L260.404 362.673C260.522 362.673 260.522 362.792 260.522 362.792C260.522 362.792 260.522 362.91 260.404 362.91L259.693 363.384C259.575 363.384 259.575 363.384 259.456 363.502C259.338 363.502 259.219 363.502 259.219 363.384L253.177 359.948C253.059 359.948 253.059 359.83 253.059 359.83C253.059 359.83 253.059 359.711 253.177 359.711L253.769 359.356C253.888 359.237 254.006 359.237 254.125 359.237C254.243 359.237 254.362 359.237 254.362 359.237L260.878 359.948L257.087 357.697C256.968 357.697 256.968 357.579 256.968 357.579C256.968 357.579 256.968 357.46 257.087 357.46L257.798 356.986C257.916 356.986 257.916 356.986 258.035 356.986C258.153 356.986 258.271 356.986 258.271 356.986L264.314 360.422C264.432 360.422 264.432 360.541 264.432 360.541C264.432 360.541 264.432 360.659 264.314 360.659L263.721 361.014Z" fill="#FAFAFA"/>
<path d="M263.247 358.407C262.892 358.17 262.655 357.933 262.418 357.697C262.181 357.46 262.063 357.223 262.063 356.986C262.063 356.749 262.063 356.512 262.299 356.275C262.418 356.038 262.655 355.801 263.01 355.564C263.366 355.327 263.721 355.209 264.195 355.09C264.55 354.972 265.024 354.972 265.38 354.972C265.735 354.972 266.209 355.09 266.565 355.09C266.92 355.209 267.275 355.327 267.631 355.564L268.105 355.801C268.223 355.801 268.223 355.919 268.223 355.919C268.223 355.919 268.223 356.038 268.105 356.038L265.024 357.815C265.143 357.933 265.38 357.933 265.498 357.933C265.617 357.933 265.854 357.933 265.972 357.933C266.091 357.933 266.328 357.933 266.446 357.815C266.565 357.815 266.801 357.697 266.92 357.578C267.157 357.46 267.275 357.341 267.394 357.223C267.512 357.104 267.512 356.986 267.512 356.986C267.512 356.867 267.512 356.867 267.631 356.867L267.749 356.749L268.46 356.275C268.579 356.275 268.579 356.156 268.697 356.156C268.816 356.156 268.934 356.156 268.934 356.275C269.052 356.275 269.052 356.393 269.171 356.512C269.171 356.63 269.171 356.749 269.171 356.986C269.171 357.223 269.052 357.341 268.816 357.578C268.579 357.815 268.342 357.933 267.986 358.17C267.631 358.407 267.275 358.526 266.92 358.644C266.565 358.763 266.091 358.763 265.735 358.763C265.261 358.763 264.906 358.644 264.432 358.526C264.077 358.881 263.603 358.644 263.247 358.407ZM264.195 356.275C263.958 356.393 263.84 356.512 263.84 356.63C263.721 356.749 263.721 356.867 263.721 356.986C263.721 357.104 263.721 357.223 263.84 357.223C263.84 357.341 263.958 357.341 264.077 357.46L266.209 356.275C266.091 356.275 265.972 356.156 265.854 356.156C265.735 356.156 265.617 356.038 265.38 356.038C265.261 356.038 265.024 356.038 264.906 356.038C264.55 356.156 264.314 356.156 264.195 356.275Z" fill="#FAFAFA"/>
<path d="M273.91 352.84L272.133 350.826C272.133 350.826 272.133 350.707 272.014 350.707C272.014 350.707 272.014 350.589 272.133 350.589L272.844 350.233C272.962 350.233 272.962 350.233 273.081 350.233C273.199 350.233 273.318 350.233 273.318 350.233L276.161 353.551L276.279 353.669C276.279 353.669 276.279 353.788 276.161 353.788L275.45 354.143C275.332 354.143 275.332 354.261 275.213 354.261C275.095 354.261 275.095 354.261 274.976 354.261L271.54 353.314L273.081 355.209C273.081 355.209 273.081 355.328 273.199 355.328C273.199 355.328 273.199 355.446 273.081 355.446L272.488 355.92C272.37 355.92 272.37 356.039 272.251 356.039C272.133 356.039 272.133 356.039 272.014 356.039L266.328 354.38C266.328 354.38 266.328 354.38 266.209 354.38C266.091 354.38 266.091 354.261 266.091 354.261C266.091 354.261 266.091 354.143 266.209 354.143L266.92 353.788C267.038 353.788 267.038 353.669 267.157 353.669C267.275 353.669 267.275 353.669 267.394 353.669L270.83 354.735L269.053 352.721C269.053 352.721 269.053 352.603 268.934 352.603C268.934 352.603 268.934 352.484 269.053 352.484L269.763 352.129C269.882 352.129 269.882 352.129 270 352.129C270.119 352.129 270.119 352.129 270.237 352.129L273.91 352.84Z" fill="#FAFAFA"/>
<path d="M278.056 349.878C277.701 349.641 277.464 349.404 277.227 349.167C276.99 348.93 276.872 348.693 276.872 348.456C276.872 348.22 276.872 347.983 277.109 347.746C277.227 347.509 277.464 347.272 277.819 347.035C278.175 346.798 278.53 346.679 279.004 346.561C279.36 346.442 279.833 346.442 280.189 346.442C280.544 346.442 281.018 346.561 281.374 346.561C281.729 346.679 282.084 346.798 282.44 347.035L282.914 347.272C283.032 347.272 283.032 347.39 283.032 347.39C283.032 347.39 283.032 347.509 282.914 347.509L279.833 349.286C279.952 349.404 280.189 349.404 280.307 349.404C280.426 349.404 280.663 349.404 280.781 349.404C280.9 349.404 281.137 349.404 281.255 349.286C281.374 349.286 281.611 349.167 281.729 349.049C281.966 348.93 282.084 348.812 282.203 348.693C282.321 348.575 282.321 348.456 282.321 348.456C282.321 348.338 282.321 348.338 282.44 348.338L282.558 348.219L283.269 347.746C283.388 347.746 283.388 347.746 283.506 347.627C283.625 347.627 283.743 347.627 283.743 347.746C283.862 347.746 283.862 347.864 283.98 347.983C283.98 348.101 283.98 348.22 283.98 348.456C283.98 348.693 283.862 348.812 283.625 349.049C283.506 349.286 283.151 349.404 282.795 349.641C282.44 349.878 282.084 349.997 281.729 350.115C281.374 350.234 280.9 350.234 280.544 350.234C280.07 350.234 279.715 350.115 279.241 349.997C278.886 350.234 278.53 350.115 278.056 349.878ZM279.004 347.746C278.767 347.864 278.649 347.983 278.649 348.101C278.53 348.219 278.53 348.338 278.53 348.456C278.53 348.575 278.53 348.693 278.649 348.693C278.649 348.812 278.767 348.812 278.886 348.93L281.018 347.746C280.9 347.746 280.781 347.627 280.663 347.627C280.544 347.627 280.426 347.509 280.189 347.509C280.07 347.509 279.834 347.509 279.715 347.509C279.36 347.627 279.241 347.627 279.004 347.746Z" fill="#FAFAFA"/>
<path d="M282.914 344.784C282.914 344.547 282.914 344.428 283.032 344.191C283.151 344.073 283.269 343.836 283.506 343.717C283.862 343.481 284.336 343.362 284.691 343.244C285.047 343.244 285.52 343.125 285.876 343.244C285.876 343.125 285.876 343.007 285.876 342.888C285.876 342.77 285.994 342.651 285.994 342.533C286.113 342.414 286.113 342.296 286.231 342.177C286.35 342.059 286.468 341.94 286.587 341.94C286.942 341.703 287.298 341.585 287.653 341.585C288.008 341.466 288.364 341.466 288.719 341.585C289.075 341.585 289.43 341.703 289.667 341.822C290.022 341.94 290.259 342.059 290.615 342.296L293.103 343.717C293.221 343.717 293.221 343.836 293.221 343.836C293.221 343.836 293.221 343.954 293.103 343.954L292.392 344.31C292.273 344.31 292.273 344.31 292.155 344.31C292.036 344.31 291.918 344.31 291.918 344.31L289.43 342.888C288.956 342.651 288.601 342.533 288.245 342.533C287.89 342.533 287.653 342.651 287.298 342.77C287.061 342.888 286.942 343.125 286.942 343.244C286.942 343.481 287.061 343.599 287.534 343.836L290.022 345.258C290.141 345.258 290.141 345.376 290.141 345.376C290.141 345.376 290.141 345.495 290.022 345.495L289.312 345.85C289.193 345.85 289.193 345.85 289.075 345.85C288.956 345.85 288.838 345.85 288.838 345.731L286.35 344.31C285.876 344.073 285.52 343.954 285.165 343.954C284.81 343.954 284.573 344.073 284.217 344.191C283.98 344.31 283.862 344.547 283.862 344.665C283.862 344.902 284.099 345.139 284.454 345.376L286.942 346.798C287.061 346.798 287.061 346.916 287.061 346.916C287.061 346.916 287.061 347.035 286.942 347.035L286.231 347.39C286.113 347.39 286.113 347.39 285.994 347.39C285.876 347.39 285.757 347.39 285.757 347.39L281.374 344.902C281.255 344.902 281.255 344.784 281.255 344.784C281.255 344.784 281.255 344.665 281.374 344.665L282.085 344.31C282.203 344.31 282.203 344.31 282.322 344.31C282.44 344.31 282.559 344.31 282.559 344.31L282.914 344.784Z" fill="#FAFAFA"/>
<path d="M290.97 340.992C290.852 340.874 290.733 340.755 290.733 340.637C290.733 340.518 290.615 340.4 290.733 340.163C290.733 340.044 290.852 339.807 290.97 339.57C291.089 339.334 291.326 339.215 291.681 338.978C292.036 338.741 292.273 338.623 292.629 338.504C292.984 338.386 293.34 338.386 293.695 338.386C294.05 338.386 294.406 338.386 294.761 338.504C295.117 338.623 295.472 338.741 295.709 338.86L298.434 340.4C298.552 340.4 298.552 340.518 298.552 340.518C298.552 340.518 298.552 340.637 298.434 340.637L297.723 340.992C297.605 340.992 297.605 340.992 297.486 340.992C297.368 340.992 297.249 340.992 297.249 340.874L296.894 340.755C296.894 340.992 296.894 341.111 296.775 341.348C296.657 341.585 296.42 341.821 296.064 341.94C295.827 342.058 295.472 342.177 295.235 342.295C294.998 342.414 294.643 342.414 294.406 342.414C294.169 342.414 293.813 342.414 293.577 342.295C293.34 342.295 293.103 342.177 292.866 342.058C292.392 341.821 292.273 341.585 292.273 341.229C292.392 340.874 292.629 340.637 292.984 340.281L294.287 339.215C294.05 339.097 293.813 338.978 293.458 339.097C293.221 339.097 292.866 339.215 292.629 339.334C292.51 339.452 292.392 339.452 292.273 339.57C292.273 339.689 292.155 339.689 292.155 339.807C292.155 339.926 292.155 339.926 292.155 339.926L292.036 340.044L291.207 340.518C291.089 340.518 291.089 340.518 290.97 340.518C291.089 341.111 291.089 341.111 290.97 340.992ZM295.235 341.584C295.472 341.466 295.591 341.348 295.709 341.229C295.827 341.111 295.827 340.992 295.827 340.874C295.827 340.755 295.827 340.637 295.709 340.518C295.591 340.4 295.591 340.281 295.354 340.281H295.235L294.169 341.111C293.932 341.229 293.813 341.466 293.813 341.584C293.813 341.703 293.813 341.821 293.932 341.821C294.05 341.94 294.169 341.94 294.406 341.821C294.761 341.821 294.998 341.703 295.235 341.584Z" fill="#FAFAFA"/>
<path d="M294.406 335.661C294.524 335.661 294.524 335.661 294.643 335.661C294.761 335.661 294.88 335.661 294.88 335.661L295.59 336.135C295.709 336.135 295.709 336.253 295.709 336.253C295.709 336.253 295.709 336.372 295.59 336.372L294.761 336.846C294.643 336.846 294.643 336.846 294.524 336.846C294.406 336.846 294.287 336.846 294.287 336.846L293.576 336.372C293.458 336.372 293.458 336.253 293.458 336.253C293.458 336.253 293.458 336.135 293.576 336.135L294.406 335.661ZM300.922 339.215C301.04 339.215 301.04 339.334 301.04 339.334C301.04 339.334 301.04 339.452 300.922 339.452L300.211 339.808C300.092 339.808 300.092 339.808 299.974 339.926C299.855 339.926 299.737 339.926 299.737 339.808L295.353 337.32C295.235 337.32 295.235 337.201 295.235 337.201C295.235 337.201 295.235 337.083 295.353 337.083L296.064 336.727C296.183 336.727 296.183 336.727 296.301 336.727C296.42 336.727 296.538 336.727 296.538 336.846L300.922 339.215Z" fill="#FAFAFA"/>
<path d="M303.41 337.793C303.528 337.793 303.528 337.912 303.528 337.912C303.528 337.912 303.528 338.03 303.41 338.03L302.699 338.386C302.581 338.386 302.581 338.386 302.462 338.386C302.344 338.386 302.225 338.386 302.225 338.386L296.183 334.832C296.064 334.832 296.064 334.713 296.064 334.713C296.064 334.713 296.064 334.595 296.183 334.595L296.894 334.239C297.012 334.239 297.012 334.239 297.131 334.239C297.249 334.239 297.368 334.239 297.368 334.239L303.41 337.793Z" fill="#FAFAFA"/>
<path d="M266.565 365.989L358.737 312.795C359.921 312.084 361.58 312.084 362.409 312.558C363.357 313.032 363.12 314.098 362.054 314.69L269.882 367.885C268.697 368.596 267.038 368.596 266.209 368.122C265.261 367.648 265.38 366.7 266.565 365.989Z" fill="#FAFAFA"/>
<path d="M272.962 369.781L365.134 316.587C366.319 315.876 367.977 315.876 368.807 316.35C369.754 316.824 369.517 317.89 368.451 318.482L276.279 371.677C275.094 372.388 273.436 372.388 272.607 371.914C271.659 371.321 271.896 370.374 272.962 369.781Z" fill="#FAFAFA"/>
<path d="M136.244 404.256L88.0256 376.534L303.646 252.019L352.694 279.267L136.244 404.256Z" fill="#E0E0E0"/>
<path d="M123.212 231.049L328.17 112.694L336.345 117.433C338.477 118.618 340.255 121.698 340.255 124.068V275.358C340.255 277.846 338.477 280.808 336.345 281.992L139.087 395.963C136.955 397.148 133.519 397.148 131.387 395.963L127.003 393.475C124.871 392.291 123.094 389.21 123.094 386.841L123.212 231.049Z" fill="#14B86E"/>
<path opacity="0.2" d="M123.212 231.049L328.17 112.694L336.345 117.433C338.477 118.618 340.255 121.698 340.255 124.068V275.358C340.255 277.846 338.477 280.808 336.345 281.992L139.087 395.963C136.955 397.148 133.519 397.148 131.387 395.963L127.003 393.475C124.871 392.291 123.094 389.21 123.094 386.841L123.212 231.049Z" fill="black"/>
<path d="M327.104 99.4247L327.933 98.9508L324.735 97.0553C324.498 96.9368 324.142 96.6998 323.905 96.6998L233.629 63.2904C231.259 62.4611 228.179 63.4089 226.757 65.5414L125.818 212.922C124.397 215.054 123.212 218.846 123.212 221.333C123.212 225.598 123.212 231.167 123.212 231.167L126.292 232.944L328.17 112.694V102.86C328.17 101.676 327.815 100.491 327.104 99.4247Z" fill="#14B86E"/>
<path opacity="0.1" d="M230.904 66.1339C230.548 66.4893 230.193 66.8447 229.838 67.2001L128.899 214.581C128.188 215.647 127.477 217.187 127.003 218.846L123.923 217.068C124.16 216.358 124.397 215.528 124.752 214.817C124.752 214.817 124.752 214.818 124.752 214.699C124.87 214.344 124.989 214.107 125.226 213.751C125.226 213.751 125.226 213.633 125.344 213.633C125.463 213.277 125.7 213.04 125.937 212.685L226.876 65.3045C226.994 65.0676 227.231 64.8306 227.35 64.7122C227.468 64.5937 227.705 64.3568 227.942 64.2383L230.904 66.1339Z" fill="black"/>
<path opacity="0.35" d="M327.815 98.9515C327.578 98.833 327.222 98.5961 326.985 98.4776L236.709 65.0682C234.813 64.3574 232.444 64.8313 230.785 66.1345L227.705 64.3574C229.364 63.0542 231.615 62.5803 233.629 63.2911L323.905 96.7005C324.142 96.819 324.497 96.9375 324.734 97.1744L327.815 98.9515Z" fill="white"/>
<path d="M125.226 213.751C125.344 213.396 125.581 213.159 125.818 212.922C125.581 213.159 125.463 213.396 125.226 213.751Z" fill="#14B86E"/>
<path d="M227.231 64.8313C227.35 64.7128 227.587 64.4759 227.824 64.3574C227.587 64.4759 227.35 64.7128 227.231 64.8313Z" fill="#14B86E"/>
<path d="M123.923 217.068C124.16 216.239 124.397 215.528 124.752 214.817C124.397 215.528 124.16 216.239 123.923 217.068Z" fill="#14B86E"/>
<path d="M124.752 214.818C124.871 214.462 124.989 214.225 125.226 213.988C124.989 214.225 124.871 214.462 124.752 214.818Z" fill="#14B86E"/>
<path opacity="0.2" d="M125.107 213.869C125.107 213.869 125.107 213.751 125.226 213.751C125.226 213.751 125.226 213.869 125.107 213.869Z" fill="black"/>
<path opacity="0.2" d="M226.757 65.4234C226.876 65.1865 227.113 64.9495 227.231 64.8311C226.994 65.068 226.876 65.1865 226.757 65.4234Z" fill="black"/>
<path d="M229.838 67.3184L128.899 214.699C127.477 216.831 126.292 220.622 126.292 223.11C126.292 227.375 126.292 232.944 126.292 232.944L331.369 114.589V104.756C331.369 102.268 329.473 99.4246 327.104 98.5953L236.827 65.1859C234.34 64.1196 231.259 65.1859 229.838 67.3184Z" fill="#14B86E"/>
<path opacity="0.05" d="M331.369 104.756C331.369 103.571 330.895 102.387 330.303 101.32L127.121 218.964C126.648 220.386 126.411 221.926 126.411 223.111C126.411 227.376 126.411 232.944 126.411 232.944L331.487 114.589L331.369 104.756Z" fill="black"/>
<path d="M322.602 63.1724C322.602 62.1062 322.247 61.3953 321.654 61.0399C321.062 60.6845 315.968 57.7227 315.375 57.4857C314.783 57.1303 313.954 57.1303 313.006 57.7227L144.893 154.871C142.997 155.937 141.575 158.543 141.575 160.676V362.08C141.575 363.146 141.931 363.857 142.523 364.212C143.115 364.568 148.21 367.411 148.802 367.767C149.394 368.122 150.224 368.122 151.172 367.53L319.285 270.382C321.18 269.315 322.602 266.709 322.602 264.577V63.1724Z" fill="#14B86E"/>
<path opacity="0.95" d="M322.602 63.1724C322.602 62.1062 322.247 61.3953 321.654 61.0399C321.062 60.6845 315.968 57.7227 315.375 57.4857C314.783 57.1303 313.954 57.1303 313.006 57.7227L144.893 154.871C142.997 155.937 141.575 158.543 141.575 160.676V362.08C141.575 363.146 141.931 363.857 142.523 364.212C143.115 364.568 148.21 367.411 148.802 367.767C149.394 368.122 150.224 368.122 151.172 367.53L319.285 270.382C321.18 269.315 322.602 266.709 322.602 264.577V63.1724Z" fill="white"/>
<path d="M151.053 367.411L319.166 270.263C321.062 269.197 322.483 266.59 322.483 264.458V63.0539C322.483 60.9213 320.943 60.092 319.166 61.1583L151.053 158.306C149.157 159.372 147.736 161.979 147.736 164.111V365.515C147.736 367.648 149.276 368.477 151.053 367.411Z" fill="#14B86E"/>
<path opacity="0.8" d="M151.053 367.411L319.166 270.263C321.062 269.197 322.483 266.59 322.483 264.458V63.0539C322.483 60.9213 320.943 60.092 319.166 61.1583L151.053 158.306C149.157 159.372 147.736 161.979 147.736 164.111V365.515C147.736 367.648 149.276 368.477 151.053 367.411Z" fill="white"/>
<path d="M147.736 365.515C147.736 366.463 147.973 367.174 148.565 367.529C147.499 366.937 143.115 364.33 142.523 364.093C141.931 363.738 141.575 363.027 141.575 361.961V160.438C141.575 159.372 141.931 158.187 142.523 157.121L148.802 160.675C148.21 161.742 147.854 162.926 147.854 163.993V365.515H147.736Z" fill="#14B86E"/>
<path opacity="0.7" d="M147.736 365.515C147.736 366.463 147.973 367.174 148.565 367.529C147.499 366.937 143.115 364.33 142.523 364.093C141.931 363.738 141.575 363.027 141.575 361.961V160.438C141.575 159.372 141.931 158.187 142.523 157.121L148.802 160.675C148.21 161.742 147.854 162.926 147.854 163.993V365.515H147.736Z" fill="white"/>
<path opacity="0.05" d="M147.736 365.515C147.736 366.463 147.973 367.174 148.565 367.529C147.499 366.937 143.115 364.33 142.523 364.093C141.931 363.738 141.575 363.027 141.575 361.961V160.438C141.575 159.372 141.931 158.187 142.523 157.121L148.802 160.675C148.21 161.742 147.854 162.926 147.854 163.993V365.515H147.736Z" fill="black"/>
<path d="M209.105 213.278C208.394 231.997 209.579 272.159 209.579 272.159C209.579 272.159 229.482 278.201 242.988 275.95C256.494 273.699 285.402 253.203 285.402 253.203L280.544 209.724L209.105 213.278Z" fill="#37474F"/>
<path d="M255.191 271.448L258.39 240.882C271.066 233.3 275.213 222.874 275.213 222.874C263.721 237.92 251.637 235.551 251.637 235.551V273.107C252.821 272.633 254.006 272.04 255.191 271.448Z" fill="#263238"/>
<path d="M288.482 156.884C291.681 140.535 293.102 118.855 279.004 114.945C275.331 113.879 265.854 114.59 265.854 114.59L250.571 115.3C242.04 116.367 230.075 118.025 226.994 118.855C218.82 120.869 216.332 134.256 212.659 163.993C210.408 182.593 208.394 197.165 208.394 215.292C223.44 228.798 270.356 223.466 281.018 214.699C281.492 194.203 282.677 186.621 288.482 156.884Z" fill="#455A64"/>
<path d="M247.964 109.732C247.846 112.694 251.281 117.788 256.494 121.224C261.707 124.778 266.209 126.2 266.801 127.622C264.313 128.096 262.062 129.28 260.167 133.545C258.39 137.573 258.39 137.81 252.348 133.545C246.306 129.28 240.856 119.684 240.856 116.485C240.856 113.286 245.595 107.007 247.964 107.6V109.732Z" fill="#37474F"/>
<path d="M266.801 127.74C268.579 125.845 270.237 120.987 270.474 118.855C270.711 116.722 271.303 111.272 271.303 111.272C271.303 111.272 272.725 111.628 273.436 112.576C274.147 113.523 277.346 120.276 277.227 123.949C277.109 127.622 276.279 132.716 274.976 134.849C273.673 136.981 272.844 133.19 272.014 131.768C270.948 129.873 269.526 127.74 266.801 127.74Z" fill="#37474F"/>
<path d="M264.432 132.005C264.432 132.005 264.669 145.392 263.484 152.619C263.484 152.619 267.512 153.33 271.422 152.382C271.422 152.382 269.408 154.87 261.825 153.804C261.944 153.685 264.195 139.706 264.432 132.005Z" fill="#37474F"/>
<path d="M296.183 70.0444C296.064 58.3156 286.349 48.8377 274.502 49.0747C263.484 49.1931 254.599 57.7232 253.651 68.5042L243.936 61.6328C243.936 61.6328 240.382 61.0404 237.657 63.8838C235.051 66.7271 236.591 75.2572 240.145 83.6688C240.145 83.6688 243.581 98.9518 245.002 101.44C246.306 103.928 249.031 104.639 249.031 104.639L248.675 95.2791L287.416 92.5542L283.625 89.8294C291.207 86.2752 296.42 78.6929 296.183 70.0444Z" fill="#263238"/>
<path d="M248.32 84.1421C247.135 84.853 245.95 82.365 243.699 80.9434C241.803 79.7586 237.538 77.8631 234.695 82.4835C231.615 87.5779 237.183 94.5678 240.974 95.9894C246.661 98.1219 248.675 93.62 248.675 93.62L247.49 117.315C255.191 131.413 278.175 130.465 270.355 118.736L271.303 109.614C271.303 109.614 277.464 110.443 280.426 109.969C285.402 109.14 288.482 105.112 289.904 99.7806C292.155 91.132 292.984 84.1421 290.733 67.2005C288.245 48.6002 266.564 48.7187 255.072 56.301C243.462 63.8832 248.32 84.1421 248.32 84.1421Z" fill="#FFA8A7"/>
<path d="M295.472 49.9036C293.932 49.0743 292.036 48.9559 290.259 49.3113C290.615 46.5864 288.837 43.98 286.468 42.9137C283.625 41.6105 281.018 42.0844 278.412 43.98C278.886 42.0844 277.227 40.1889 275.332 39.715C273.436 39.2411 271.422 39.9519 269.645 40.6628C266.92 41.729 264.195 42.9137 261.47 43.743C256.613 45.4017 251.4 46.3495 247.016 48.9559C245.95 49.5482 245.002 50.2591 244.292 51.3253C243.344 52.747 242.988 54.4056 243.107 56.1827C243.107 56.7751 243.225 57.249 243.344 57.8413C242.988 57.4859 242.633 57.1305 242.159 56.8936C240.027 55.8273 237.539 56.6566 236.591 58.7891L243.936 62.5803C243.699 64.0019 243.581 65.5421 243.462 66.9638C243.107 70.8734 242.278 75.3754 243.225 79.285C243.344 79.7589 243.344 80.2327 243.699 80.5882C243.699 80.5882 245.595 82.0098 247.49 84.2608C248.083 84.9717 248.794 86.0379 249.623 86.3933C250.571 86.6303 251.874 86.1564 252.111 85.2086C252.348 84.6162 252.229 84.0239 252.229 83.4315C251.992 81.0621 251.755 78.5741 251.518 76.2047C251.4 75.6123 251.4 74.9015 251.637 74.3091C251.992 73.4798 252.703 73.0059 253.414 72.4135C255.073 70.9918 256.139 68.8593 256.257 66.6083C256.257 65.8975 256.257 65.1867 256.494 64.5943C256.613 64.1204 257.087 63.2911 257.679 63.2911C258.864 63.2911 264.906 64.5943 266.446 64.8312C274.502 65.8975 283.151 66.1344 290.141 62.2248C292.866 60.6847 297.604 57.4859 298.078 54.0502C298.197 52.6285 297.131 50.8514 295.472 49.9036Z" fill="#263238"/>
<path d="M271.422 109.732C271.422 109.732 260.285 107.718 256.376 105.704C253.769 104.401 251.637 102.031 250.926 100.491C250.926 100.491 251.755 103.808 254.006 106.652C256.85 110.206 270.948 112.694 270.948 112.694L271.422 109.732Z" fill="#F28F8F"/>
<path d="M270.948 82.1276C270.948 83.3124 270 84.2601 268.934 84.2601C267.749 84.2601 266.801 83.3124 266.801 82.1276C266.801 80.9429 267.749 79.9951 268.815 79.9951C270 79.9951 270.948 80.9429 270.948 82.1276Z" fill="#263238"/>
<path d="M266.92 74.4277L262.062 76.7971C261.47 75.3754 262.062 73.7168 263.366 73.1244C264.669 72.4136 266.327 73.006 266.92 74.4277Z" fill="#263238"/>
<path d="M267.038 95.1602L275.805 98.3589C274.976 100.847 272.37 102.269 269.882 101.321C267.512 100.373 266.209 97.6481 267.038 95.1602Z" fill="#B16668"/>
<path d="M272.607 101.439C272.251 98.9513 270 97.1742 267.512 97.5297C267.275 97.5297 267.157 97.6481 266.92 97.6481C267.275 99.3068 268.342 100.728 270 101.321C270.829 101.558 271.659 101.558 272.607 101.439Z" fill="#F28F8F"/>
<path d="M290.022 75.9674L285.283 73.4794C285.876 72.1762 287.534 71.7024 288.837 72.4132C290.141 73.124 290.733 74.6642 290.022 75.9674Z" fill="#263238"/>
<path d="M287.653 81.7722C287.653 82.9569 286.705 83.9047 285.639 83.9047C284.454 83.9047 283.506 82.9569 283.506 81.7722C283.506 80.5874 284.454 79.6396 285.52 79.6396C286.705 79.6396 287.653 80.5874 287.653 81.7722Z" fill="#263238"/>
<path d="M276.99 80.4697L277.464 93.9757L285.402 92.0801L276.99 80.4697Z" fill="#F28F8F"/>
<path d="M335.042 277.371C334.923 277.49 334.923 277.608 334.805 277.727L249.386 250.597C242.633 247.635 234.814 250.004 230.904 256.283L139.561 392.053L136.126 393.949C135.059 394.541 134.23 394.541 133.519 394.186L227.468 254.388C231.378 248.109 239.197 245.739 245.95 248.701L335.042 277.371Z" fill="#14B86E"/>
<path opacity="0.4" d="M222.493 269.551L222.729 269.315L139.561 391.934L136.126 393.83C135.059 394.422 134.23 394.422 133.519 394.067L219.175 267.419L222.493 269.551Z" fill="white"/>
<path opacity="0.4" d="M335.042 277.371C334.923 277.49 334.923 277.608 334.805 277.727L249.386 250.596C242.633 247.635 234.814 250.004 230.904 256.283L227.468 254.269C231.378 248.109 239.197 245.621 245.95 248.582L335.042 277.371Z" fill="white"/>
<path d="M340.136 123.119C339.899 122.053 339.307 121.698 338.596 122.171C338.359 122.408 338.004 122.764 337.648 123.238L337.174 123.83L252.822 252.018L240.263 269.552C238.842 271.566 235.761 272.751 233.274 272.158L222.374 269.552L139.443 238.986C138.851 238.867 138.258 238.867 137.784 238.867C137.547 238.867 137.31 238.986 137.192 239.104L140.272 237.327L219.768 266.472L230.193 270.263C232.563 270.855 235.643 269.67 237.183 267.656L249.741 250.122L334.686 121.342C334.923 120.987 335.279 120.631 335.634 120.513L328.289 116.248L331.369 114.471L336.464 117.433C338.241 118.499 339.781 120.868 340.136 123.119Z" fill="#14B86E"/>
<path opacity="0.4" d="M252.94 252.018L240.382 269.552C238.96 271.566 235.88 272.751 233.392 272.159L222.492 269.552L222.729 269.315L223.203 268.486L230.312 270.145C232.681 270.737 235.761 269.552 237.302 267.538L249.741 250.241L252.94 252.018Z" fill="white"/>
<path opacity="0.1" d="M336.345 117.433L331.251 114.471L328.17 116.248L335.516 120.513C335.16 120.75 334.805 120.987 334.568 121.342L249.86 250.122L249.741 250.241L252.822 251.899L337.174 123.712L337.648 123.119C338.004 122.645 338.359 122.29 338.596 122.053C339.307 121.579 339.899 121.816 340.136 123.001C339.781 120.868 338.241 118.499 336.345 117.433Z" fill="black"/>
<path d="M141.22 241.473L123.094 231.048V386.721C123.094 389.209 124.871 392.171 127.003 393.356L131.387 395.844C133.519 397.029 136.955 397.029 139.087 395.844L141.22 394.541V241.473Z" fill="#14B86E"/>
<path opacity="0.15" d="M141.22 241.473L123.094 231.048V386.721C123.094 389.209 124.871 392.171 127.003 393.356L131.387 395.844C133.519 397.029 136.955 397.029 139.087 395.844L141.22 394.541V241.473Z" fill="black"/>
<path d="M340.255 124.067V275.357C340.255 276.66 339.781 278.082 339.07 279.267C338.478 280.333 337.648 281.162 336.819 281.755L336.7 281.873C336.582 281.992 336.582 281.992 336.464 281.992L139.206 395.844C138.14 396.437 137.31 396.555 136.6 396.2C136.007 395.844 135.533 395.252 135.415 394.304C135.415 394.067 135.415 393.83 135.415 393.593V242.422C135.415 239.934 137.31 238.394 139.798 238.986L222.729 269.552L233.629 272.158C235.998 272.751 239.197 271.566 240.619 269.552L253.177 252.018L337.53 123.83L338.004 123.238C339.07 121.224 340.255 121.698 340.255 124.067Z" fill="#14B86E"/>
<path d="M336.463 281.992C336.582 281.992 336.582 281.873 336.7 281.873L336.819 281.755C337.648 281.163 338.477 280.215 339.07 279.267C339.781 278.082 340.255 276.661 340.255 275.476L252.94 252.137L311.466 296.564L336.463 281.992Z" fill="#14B86E"/>
<path opacity="0.2" d="M336.463 281.992C336.582 281.992 336.582 281.873 336.7 281.873L336.819 281.755C337.648 281.163 338.477 280.215 339.07 279.267C339.781 278.082 340.255 276.661 340.255 275.476L252.94 252.137L311.466 296.564L336.463 281.992Z" fill="black"/>
<path d="M135.296 393.711C135.296 395.015 135.77 395.844 136.481 396.199C137.192 396.555 138.139 396.436 139.087 395.844L206.972 356.629L222.492 269.552L135.178 391.105L135.296 393.711Z" fill="#14B86E"/>
<path opacity="0.15" d="M230.904 256.283L136.481 396.2C135.77 395.844 135.296 394.897 135.296 393.712V391.224L227.468 254.388L230.904 256.283Z" fill="black"/>
<path d="M339.07 279.267C338.478 280.333 337.648 281.163 336.819 281.755L336.701 281.873L139.088 395.963C138.021 396.555 137.192 396.674 136.481 396.318L231.023 256.283C234.932 250.004 242.87 247.635 249.623 250.596L339.07 279.267Z" fill="#14B86E"/>
<path opacity="0.15" d="M123.923 217.068L127.003 218.845C126.529 220.267 126.292 221.807 126.292 223.11C126.292 227.375 126.292 232.944 126.292 232.944L123.212 231.167C123.212 231.167 123.212 225.598 123.212 221.333C123.212 220.03 123.449 218.49 123.923 217.068Z" fill="black"/>
<path d="M140.39 237.327L137.31 239.222L134.111 237.327L126.292 232.825L129.372 231.048L140.39 237.327Z" fill="#14B86E"/>
<path opacity="0.1" d="M140.509 237.445L129.254 231.048L126.174 232.825L133.993 237.327L137.192 239.104C137.429 238.986 137.547 238.986 137.784 238.867C138.258 238.749 138.85 238.749 139.443 238.986L145.722 241.355L218.109 268.011L219.294 266.353L140.509 237.445Z" fill="black"/>
<path d="M226.994 118.854C216.924 119.565 210.053 121.935 203.537 137.573C199.39 147.643 182.922 183.778 181.382 189.82C179.487 196.81 175.34 250.241 175.34 250.241L184.936 253.795C184.936 253.795 181.619 265.287 178.894 271.803C175.695 279.385 191.334 277.727 196.31 270.855C201.286 263.984 204.721 254.743 201.996 251.544C198.324 247.279 194.414 244.554 194.414 244.554L204.958 196.928L226.994 150.131C226.876 150.131 237.894 127.029 226.994 118.854Z" fill="#FFA8A7"/>
<path d="M194.414 244.555C189.32 241.711 184.7 241.83 184.7 241.83C184.7 241.83 189.794 240.171 194.888 241.83L194.414 244.555Z" fill="#F28F8F"/>
<path d="M229.245 118.381C223.558 118.381 213.014 118.026 206.261 130.347C199.39 142.668 189.794 166.126 189.794 166.126C189.794 166.126 193.822 175.959 215.265 178.091L231.733 143.142C231.733 143.142 235.761 127.029 229.245 118.381Z" fill="#37474F"/>
<path d="M302.106 126.437C310.636 133.071 324.379 143.615 331.013 147.88C336.108 141.72 345.349 129.399 347.6 126.674C350.443 123.238 359.565 117.551 359.565 117.551L363.001 131.294C363.001 131.294 345.823 163.045 339.543 168.85C333.027 175.011 328.17 172.523 315.375 166.599C303.291 161.031 290.14 154.16 290.14 154.16C292.747 131.057 290.97 118.618 279.952 114.708C287.415 115.656 294.998 120.869 302.106 126.437Z" fill="#FFA8A7"/>
<path d="M324.261 143.259C319.877 144.444 310.636 157.476 312.295 165.769L288.956 154.277C291.799 138.402 292.391 118.736 279.004 114.944C278.056 114.707 276.634 114.471 275.094 114.471C281.729 113.76 286.112 113.997 293.221 119.328C300.092 124.422 324.261 143.259 324.261 143.259Z" fill="#37474F"/>
<path d="M331.013 147.88C327.696 150.842 326.63 156.055 325.919 158.188C325.919 158.188 325.208 152.027 329.118 146.577L331.013 147.88Z" fill="#F28F8F"/>
<path d="M363.593 102.268L371.65 97.4102C371.65 97.4102 372.597 140.534 372.597 141.956C372.597 143.378 374.256 144.681 374.256 144.681L366.2 149.538C366.2 149.538 364.541 148.117 364.541 146.813C364.423 145.392 363.593 102.268 363.593 102.268Z" fill="#37474F"/>
<path d="M371.886 115.418C371.886 115.418 374.137 116.01 375.085 119.565C375.915 123.119 376.388 129.99 374.374 132.241C372.36 134.492 369.517 135.44 367.621 134.611C364.186 133.07 365.252 126.081 367.977 124.422C372.479 121.816 371.886 118.972 371.886 118.972V115.418Z" fill="#FFA8A7"/>
<path d="M353.642 102.386L357.196 106.651L357.788 137.098L354.234 143.022L366.081 149.538C365.015 148.59 364.541 147.761 364.423 146.813L363.712 107.835L353.642 102.386Z" fill="#455A64"/>
<path d="M354.234 143.022L354.352 144.918L366.2 151.434V149.538L354.234 143.022Z" fill="#14B86E"/>
<path d="M366.2 151.434L374.256 146.576L374.137 144.681L366.2 149.538V151.434Z" fill="#14B86E"/>
<path opacity="0.1" d="M366.2 151.434L374.256 146.576L374.137 144.681L366.2 149.538V151.434Z" fill="black"/>
<path d="M356.011 81.1795C354.471 80.8241 352.694 81.4165 351.035 83.1936L350.917 83.312C347.6 86.8662 346.059 93.5007 347.481 98.1211V98.2396C348.192 100.609 349.614 102.031 351.154 102.268L358.025 103.926L362.29 82.7197L356.011 81.1795Z" fill="#14B86E"/>
<path opacity="0.7" d="M356.011 81.1795C354.471 80.8241 352.694 81.4165 351.035 83.1936L350.917 83.312C347.6 86.8662 346.059 93.5007 347.481 98.1211V98.2396C348.192 100.609 349.614 102.031 351.154 102.268L358.025 103.926L362.29 82.7197L356.011 81.1795Z" fill="white"/>
<path opacity="0.05" d="M351.272 102.268L358.144 103.926L359.565 96.9364L347.007 93.9746C347.007 95.3963 347.126 96.818 347.481 98.1212V98.2396C348.31 100.609 349.614 102.031 351.272 102.268Z" fill="black"/>
<path d="M369.991 81.7723C368.214 81.4169 366.2 82.0093 364.304 83.7864C364.067 84.0233 363.949 84.1418 363.712 84.3787C363.475 84.6157 363.238 84.8526 363.001 85.208C362.646 85.6819 362.29 86.1558 361.935 86.6297C361.343 87.5775 360.869 88.5253 360.395 89.5915C359.21 92.4349 358.618 95.6337 358.618 98.5955C358.618 100.136 358.855 101.557 359.329 102.861C360.158 105.704 361.816 107.362 363.594 107.955L356.959 106.415C354.59 105.822 352.576 103.927 351.746 101.202C351.391 99.8987 351.154 98.5955 351.154 97.0553C351.035 93.9751 351.628 90.6578 352.813 87.8144C353.286 86.7482 353.76 85.8004 354.353 84.8526C354.708 84.3787 355.064 83.9048 355.419 83.431C355.656 83.194 355.893 82.8386 356.13 82.6016C356.367 82.3647 356.485 82.2462 356.722 82.0093C358.618 80.3507 360.987 79.7583 363.12 80.2322H363.357C363.475 80.2322 363.475 80.2322 363.594 80.2322L369.991 81.7723Z" fill="#14B86E"/>
<path opacity="0.1" d="M357.314 106.414C354.945 105.703 352.931 103.926 352.102 101.201C351.746 99.898 351.509 98.5948 351.509 97.0547L358.973 98.5948C358.973 100.135 359.21 101.557 359.684 102.86C360.513 105.703 362.172 107.362 363.949 107.954L357.314 106.414Z" fill="black"/>
<path d="M374.493 86.8664C376.27 92.6716 374.374 100.965 370.228 105.348C368.095 107.599 365.844 108.429 363.949 107.955H363.83C361.935 107.481 360.395 105.704 359.565 102.86C357.788 97.0551 359.684 88.762 363.83 84.3785C365.844 82.1275 368.095 81.2982 370.109 81.7721C372.005 82.246 373.664 84.0231 374.493 86.8664Z" fill="#14B86E"/>
<path opacity="0.2" d="M374.493 86.8664C376.27 92.6716 374.374 100.965 370.228 105.348C368.095 107.599 365.844 108.429 363.949 107.955H363.83C361.935 107.481 360.395 105.704 359.565 102.86C357.788 97.0551 359.684 88.762 363.83 84.3785C365.844 82.1275 368.095 81.2982 370.109 81.7721C372.005 82.246 373.664 84.0231 374.493 86.8664Z" fill="black"/>
<path d="M401.979 76.915C401.979 76.915 394.278 84.3788 390.487 100.373C389.776 103.453 389.302 106.415 389.065 109.021C388.117 119.921 390.368 126.437 390.368 126.437C385.629 120.513 380.061 114.708 372.834 111.035C368.332 108.784 364.067 107.363 364.067 107.363C362.29 107.007 360.869 105.349 360.039 102.742C359.565 100.965 359.328 99.0695 359.447 97.0555C359.565 95.7522 359.684 94.5675 360.039 93.2643C360.75 90.0655 362.29 86.9852 364.304 84.7343C366.2 82.7202 368.214 81.8909 369.991 82.3648C369.991 82.3648 374.493 82.8387 379.469 82.8387C387.525 82.9572 395.107 80.1138 401.979 76.915Z" fill="#14B86E"/>
<path opacity="0.7" d="M401.979 76.915C401.979 76.915 394.278 84.3788 390.487 100.373C389.776 103.453 389.302 106.415 389.065 109.021C388.117 119.921 390.368 126.437 390.368 126.437C385.629 120.513 380.061 114.708 372.834 111.035C368.332 108.784 364.067 107.363 364.067 107.363C362.29 107.007 360.869 105.349 360.039 102.742C359.565 100.965 359.328 99.0695 359.447 97.0555C359.565 95.7522 359.684 94.5675 360.039 93.2643C360.75 90.0655 362.29 86.9852 364.304 84.7343C366.2 82.7202 368.214 81.8909 369.991 82.3648C369.991 82.3648 374.493 82.8387 379.469 82.8387C387.525 82.9572 395.107 80.1138 401.979 76.915Z" fill="white"/>
<path opacity="0.05" d="M389.065 109.02C388.117 119.92 390.368 126.436 390.368 126.436C385.629 120.512 380.061 114.707 372.834 111.035C368.332 108.784 364.067 107.362 364.067 107.362C362.29 107.006 360.869 105.348 360.039 102.741C359.565 100.964 359.328 99.0687 359.447 97.0547C367.503 98.4764 380.772 101.438 389.065 109.02Z" fill="black"/>
<path d="M423.185 84.7339C425.081 90.776 425.199 98.0029 423.896 104.993C422.356 113.997 418.447 122.882 412.878 128.806C403.045 139.35 391.672 136.744 387.407 122.882C386.459 119.683 385.985 116.248 385.866 112.694C385.63 103.808 387.999 94.2118 392.264 86.511C392.856 85.4448 393.449 84.3785 394.16 83.3122C394.397 82.8384 394.752 82.4829 394.989 82.1275C395.344 81.5351 395.818 80.9428 396.292 80.4689C396.766 79.8765 397.24 79.4026 397.714 78.8103C407.666 68.2662 419.039 70.8726 423.185 84.7339Z" fill="#14B86E"/>
<path opacity="0.1" d="M424.015 104.993C422.475 113.997 418.565 122.883 412.997 128.806C403.163 139.35 391.79 136.744 387.525 122.883C386.577 119.684 386.103 116.248 385.985 112.694C387.288 114.234 391.079 115.893 391.79 113.76C391.909 116.959 392.382 120.039 393.212 122.883C394.396 126.792 396.292 129.754 398.543 131.413C400.557 132.716 402.808 133.071 405.178 132.36C407.547 131.65 410.035 129.872 412.404 127.385C417.143 122.29 420.579 114.826 422.238 107.007C422.238 106.77 423.185 107.244 424.015 104.993Z" fill="black"/>
<path d="M422.001 85.9188C423.896 91.9609 423.778 99.5432 422.238 106.77C420.579 114.589 417.143 122.172 412.404 127.147C410.035 129.635 407.547 131.412 405.178 132.123C402.69 132.834 400.557 132.597 398.543 131.175C396.292 129.635 394.397 126.674 393.212 122.645C392.383 119.921 391.909 116.84 391.79 113.523C391.79 112.338 391.79 111.035 391.79 109.85C391.909 107.718 392.146 105.467 392.619 103.334C392.738 102.86 392.738 102.387 392.856 102.031C392.975 101.32 393.212 100.491 393.33 99.7801C393.923 97.2922 394.752 94.8043 395.818 92.4348C395.818 92.4348 395.818 92.4348 395.818 92.3163C396.529 90.7762 397.24 89.236 397.951 87.8144C398.543 86.7481 399.135 85.8003 399.728 84.8525C399.965 84.4971 400.32 84.1417 400.557 83.6678C400.913 83.1939 401.268 82.8385 401.623 82.3646C401.979 82.0092 402.334 81.5353 402.69 81.1799C405.059 78.6919 407.547 76.9149 409.917 76.204C415.248 74.9008 419.75 78.455 422.001 85.9188Z" fill="#14B86E"/>
<path opacity="0.3" d="M422.001 85.9188C423.896 91.9609 423.778 99.5432 422.238 106.77C420.579 114.589 417.143 122.172 412.404 127.147C410.035 129.635 407.547 131.412 405.178 132.123C402.69 132.834 400.557 132.597 398.543 131.175C396.292 129.635 394.397 126.674 393.212 122.645C392.383 119.921 391.909 116.84 391.79 113.523C391.79 112.338 391.79 111.035 391.79 109.85C391.909 107.718 392.146 105.467 392.619 103.334C392.738 102.86 392.738 102.387 392.856 102.031C392.975 101.32 393.212 100.491 393.33 99.7801C393.923 97.2922 394.752 94.8043 395.818 92.4348C395.818 92.4348 395.818 92.4348 395.818 92.3163C396.529 90.7762 397.24 89.236 397.951 87.8144C398.543 86.7481 399.135 85.8003 399.728 84.8525C399.965 84.4971 400.32 84.1417 400.557 83.6678C400.913 83.1939 401.268 82.8385 401.623 82.3646C401.979 82.0092 402.334 81.5353 402.69 81.1799C405.059 78.6919 407.547 76.9149 409.917 76.204C415.248 74.9008 419.75 78.455 422.001 85.9188Z" fill="black"/>
<path d="M404.585 94.9224L401.268 111.39C398.898 111.272 394.87 111.035 391.671 111.153C391.671 110.798 391.671 110.324 391.671 109.968C391.79 107.836 392.027 105.585 392.501 103.452C392.619 102.979 392.619 102.505 392.738 102.149C392.856 101.438 393.093 100.609 393.212 99.8982C393.804 97.4103 394.633 94.9224 395.699 92.5529C395.699 92.5529 395.699 92.5529 395.699 92.4344C395.818 92.079 395.936 91.7236 396.173 91.3682C400.083 93.5007 404.585 94.9224 404.585 94.9224Z" fill="#14B86E"/>
<g opacity="0.4">
<path opacity="0.4" d="M404.585 94.9224L401.268 111.39C398.898 111.272 394.87 111.035 391.671 111.153C391.671 110.798 391.671 110.324 391.671 109.968C391.79 107.836 392.027 105.585 392.501 103.452C392.619 102.979 392.619 102.505 392.738 102.149C392.856 101.438 393.093 100.609 393.212 99.8982C393.804 97.4103 394.633 94.9224 395.699 92.5529C395.699 92.5529 395.699 92.5529 395.699 92.4344C395.818 92.079 395.936 91.7236 396.173 91.3682C400.083 93.5007 404.585 94.9224 404.585 94.9224Z" fill="white"/>
</g>
<path d="M401.979 111.154C400.32 111.628 398.78 110.561 398.069 108.31V108.192C397.003 104.519 398.187 99.3064 400.794 96.463C401.505 95.7522 402.216 95.1598 402.926 95.0414C404.585 94.5675 406.125 95.6337 406.836 97.8847V98.0032C407.902 101.676 406.717 106.889 404.111 109.732C403.4 110.443 402.689 111.035 401.979 111.154Z" fill="#14B86E"/>
<g opacity="0.7">
<path opacity="0.7" d="M401.979 111.154C400.32 111.628 398.78 110.561 398.069 108.31V108.192C397.003 104.519 398.187 99.3064 400.794 96.463C401.505 95.7522 402.216 95.1598 402.926 95.0414C404.585 94.5675 406.125 95.6337 406.836 97.8847V98.0032C407.902 101.676 406.717 106.889 404.111 109.732C403.4 110.443 402.689 111.035 401.979 111.154Z" fill="white"/>
</g>
<path d="M397.95 68.7402C397.003 68.9772 396.055 68.5033 395.699 67.5555L390.605 51.0877C390.368 50.14 390.842 49.1922 391.79 48.8367C392.738 48.5998 393.685 49.0737 394.041 50.0215L399.135 66.4892C399.491 67.437 398.898 68.5033 397.95 68.7402Z" fill="#E0E0E0"/>
<path d="M384.208 77.3887C383.615 77.6257 382.904 77.3887 382.431 77.0333L369.754 65.3045C369.043 64.5936 369.043 63.5274 369.635 62.8165C370.346 62.1057 371.413 62.1057 372.123 62.6981L384.8 74.4269C385.511 75.1377 385.511 76.204 384.919 76.9148C384.8 77.1518 384.445 77.2702 384.208 77.3887Z" fill="#E0E0E0"/>
<path d="M392.856 161.742C392.619 161.86 392.264 161.86 391.908 161.742C390.961 161.505 390.368 160.557 390.605 159.609L394.515 142.786C394.752 141.838 395.7 141.246 396.647 141.483C397.595 141.72 398.188 142.668 397.951 143.615L394.041 160.439C393.922 161.149 393.449 161.623 392.856 161.742Z" fill="#E0E0E0"/>
<path d="M424.133 154.633C423.185 154.87 422.238 154.396 421.882 153.448L416.788 136.98C416.551 136.033 417.025 135.085 417.973 134.729C418.92 134.492 419.868 134.966 420.224 135.914L425.318 152.382C425.673 153.33 425.081 154.277 424.133 154.633Z" fill="#E0E0E0"/>
<path d="M442.733 132.123C442.141 132.36 441.43 132.123 440.956 131.768L428.28 120.039C427.569 119.328 427.569 118.262 428.161 117.551C428.872 116.84 429.938 116.84 430.649 117.432L443.326 129.161C444.037 129.872 444.037 130.938 443.444 131.649C443.326 131.768 443.089 132.005 442.733 132.123Z" fill="#E0E0E0"/>
<path d="M454.581 109.851C454.344 109.969 453.988 109.969 453.633 109.851L436.81 105.941C435.862 105.704 435.27 104.756 435.507 103.809C435.744 102.861 436.691 102.268 437.639 102.505L454.462 106.415C455.41 106.652 456.002 107.6 455.766 108.547C455.647 109.14 455.173 109.614 454.581 109.851Z" fill="#E0E0E0"/>
<path d="M453.751 84.6152L437.165 89.7096C436.217 89.9465 435.269 89.4726 434.914 88.5249C434.677 87.5771 435.151 86.6293 436.099 86.2739L452.567 81.1795C453.514 80.9426 454.462 81.4165 454.818 82.3643C455.173 83.312 454.699 84.3783 453.751 84.6152Z" fill="#E0E0E0"/>
<path d="M428.635 75.8482C428.043 76.0851 427.332 75.8482 426.858 75.4928C426.147 74.7819 426.147 73.7157 426.739 73.0049L438.468 60.3282C439.179 59.6174 440.245 59.6174 440.956 60.2098C441.667 60.9206 441.667 61.9869 441.075 62.6977L429.346 75.3743C429.227 75.6113 428.872 75.7297 428.635 75.8482Z" fill="#E0E0E0"/>
<path d="M414.3 68.2662C414.063 68.3847 413.707 68.3847 413.352 68.2662C412.404 68.0293 411.812 67.0815 412.049 66.1337L415.958 49.3105C416.195 48.3627 417.143 47.7704 418.091 48.0073C419.039 48.2443 419.631 49.1921 419.394 50.1398L415.485 66.963C415.366 67.5554 414.892 68.0293 414.3 68.2662Z" fill="#E0E0E0"/>
<path d="M347.718 126.673C351.154 122.408 351.272 119.683 353.879 117.551C356.485 115.418 359.21 115.3 363.119 116.484C366.081 117.314 369.635 116.958 370.82 118.025C371.176 118.262 370.583 120.157 369.28 120.868C367.621 121.697 364.897 121.46 362.882 121.46C358.262 121.46 362.053 125.962 357.67 130.464C355.774 133.663 347.718 126.673 347.718 126.673Z" fill="#FFA8A7"/>
<path d="M452.33 195.269L494.269 168.376L512.633 174.3L452.33 195.269Z" fill="#14B86E"/>
<path d="M452.33 195.269L488.582 165.059L480.526 155.699L452.33 195.269Z" fill="#14B86E"/>
<path d="M488.582 165.059V172.049L452.33 195.269L488.582 165.059Z" fill="#14B86E"/>
<path opacity="0.25" d="M488.582 165.059V172.049L452.33 195.269L488.582 165.059Z" fill="black"/>
<path d="M497.113 160.912C496.757 160.912 496.402 160.794 496.165 160.557C495.691 160.083 495.81 159.372 496.283 158.898C496.994 158.306 497.705 157.595 498.416 157.003C498.89 156.529 499.601 156.529 500.075 157.003C500.548 157.477 500.548 158.188 500.075 158.661C499.364 159.372 498.653 160.083 497.824 160.676C497.705 160.912 497.35 160.912 497.113 160.912Z" fill="#E0E0E0"/>
<path d="M503.392 154.752C503.155 154.752 502.799 154.633 502.562 154.515C502.089 154.041 501.97 153.33 502.444 152.856C503.629 151.435 504.932 149.894 505.998 148.354C506.354 147.88 507.183 147.762 507.657 148.117C508.131 148.473 508.249 149.302 507.894 149.776C506.709 151.435 505.406 152.975 504.221 154.396C503.984 154.633 503.629 154.752 503.392 154.752ZM510.263 145.392C510.026 145.392 509.789 145.392 509.671 145.155C509.078 144.8 508.96 144.089 509.315 143.497C510.263 141.957 511.329 140.18 512.159 138.521C512.514 137.929 513.225 137.692 513.817 138.047C514.41 138.403 514.647 139.113 514.291 139.706C513.343 141.483 512.396 143.141 511.329 144.8C511.092 145.155 510.737 145.392 510.263 145.392ZM515.713 135.085C515.594 135.085 515.357 135.085 515.239 134.967C514.647 134.73 514.41 134.019 514.647 133.427C515.357 131.65 516.187 129.872 516.779 128.095C517.016 127.503 517.727 127.148 518.319 127.385C518.912 127.621 519.267 128.332 519.03 128.925C518.319 130.82 517.609 132.597 516.779 134.374C516.661 134.73 516.187 135.085 515.713 135.085ZM519.741 124.067C519.623 124.067 519.504 124.067 519.386 124.067C518.793 123.83 518.438 123.238 518.556 122.646C519.149 120.869 519.623 118.973 519.978 117.077C520.096 116.485 520.807 116.011 521.4 116.13C521.992 116.248 522.466 116.959 522.347 117.551C521.874 119.447 521.4 121.461 520.807 123.238C520.689 123.712 520.215 124.067 519.741 124.067ZM522.347 112.694C522.229 112.694 522.229 112.694 522.11 112.694C521.518 112.575 521.044 111.983 521.163 111.391C521.518 109.495 521.755 107.6 521.874 105.704C521.992 105.112 522.584 104.519 523.177 104.638C523.769 104.756 524.361 105.23 524.243 105.941C524.006 107.955 523.769 109.851 523.532 111.865C523.414 112.22 522.94 112.694 522.347 112.694ZM523.414 101.084C522.703 101.084 522.229 100.491 522.229 99.8988C522.229 98.951 522.229 98.1217 522.229 97.1739C522.229 96.1077 522.229 95.1599 522.229 94.0936C522.229 93.3828 522.703 92.9089 523.414 92.9089C524.124 92.9089 524.598 93.3828 524.598 94.0936C524.598 95.1599 524.598 96.2261 524.598 97.1739C524.598 98.1217 524.598 99.0695 524.598 100.017C524.598 100.491 524.124 101.084 523.414 101.084ZM523.058 89.3547C522.466 89.3547 521.992 88.8808 521.874 88.2884C521.637 86.3929 521.4 84.4973 521.044 82.6017C520.926 82.0094 521.4 81.2985 521.992 81.1801C522.703 81.0616 523.295 81.5355 523.414 82.1279C523.769 84.0234 524.006 86.0375 524.243 88.0515C524.361 88.6439 523.888 89.2362 523.177 89.3547C523.058 89.3547 523.058 89.3547 523.058 89.3547ZM521.044 77.8628C520.57 77.8628 519.978 77.5074 519.859 76.915C519.386 75.0195 518.793 73.2424 518.201 71.3468C517.964 70.7544 518.319 70.0436 518.912 69.8067C519.504 69.5697 520.215 69.9251 520.452 70.5175C521.044 72.4131 521.637 74.3086 522.11 76.2042C522.229 76.7966 521.874 77.5074 521.281 77.6259C521.163 77.8628 521.044 77.8628 521.044 77.8628ZM517.253 66.8448C516.779 66.8448 516.305 66.6079 516.187 66.134C515.476 64.3569 514.528 62.5798 513.699 60.9212C513.343 60.3288 513.58 59.618 514.173 59.2626C514.765 58.9071 515.476 59.1441 515.831 59.7365C516.779 61.5135 517.609 63.2906 518.438 65.0677C518.675 65.6601 518.438 66.3709 517.845 66.6079C517.609 66.7264 517.372 66.8448 517.253 66.8448ZM511.685 56.5377C511.329 56.5377 510.974 56.3007 510.737 55.9453C509.671 54.4052 508.605 52.7465 507.42 51.3249C507.064 50.851 507.064 50.0217 507.657 49.6662C508.131 49.3108 508.96 49.3108 509.315 49.9032C510.5 51.4433 511.685 53.102 512.87 54.7606C513.225 55.3529 513.107 56.0638 512.514 56.4192C512.159 56.4192 511.922 56.5377 511.685 56.5377ZM504.458 47.4153C504.103 47.4153 503.866 47.2968 503.629 47.0598C502.325 45.7566 500.904 44.335 499.482 43.0318C499.008 42.5579 499.008 41.847 499.364 41.3731C499.838 40.8992 500.548 40.8992 501.022 41.2547C502.562 42.5579 503.984 43.9795 505.287 45.4012C505.761 45.8751 505.761 46.5859 505.287 47.0598C505.05 47.2968 504.695 47.4153 504.458 47.4153ZM495.809 39.596C495.572 39.596 495.336 39.4776 495.099 39.3591C493.558 38.1744 492.018 36.9896 490.478 35.9234C489.886 35.568 489.767 34.8571 490.123 34.2648C490.478 33.6724 491.189 33.5539 491.781 33.9093C493.44 35.0941 494.98 36.2788 496.52 37.4635C496.994 37.8189 497.113 38.6483 496.757 39.1221C496.52 39.3591 496.165 39.596 495.809 39.596ZM486.213 32.8431C485.976 32.8431 485.739 32.8431 485.621 32.7246C483.962 31.7768 482.304 30.7106 480.645 29.8813C480.053 29.5258 479.816 28.815 480.171 28.2226C480.526 27.6303 481.237 27.3933 481.83 27.7487C483.607 28.6965 485.265 29.6443 486.924 30.7106C487.516 31.066 487.635 31.7768 487.279 32.3692C486.924 32.7246 486.569 32.8431 486.213 32.8431ZM475.906 27.2748C475.788 27.2748 475.551 27.2748 475.432 27.1564C473.655 26.3271 471.878 25.4978 470.101 24.7869C469.508 24.55 469.153 23.8391 469.508 23.2468C469.745 22.6544 470.456 22.299 471.049 22.6544C472.826 23.3652 474.721 24.1945 476.38 25.0239C476.972 25.2608 477.209 25.9716 476.972 26.564C476.735 27.0379 476.38 27.2748 475.906 27.2748ZM356.248 24.4315C355.774 24.4315 355.3 24.0761 355.182 23.6022C354.945 23.0098 355.3 22.299 355.893 22.062C357.788 21.3512 359.565 20.7588 361.461 20.1665C362.053 19.9295 362.764 20.2849 363.001 20.8773C363.238 21.4697 362.883 22.1805 362.29 22.4175C360.513 23.0098 358.618 23.6022 356.841 24.313C356.485 24.313 356.367 24.4315 356.248 24.4315ZM465.125 22.7729C465.006 22.7729 464.888 22.7729 464.769 22.6544C462.992 21.9436 461.097 21.3512 459.32 20.7588C458.727 20.5219 458.372 19.9295 458.49 19.2187C458.727 18.6263 459.32 18.2709 460.031 18.3894C461.926 18.9817 463.822 19.5741 465.599 20.2849C466.191 20.5219 466.547 21.2327 466.31 21.8251C466.073 22.5359 465.599 22.7729 465.125 22.7729ZM367.385 20.7588C366.911 20.7588 366.437 20.4034 366.2 19.9295C365.963 19.3372 366.437 18.6263 367.029 18.5078C368.925 17.9155 370.82 17.4416 372.716 16.9677C373.308 16.8492 374.019 17.2046 374.138 17.797C374.256 18.3894 373.901 19.1002 373.308 19.2187C371.413 19.6926 369.517 20.1665 367.74 20.7588C367.622 20.7588 367.503 20.7588 367.385 20.7588ZM453.988 19.2187C453.87 19.2187 453.752 19.2187 453.633 19.2187C451.856 18.7448 449.96 18.2709 448.065 17.797C447.472 17.6785 446.999 16.9677 447.117 16.3753C447.235 15.783 447.828 15.3091 448.539 15.4275C450.434 15.9014 452.448 16.3753 454.225 16.8492C454.818 16.9677 455.173 17.6785 455.055 18.2709C454.936 18.9817 454.462 19.2187 453.988 19.2187ZM378.758 17.9155C378.166 17.9155 377.692 17.5601 377.573 16.9677C377.455 16.3753 377.81 15.6645 378.521 15.546C380.417 15.1906 382.431 14.7167 384.326 14.3613C385.037 14.2428 385.63 14.7167 385.748 15.3091C385.866 15.9014 385.393 16.6123 384.8 16.7307C382.905 17.0862 381.009 17.4416 379.113 17.9155C378.877 17.9155 378.758 17.9155 378.758 17.9155ZM442.615 16.7307C442.497 16.7307 442.497 16.7307 442.378 16.7307C440.483 16.3753 438.587 16.0199 436.691 15.783C436.099 15.6645 435.625 15.0721 435.744 14.4798C435.862 13.8874 436.454 13.4135 437.047 13.532C439.061 13.7689 440.956 14.1243 442.852 14.4798C443.444 14.5982 443.918 15.1906 443.8 15.9014C443.681 16.2569 443.089 16.7307 442.615 16.7307ZM390.25 15.9014C389.658 15.9014 389.184 15.4275 389.065 14.8352C388.947 14.2428 389.421 13.532 390.013 13.532C391.909 13.295 393.923 12.9396 395.818 12.8211C396.411 12.7027 397.003 13.1766 397.121 13.8874C397.24 14.4798 396.766 15.0721 396.055 15.1906C394.16 15.4275 392.264 15.6645 390.25 15.9014C390.25 15.9014 390.368 15.9014 390.25 15.9014ZM431.005 14.9537H430.886C428.991 14.7167 427.095 14.5982 425.081 14.4798C424.37 14.4798 423.896 13.8874 424.015 13.1766C424.015 12.4657 424.607 12.1103 425.318 12.1103C427.332 12.2288 429.228 12.4657 431.242 12.5842C431.834 12.7027 432.308 13.295 432.308 13.8874C432.071 14.5982 431.597 14.9537 431.005 14.9537ZM401.86 14.5982C401.268 14.5982 400.676 14.1243 400.676 13.532C400.676 12.8211 401.149 12.3472 401.742 12.2288C403.756 12.1103 405.651 11.9918 407.665 11.8734C408.376 11.7549 408.85 12.3472 408.85 13.0581C408.85 13.7689 408.376 14.2428 407.665 14.2428C405.77 14.3613 403.874 14.4798 401.86 14.5982ZM419.394 14.2428C419.276 14.2428 419.276 14.2428 419.394 14.2428C417.617 14.2428 415.959 14.1243 414.3 14.1243H413.589C412.997 14.1243 412.404 13.6505 412.404 12.9396C412.404 12.2288 412.878 11.7549 413.589 11.7549H414.3C415.959 11.7549 417.736 11.7549 419.394 11.8734C420.105 11.8734 420.579 12.4657 420.579 13.0581C420.461 13.6505 419.987 14.2428 419.394 14.2428Z" fill="#E0E0E0"/>
<path d="M347.955 27.6297C347.481 27.6297 347.007 27.3928 346.889 26.9189C346.652 26.3265 346.889 25.6157 347.481 25.3788C348.429 25.0233 349.377 24.6679 350.206 24.3125C350.799 24.0756 351.509 24.431 351.746 25.0233C351.983 25.6157 351.746 26.3265 351.035 26.5635C350.088 26.9189 349.258 27.2743 348.311 27.6297C348.192 27.5113 348.074 27.6297 347.955 27.6297Z" fill="#E0E0E0"/>
<path d="M84.1158 135.559L138.613 108.902L99.2804 146.221L84.1158 135.559Z" fill="#14B86E"/>
<path d="M138.613 108.902L78.5476 128.687L63.3831 118.025L138.613 108.902Z" fill="#14B86E"/>
<path d="M78.5478 128.687L80.9172 143.97L84.116 135.559L138.614 108.902L78.5478 128.687Z" fill="#14B86E"/>
<path opacity="0.25" d="M78.5478 128.687L80.9172 143.97L84.116 135.559L138.614 108.902L78.5478 128.687Z" fill="black"/>
<path d="M80.9172 143.97L89.2103 139.113L84.116 135.559L80.9172 143.97Z" fill="#14B86E"/>
<path opacity="0.25" d="M84.1158 135.559L89.2102 139.113L87.907 139.942L84.1158 135.559Z" fill="black"/>
<path d="M88.2625 295.498C88.144 295.498 88.0255 295.498 87.907 295.379C86.0115 294.668 84.1159 293.957 82.3388 293.247C81.7464 293.01 81.391 292.299 81.628 291.706C81.8649 291.114 82.5758 290.759 83.1681 290.996C84.9452 291.706 86.7223 292.417 88.6179 293.128C89.2103 293.365 89.5657 294.076 89.3287 294.668C89.2103 295.261 88.7364 295.498 88.2625 295.498ZM77.2445 291.114C77.126 291.114 76.8891 291.114 76.7706 290.996C74.875 290.166 73.0979 289.337 71.3208 288.508C70.7285 288.271 70.4915 287.56 70.7285 286.967C70.9654 286.375 71.6762 286.138 72.2686 286.375C74.0457 287.204 75.8228 288.034 77.5999 288.863C78.1923 289.1 78.4292 289.811 78.1923 290.403C78.0738 290.877 77.7184 291.114 77.2445 291.114ZM66.5819 285.901C66.345 285.901 66.2265 285.901 65.9895 285.783C64.2124 284.835 62.4354 283.769 60.7767 282.821C60.1844 282.465 60.0659 281.755 60.4213 281.162C60.7767 280.57 61.4876 280.451 62.0799 280.807C63.7386 281.873 65.3972 282.821 67.1743 283.769C67.7666 284.124 68.0036 284.835 67.6482 285.427C67.4112 285.664 67.0558 285.901 66.5819 285.901ZM56.5117 279.741C56.2748 279.741 56.0378 279.622 55.8009 279.504C54.1422 278.319 52.4836 277.134 50.9435 275.949C50.4696 275.594 50.3511 274.765 50.7065 274.291C51.0619 273.817 51.8913 273.698 52.3651 274.054C53.9053 275.239 55.4454 276.423 57.1041 277.49C57.6964 277.845 57.8149 278.556 57.341 279.148C57.341 279.504 56.8671 279.741 56.5117 279.741ZM47.2708 272.277C47.0339 272.277 46.6784 272.158 46.4415 271.921C44.9013 270.618 43.4797 269.197 42.1765 267.656C41.7026 267.182 41.7026 266.472 42.1765 265.998C42.6504 265.524 43.3612 265.524 43.8351 265.998C45.1383 267.419 46.56 268.723 47.9816 270.144C48.4555 270.618 48.4555 271.329 48.1001 271.803C47.9816 272.158 47.6262 272.277 47.2708 272.277ZM39.2146 263.747C38.8592 263.747 38.5038 263.628 38.2669 263.273C36.9637 261.733 35.7789 260.074 34.7127 258.415C34.3572 257.823 34.4757 257.112 35.0681 256.757C35.6605 256.401 36.3713 256.52 36.7267 257.112C37.793 258.652 38.9777 260.311 40.1624 261.733C40.5178 262.207 40.5178 263.036 39.9255 263.391C39.6885 263.628 39.4516 263.747 39.2146 263.747ZM32.5802 253.913C32.2247 253.913 31.7508 253.677 31.5139 253.321C30.5661 251.544 29.6183 249.767 28.789 247.99C28.5521 247.397 28.789 246.687 29.3814 246.45C29.9737 246.213 30.6846 246.45 30.9215 247.042C31.7508 248.819 32.5802 250.596 33.5279 252.255C33.8834 252.847 33.6464 253.558 33.054 253.913C32.9356 253.913 32.6986 253.913 32.5802 253.913ZM27.6043 243.251C27.1304 243.251 26.6565 242.895 26.538 242.422C25.8272 240.526 25.2348 238.63 24.6425 236.735C24.4055 236.143 24.8794 235.432 25.4718 235.313C26.0641 235.076 26.775 235.55 26.8935 236.143C27.4858 238.038 28.0782 239.934 28.6705 241.711C28.9075 242.303 28.5521 243.014 27.9597 243.251C27.8412 243.132 27.7228 243.251 27.6043 243.251ZM24.287 231.878C23.6947 231.878 23.2208 231.522 23.1023 230.93C22.6284 229.034 22.273 227.02 22.0361 225.006C21.9176 224.414 22.3915 223.703 22.9838 223.703C23.5762 223.584 24.287 224.058 24.287 224.651C24.6425 226.546 24.9979 228.56 25.3533 230.456C25.4718 231.048 25.1164 231.759 24.4055 231.878C24.524 231.878 24.4055 231.878 24.287 231.878ZM22.3915 220.149C21.7991 220.149 21.3252 219.675 21.2067 219.082C20.9698 217.187 20.8513 215.173 20.7329 213.159C20.7329 212.448 21.2067 211.974 21.7991 211.856C22.3915 211.856 22.9838 212.329 23.1023 212.922C23.2208 214.936 23.3393 216.95 23.5762 218.727C23.6947 219.319 23.2208 219.912 22.5099 220.03C22.5099 220.149 22.5099 220.149 22.3915 220.149ZM21.7991 208.301C21.0883 208.301 20.6144 207.709 20.6144 207.117C20.6144 205.103 20.7329 203.089 20.9698 201.075C21.0883 200.482 21.5622 200.008 22.273 200.008C22.8654 200.127 23.4577 200.601 23.3393 201.311C23.1023 203.207 22.9838 205.221 22.9838 207.117C22.9838 207.827 22.5099 208.301 21.7991 208.301ZM22.9838 196.573C22.8654 196.573 22.8654 196.573 22.7469 196.573C22.1545 196.454 21.6806 195.862 21.7991 195.151C22.1545 193.137 22.6284 191.241 23.1023 189.227C23.2208 188.635 23.9316 188.161 24.524 188.398C25.1164 188.516 25.5902 189.227 25.3533 189.82C24.8794 191.715 24.4055 193.611 24.0501 195.506C24.0501 196.099 23.5762 196.573 22.9838 196.573ZM26.0641 185.081C25.9457 185.081 25.8272 185.081 25.7087 184.962C25.1164 184.725 24.7609 184.014 24.9979 183.422C25.7087 181.526 26.4196 179.631 27.2489 177.854C27.4858 177.261 28.1967 177.024 28.789 177.261C29.3814 177.498 29.6183 178.209 29.3814 178.802C28.5521 180.579 27.8412 182.356 27.2489 184.251C27.0119 184.844 26.538 185.081 26.0641 185.081ZM30.9215 174.3C30.6846 174.3 30.5661 174.3 30.3292 174.181C29.7368 173.826 29.4999 173.115 29.8553 172.523C30.8031 170.745 31.8693 168.968 32.9356 167.31C33.291 166.717 34.0018 166.599 34.5942 166.954C35.1866 167.31 35.305 168.021 34.9496 168.613C33.8834 170.272 32.9356 171.93 31.9878 173.589C31.7508 174.063 31.277 174.3 30.9215 174.3ZM37.3191 164.348C37.0821 164.348 36.8452 164.229 36.6082 164.111C36.1343 163.756 36.0159 162.926 36.3713 162.452C37.556 160.912 38.8592 159.372 40.2809 157.832C40.7548 157.358 41.4656 157.358 41.9395 157.713C42.4134 158.187 42.4134 158.898 42.058 159.372C40.7548 160.794 39.4516 162.334 38.2669 163.874C38.0299 164.229 37.6745 164.348 37.3191 164.348ZM45.3752 155.581C45.0198 155.581 44.7829 155.462 44.5459 155.225C44.072 154.752 44.072 154.041 44.5459 153.567C45.9676 152.145 47.5078 150.842 49.1664 149.657C49.6403 149.302 50.4696 149.302 50.825 149.894C51.1804 150.368 51.1804 151.197 50.5881 151.553C49.0479 152.738 47.6262 154.041 46.2045 155.344C45.8491 155.581 45.6122 155.581 45.3752 155.581ZM54.6161 148.354C54.2607 148.354 53.9053 148.117 53.6683 147.88C53.3129 147.288 53.4314 146.577 54.0238 146.222C55.6824 145.155 57.4595 144.089 59.1181 143.141C59.7105 142.786 60.4213 143.023 60.7767 143.615C61.1321 144.207 60.8952 144.918 60.3028 145.274C58.6442 146.222 56.9856 147.288 55.327 148.354C55.09 148.236 54.8531 148.354 54.6161 148.354ZM64.9233 142.549C64.4494 142.549 64.094 142.312 63.857 141.838C63.6201 141.246 63.857 140.535 64.4494 140.298C66.2265 139.469 68.1221 138.758 70.0176 138.047C70.61 137.81 71.3208 138.165 71.5578 138.758C71.7947 139.35 71.4393 140.061 70.8469 140.298C69.0698 141.009 67.1743 141.72 65.3972 142.549C65.2787 142.549 65.1602 142.549 64.9233 142.549Z" fill="#E0E0E0"/>
<path d="M362.054 458.161C362.054 457.687 361.817 457.332 361.461 457.095C360.75 456.503 359.921 456.266 358.855 456.384C357.789 456.384 356.841 456.621 356.13 457.095L351.391 459.583C351.747 458.872 352.102 458.161 352.22 457.45C352.339 456.858 352.457 456.266 352.457 455.673C352.457 454.725 352.457 449.157 352.457 448.683C352.457 447.617 352.22 446.551 351.746 445.366C351.036 443.707 349.614 442.167 347.481 440.627C346.06 439.561 344.283 438.258 342.269 436.954C340.255 435.651 338.359 434.467 336.7 433.519C332.317 431.149 327.696 429.372 322.721 427.951C317.745 426.529 312.295 425.937 306.49 425.937C300.685 425.937 294.524 426.884 288.008 428.543C281.492 430.202 274.621 433.045 267.394 436.836C261.233 440.153 256.494 443.471 253.414 447.025C250.215 450.579 248.32 454.015 247.727 457.45C247.49 458.517 247.372 459.583 247.49 460.649C247.49 461.834 247.49 466.81 247.49 467.757C247.49 470.127 248.083 472.378 249.149 474.629C250.689 477.828 253.177 480.671 256.494 483.277C257.205 483.87 258.153 484.581 259.575 485.41C260.878 486.358 262.299 487.306 263.84 488.253C265.38 489.201 266.801 490.149 268.223 491.097C269.645 492.044 270.829 492.637 271.659 493.229C275.805 495.48 280.544 497.139 285.757 498.442C290.97 499.745 296.538 500.338 302.343 500.219C308.148 500.219 314.191 499.39 320.351 497.968C326.512 496.428 332.672 494.058 338.951 490.86C343.927 488.253 347.837 485.765 350.799 483.396C353.761 481.026 356.012 478.894 357.67 476.761C359.329 474.747 360.395 472.733 360.987 470.956C361.58 469.061 361.935 467.402 362.291 465.743C362.291 465.625 362.291 465.625 362.291 465.507C362.054 464.914 362.054 458.161 362.054 458.161ZM344.283 466.573C343.69 467.521 342.743 468.468 341.558 469.653C340.373 470.719 338.833 472.023 336.937 473.207C335.042 474.51 332.672 475.932 329.711 477.472C325.564 479.605 321.417 481.263 317.152 482.33C312.887 483.396 308.741 483.988 304.713 484.107C300.685 484.225 296.657 483.87 292.865 483.04C289.074 482.211 285.52 481.026 282.321 479.368C281.374 478.894 280.189 478.302 278.886 477.472C277.582 476.643 276.161 475.814 274.739 474.866C273.317 473.918 272.014 473.089 270.829 472.259C269.645 471.43 268.697 470.719 267.986 470.127C265.617 467.994 263.84 465.862 262.892 463.492C262.773 463.255 262.655 462.9 262.536 462.663C263.247 460.649 264.55 458.517 266.564 456.503C268.815 454.133 272.014 451.882 276.161 449.631C281.018 447.025 285.757 445.011 290.141 443.707C292.628 442.997 294.998 442.404 297.249 442.049L296.064 442.641C295.235 442.997 294.879 443.589 294.761 444.181C294.643 444.774 294.998 445.366 295.59 445.721L296.42 446.195C294.406 445.958 292.273 445.958 290.141 446.195C288.008 446.432 285.402 447.38 282.558 448.92C279.952 450.342 278.056 451.882 276.753 453.541C275.687 454.962 275.213 456.503 275.213 458.043C275.213 458.28 275.213 464.085 275.213 465.27C275.213 465.506 275.213 465.743 275.213 465.98C275.331 467.757 276.161 469.653 277.582 471.43C279.004 473.326 281.137 475.103 283.861 476.88C286.586 478.657 289.43 480.079 292.51 481.026C295.59 482.093 298.671 482.685 301.751 482.922C304.831 483.159 307.911 483.04 310.873 482.448C313.835 481.856 316.678 480.908 319.285 479.486C321.536 478.302 323.194 477.235 324.379 476.288C325.564 475.34 326.393 474.392 326.986 473.563C327.46 472.733 327.815 471.904 327.815 471.193C327.815 470.482 327.933 469.772 327.815 469.061C329.829 469.179 332.198 469.061 335.042 468.587C337.885 468.113 341.084 466.928 344.52 465.033C344.757 464.914 344.875 464.796 345.112 464.677C344.994 465.625 344.638 466.099 344.283 466.573ZM301.988 459.583C304.95 459.938 307.793 461.123 310.755 463.019C311.821 463.729 312.65 464.44 313.361 465.033C313.006 465.27 312.532 465.625 311.94 465.862C309.452 467.165 306.727 467.639 303.765 467.284C300.803 466.928 297.841 465.862 294.998 463.966C293.932 463.256 292.984 462.545 292.273 461.834C292.628 461.597 293.102 461.36 293.576 461.005C296.301 459.82 299.026 459.227 301.988 459.583ZM335.042 452.593C333.739 453.185 332.317 453.422 330.777 453.541C328.881 453.659 327.223 453.185 325.801 452.238L309.807 441.693C311.466 441.93 313.006 442.167 314.664 442.523C318.456 443.471 322.247 444.892 325.919 446.788C327.696 447.736 329.474 448.683 331.132 449.868C332.554 450.816 333.857 451.764 335.042 452.593Z" fill="#14B86E"/>
<path opacity="0.2" d="M362.054 458.161C362.054 457.687 361.817 457.332 361.461 457.095C360.75 456.503 359.921 456.266 358.855 456.384C357.789 456.384 356.841 456.621 356.13 457.095L351.391 459.583C351.747 458.872 352.102 458.161 352.22 457.45C352.339 456.858 352.457 456.266 352.457 455.673C352.457 454.725 352.457 449.157 352.457 448.683C352.457 447.617 352.22 446.551 351.746 445.366C351.036 443.707 349.614 442.167 347.481 440.627C346.06 439.561 344.283 438.258 342.269 436.954C340.255 435.651 338.359 434.467 336.7 433.519C332.317 431.149 327.696 429.372 322.721 427.951C317.745 426.529 312.295 425.937 306.49 425.937C300.685 425.937 294.524 426.884 288.008 428.543C281.492 430.202 274.621 433.045 267.394 436.836C261.233 440.153 256.494 443.471 253.414 447.025C250.215 450.579 248.32 454.015 247.727 457.45C247.49 458.517 247.372 459.583 247.49 460.649C247.49 461.834 247.49 466.81 247.49 467.757C247.49 470.127 248.083 472.378 249.149 474.629C250.689 477.828 253.177 480.671 256.494 483.277C257.205 483.87 258.153 484.581 259.575 485.41C260.878 486.358 262.299 487.306 263.84 488.253C265.38 489.201 266.801 490.149 268.223 491.097C269.645 492.044 270.829 492.637 271.659 493.229C275.805 495.48 280.544 497.139 285.757 498.442C290.97 499.745 296.538 500.338 302.343 500.219C308.148 500.219 314.191 499.39 320.351 497.968C326.512 496.428 332.672 494.058 338.951 490.86C343.927 488.253 347.837 485.765 350.799 483.396C353.761 481.026 356.012 478.894 357.67 476.761C359.329 474.747 360.395 472.733 360.987 470.956C361.58 469.061 361.935 467.402 362.291 465.743C362.291 465.625 362.291 465.625 362.291 465.507C362.054 464.914 362.054 458.161 362.054 458.161ZM344.283 466.573C343.69 467.521 342.743 468.468 341.558 469.653C340.373 470.719 338.833 472.023 336.937 473.207C335.042 474.51 332.672 475.932 329.711 477.472C325.564 479.605 321.417 481.263 317.152 482.33C312.887 483.396 308.741 483.988 304.713 484.107C300.685 484.225 296.657 483.87 292.865 483.04C289.074 482.211 285.52 481.026 282.321 479.368C281.374 478.894 280.189 478.302 278.886 477.472C277.582 476.643 276.161 475.814 274.739 474.866C273.317 473.918 272.014 473.089 270.829 472.259C269.645 471.43 268.697 470.719 267.986 470.127C265.617 467.994 263.84 465.862 262.892 463.492C262.773 463.255 262.655 462.9 262.536 462.663C263.247 460.649 264.55 458.517 266.564 456.503C268.815 454.133 272.014 451.882 276.161 449.631C281.018 447.025 285.757 445.011 290.141 443.707C292.628 442.997 294.998 442.404 297.249 442.049L296.064 442.641C295.235 442.997 294.879 443.589 294.761 444.181C294.643 444.774 294.998 445.366 295.59 445.721L296.42 446.195C294.406 445.958 292.273 445.958 290.141 446.195C288.008 446.432 285.402 447.38 282.558 448.92C279.952 450.342 278.056 451.882 276.753 453.541C275.687 454.962 275.213 456.503 275.213 458.043C275.213 458.28 275.213 464.085 275.213 465.27C275.213 465.506 275.213 465.743 275.213 465.98C275.331 467.757 276.161 469.653 277.582 471.43C279.004 473.326 281.137 475.103 283.861 476.88C286.586 478.657 289.43 480.079 292.51 481.026C295.59 482.093 298.671 482.685 301.751 482.922C304.831 483.159 307.911 483.04 310.873 482.448C313.835 481.856 316.678 480.908 319.285 479.486C321.536 478.302 323.194 477.235 324.379 476.288C325.564 475.34 326.393 474.392 326.986 473.563C327.46 472.733 327.815 471.904 327.815 471.193C327.815 470.482 327.933 469.772 327.815 469.061C329.829 469.179 332.198 469.061 335.042 468.587C337.885 468.113 341.084 466.928 344.52 465.033C344.757 464.914 344.875 464.796 345.112 464.677C344.994 465.625 344.638 466.099 344.283 466.573ZM301.988 459.583C304.95 459.938 307.793 461.123 310.755 463.019C311.821 463.729 312.65 464.44 313.361 465.033C313.006 465.27 312.532 465.625 311.94 465.862C309.452 467.165 306.727 467.639 303.765 467.284C300.803 466.928 297.841 465.862 294.998 463.966C293.932 463.256 292.984 462.545 292.273 461.834C292.628 461.597 293.102 461.36 293.576 461.005C296.301 459.82 299.026 459.227 301.988 459.583ZM335.042 452.593C333.739 453.185 332.317 453.422 330.777 453.541C328.881 453.659 327.223 453.185 325.801 452.238L309.807 441.693C311.466 441.93 313.006 442.167 314.664 442.523C318.456 443.471 322.247 444.892 325.919 446.788C327.696 447.736 329.474 448.683 331.132 449.868C332.554 450.816 333.857 451.764 335.042 452.593Z" fill="black"/>
<path opacity="0.1" d="M262.655 462.782C263.366 460.768 264.669 458.635 266.683 456.621C268.934 454.252 272.133 452.001 276.279 449.75C281.136 447.144 285.875 445.129 290.259 443.826C292.747 443.115 295.116 442.523 297.367 442.168L301.632 439.917C302.462 439.561 303.291 439.324 304.357 439.324C305.423 439.324 306.253 439.561 306.845 440.035L309.688 441.931C311.347 442.168 312.887 442.405 314.546 442.76C318.337 443.708 322.128 445.129 325.801 447.025C327.578 447.973 329.355 448.921 331.014 450.105C332.435 451.053 333.739 451.882 334.923 452.83C335.16 452.712 335.397 452.593 335.634 452.475C337.056 451.764 337.885 450.816 338.122 449.75C338.359 448.684 337.648 447.499 335.871 446.196C334.449 445.129 332.791 443.945 331.014 442.76C329.237 441.575 327.578 440.627 325.801 439.68C322.128 437.784 318.337 436.362 314.546 435.415C310.755 434.467 306.845 434.111 302.817 434.348C298.789 434.585 294.642 435.296 290.14 436.718C285.757 438.021 281.018 440.035 276.161 442.642C272.014 444.774 268.815 447.143 266.564 449.513C264.313 451.882 262.773 454.252 262.181 456.621C261.588 458.991 261.825 461.36 262.773 463.73C263.247 464.914 263.958 465.981 264.787 467.165C263.958 466.099 263.247 464.914 262.773 463.73C262.892 463.256 262.773 463.019 262.655 462.782Z" fill="black"/>
<path opacity="0.1" d="M310.755 455.792C307.911 453.896 304.949 452.712 301.988 452.356C299.026 452.001 296.301 452.475 293.694 453.896C291.207 455.2 290.14 456.74 290.377 458.517C290.496 459.583 291.207 460.768 292.391 461.953C292.747 461.716 293.221 461.479 293.694 461.123C296.301 459.702 299.144 459.228 301.988 459.583C304.949 459.939 307.793 461.123 310.755 463.019C311.821 463.73 312.65 464.441 313.361 465.033C313.124 465.151 313.006 465.27 312.769 465.507C314.901 464.204 315.849 462.782 315.612 461.242C315.257 459.583 313.716 457.688 310.755 455.792Z" fill="black"/>
<path opacity="0.1" d="M301.751 476.051C298.67 475.814 295.59 475.222 292.51 474.155C289.429 473.089 286.586 471.786 283.861 470.009C281.136 468.232 279.004 466.455 277.582 464.559C276.16 462.663 275.331 460.886 275.213 459.109C275.213 458.754 275.213 458.398 275.213 458.043C275.213 458.161 275.213 458.28 275.213 458.398C275.213 458.635 275.213 464.441 275.213 465.625C275.213 465.862 275.213 466.099 275.213 466.336C275.331 468.113 276.16 470.009 277.582 471.786C279.004 473.681 281.136 475.458 283.861 477.236C286.586 479.013 289.429 480.434 292.51 481.382C295.59 482.448 298.67 483.041 301.751 483.278V476.051Z" fill="black"/>
<path opacity="0.1" d="M327.933 462.19C327.933 462.901 327.933 463.611 327.933 464.322V469.417C329.947 469.535 332.317 469.417 335.16 468.943V461.716C332.317 462.19 329.947 462.308 327.933 462.19Z" fill="black"/>
<path opacity="0.1" d="M285.638 490.978C280.425 489.675 275.686 488.016 271.54 485.765C270.592 485.291 269.526 484.58 268.104 483.632C266.683 482.685 265.261 481.855 263.721 480.789C262.181 479.841 260.759 478.894 259.456 477.946C258.152 476.998 257.086 476.287 256.375 475.813C253.058 473.207 250.57 470.363 249.03 467.165C247.964 464.914 247.371 462.544 247.371 460.175V460.293C247.371 461.478 247.371 466.454 247.371 467.402C247.371 469.771 247.964 472.022 249.03 474.273C250.57 477.472 253.058 480.315 256.375 482.922C257.086 483.514 258.034 484.225 259.456 485.054C260.759 486.002 262.181 486.95 263.721 487.897C265.261 488.845 266.683 489.793 268.104 490.741C269.526 491.689 270.711 492.281 271.54 492.873C275.686 495.124 280.425 496.783 285.638 498.086C290.851 499.389 296.419 499.982 302.224 499.863V492.636C296.419 492.873 290.851 492.281 285.638 490.978Z" fill="black"/>
<path d="M347.481 440.39C349.614 441.93 351.035 443.589 351.746 445.129C352.457 446.788 352.694 448.328 352.22 449.987C351.865 451.527 351.036 453.067 349.732 454.489C348.429 455.91 346.77 457.095 344.756 458.161C341.202 460.057 338.003 461.241 335.279 461.715C332.435 462.189 330.066 462.308 328.052 462.189C328.052 462.9 328.052 463.611 328.052 464.322C328.052 465.033 327.696 465.862 327.222 466.691C326.749 467.521 325.801 468.468 324.616 469.416C323.431 470.364 321.773 471.43 319.522 472.615C316.915 474.037 314.072 474.984 311.11 475.577C308.148 476.169 305.068 476.288 301.988 476.051C298.907 475.814 295.827 475.221 292.747 474.155C289.666 473.089 286.823 471.786 284.098 470.008C281.373 468.231 279.241 466.454 277.819 464.559C276.398 462.663 275.568 460.886 275.45 459.109C275.331 457.332 275.805 455.555 276.99 453.896C278.175 452.238 280.07 450.697 282.795 449.276C285.757 447.736 288.245 446.788 290.377 446.551C292.51 446.314 294.642 446.314 296.656 446.551L295.827 446.077C295.235 445.603 294.879 445.129 294.998 444.537C295.116 443.944 295.472 443.471 296.301 442.997L301.869 440.035C302.699 439.679 303.528 439.442 304.594 439.442C305.66 439.442 306.49 439.679 307.082 440.153L325.919 452.474C327.341 453.422 329 453.778 330.895 453.778C332.791 453.659 334.449 453.304 335.871 452.474C337.293 451.764 338.122 450.816 338.359 449.75C338.596 448.683 337.885 447.499 336.108 446.195C334.686 445.129 333.028 443.944 331.251 442.76C329.473 441.575 327.815 440.627 326.038 439.679C322.365 437.784 318.574 436.362 314.783 435.414C310.992 434.467 307.082 434.111 303.054 434.348C299.026 434.585 294.879 435.296 290.377 436.718C285.994 438.021 281.255 440.035 276.398 442.641C272.251 444.774 269.052 447.143 266.801 449.513C264.55 451.882 263.01 454.252 262.418 456.621C261.825 458.99 262.062 461.36 263.01 463.729C263.958 466.099 265.735 468.231 268.104 470.364C268.697 470.956 269.645 471.667 270.948 472.496C272.132 473.326 273.554 474.274 274.857 475.103C276.279 476.051 277.582 476.88 279.004 477.709C280.307 478.539 281.492 479.249 282.44 479.605C285.757 481.263 289.193 482.448 292.984 483.277C296.775 484.107 300.684 484.462 304.831 484.344C308.978 484.225 313.124 483.633 317.271 482.567C321.536 481.5 325.682 479.842 329.829 477.709C332.791 476.169 335.16 474.747 337.056 473.444C338.951 472.141 340.491 470.956 341.676 469.89C342.861 468.824 343.809 467.757 344.401 466.81C344.993 465.862 345.586 465.033 345.941 464.203C346.297 463.492 346.534 462.9 346.77 462.545C347.007 462.189 347.481 461.715 348.311 461.36L356.13 457.213C356.959 456.858 357.788 456.621 358.855 456.503C359.921 456.503 360.75 456.739 361.461 457.213C361.935 457.569 362.172 457.924 362.054 458.517C361.817 460.175 361.343 461.834 360.75 463.729C360.158 465.625 359.092 467.521 357.433 469.535C355.774 471.549 353.523 473.8 350.562 476.169C347.6 478.539 343.572 481.026 338.714 483.633C332.554 486.95 326.393 489.32 320.114 490.741C313.953 492.281 307.911 492.992 302.106 492.992C296.301 492.992 290.733 492.4 285.52 491.215C280.307 489.912 275.568 488.253 271.422 486.002C270.474 485.528 269.408 484.818 267.986 483.87C266.564 482.922 265.143 482.093 263.602 481.026C262.062 480.079 260.641 479.131 259.337 478.183C258.034 477.235 256.968 476.524 256.257 476.051C252.94 473.444 250.452 470.601 248.912 467.402C247.372 464.203 246.898 460.886 247.49 457.45C248.201 454.015 250.096 450.579 253.177 447.025C256.376 443.471 260.996 440.153 267.157 436.836C274.383 433.045 281.255 430.202 287.771 428.543C294.287 426.884 300.448 425.937 306.253 425.937C312.058 425.937 317.389 426.529 322.484 427.951C327.459 429.372 332.198 431.268 336.463 433.519C338.122 434.467 340.018 435.533 342.032 436.954C344.283 438.139 345.941 439.324 347.481 440.39ZM295.116 464.085C297.96 465.98 300.921 467.047 303.883 467.402C306.845 467.757 309.57 467.284 312.058 465.98C314.664 464.559 315.849 463.019 315.612 461.36C315.375 459.583 313.716 457.806 310.755 455.91C307.911 454.015 304.95 452.83 301.988 452.474C299.026 452.119 296.301 452.593 293.695 454.015C291.207 455.318 290.14 456.858 290.377 458.635C290.614 460.294 292.273 462.189 295.116 464.085Z" fill="#14B86E"/>
<path d="M349.14 408.166V408.995C349.14 410.417 350.088 412.075 351.272 412.786L398.188 439.916C399.372 440.627 401.386 440.627 402.571 439.916L480.171 395.134C481.356 394.423 482.304 392.764 482.304 391.342V390.513C482.304 389.092 481.356 387.433 480.171 386.722L433.256 359.592C432.071 358.881 430.057 358.881 428.872 359.592L351.272 404.375C350.088 405.085 349.14 406.744 349.14 408.166Z" fill="#14B86E"/>
<path d="M349.14 408.166V408.995C349.14 410.417 350.088 412.075 351.272 412.786L398.188 439.916C399.372 440.627 401.386 440.627 402.571 439.916L480.171 395.134C481.356 394.423 482.304 392.764 482.304 391.342V390.513C482.304 389.092 481.356 387.433 480.171 386.722L433.256 359.592C432.071 358.881 430.057 358.881 428.872 359.592L351.272 404.375C350.088 405.085 349.14 406.744 349.14 408.166Z" fill="#14B86E"/>
<path opacity="0.2" d="M400.32 376.06L351.272 404.375C350.088 405.085 349.14 406.744 349.14 408.166V408.995C349.14 410.417 350.088 412.075 351.272 412.786L398.188 439.917C398.78 440.272 399.609 440.39 400.32 440.39V376.06Z" fill="black"/>
<path opacity="0.15" d="M400.32 376.06L351.272 404.375C350.088 405.085 349.14 406.744 349.14 408.166V408.995C349.14 410.417 350.088 412.075 351.272 412.786L398.188 439.917C398.78 440.272 399.609 440.39 400.32 440.39V376.06Z" fill="black"/>
<path opacity="0.2" d="M480.171 386.604L433.256 359.474C432.071 358.763 430.057 358.763 428.872 359.474L400.32 376.06V440.391C401.149 440.391 401.86 440.272 402.453 439.917L480.052 395.134C481.237 394.423 482.185 392.764 482.185 391.343V390.513C482.303 388.973 481.356 387.315 480.171 386.604Z" fill="black"/>
<path d="M390.606 429.609L351.273 406.862C350.088 406.152 350.088 405.085 351.273 404.374L428.872 359.592C430.057 358.881 432.071 358.881 433.256 359.592L480.171 386.722C481.356 387.433 481.356 388.499 480.171 389.21L467.258 396.674L462.756 399.28L402.453 434.111C401.268 434.822 399.254 434.822 398.069 434.111L394.278 431.86L390.606 429.609Z" fill="#14B86E"/>
<path opacity="0.15" d="M426.384 391.817L480.171 386.604L426.858 389.566L433.256 359.474C432.545 359.118 431.716 359 430.886 359L420.816 399.636L350.325 405.441C350.325 405.915 350.562 406.389 351.154 406.863L408.021 403.546L400.202 434.467L410.272 403.427L419.987 402.835C421.171 402.717 422.356 402.243 423.186 401.532C424.015 400.821 424.607 399.873 424.844 398.688L426.384 391.817Z" fill="black"/>
<path opacity="0.3" d="M367.148 404.138L420.816 399.754L422.712 392.054L423.778 387.789L430.886 359.118C430.175 359.118 429.464 359.355 428.872 359.592L390.131 381.983L351.272 404.375C350.68 404.73 350.443 405.086 350.443 405.56L361.224 404.73L367.148 404.138Z" fill="white"/>
</g>
<defs>
<clipPath id="clip0_1704_24114">
<rect width="531.352" height="540" fill="white" transform="translate(0 0.5)"/>
</clipPath>
</defs>
</svg>
