<svg width="20" height="20" viewBox="0 0 20 20" fill="none" xmlns="http://www.w3.org/2000/svg">
<path d="M14.5003 18.3328C7.41648 18.3236 1.67617 12.5833 1.66699 5.49944C1.66699 3.38235 3.38323 1.66611 5.50033 1.66611C5.71561 1.66447 5.93053 1.68401 6.14199 1.72444C6.34642 1.75469 6.54738 1.80494 6.74199 1.87444C7.02049 1.97216 7.22652 2.20989 7.28366 2.49944L8.42533 7.49944C8.48785 7.77521 8.40628 8.06387 8.20866 8.26611C8.10033 8.38278 8.09199 8.39111 7.06699 8.92444C7.88782 10.7252 9.32799 12.1712 11.1253 12.9994C11.667 11.9661 11.6753 11.9578 11.792 11.8494C11.9942 11.6518 12.2829 11.5703 12.5587 11.6328L17.5587 12.7744C17.8387 12.8394 18.0655 13.0441 18.1587 13.3161C18.229 13.5139 18.282 13.7175 18.317 13.9244C18.3505 14.1339 18.3673 14.3457 18.367 14.5578C18.335 16.6651 16.6078 18.3513 14.5003 18.3328Z" fill="#637381"/>
</svg>
