<svg width="20" height="20" viewBox="0 0 20 20" fill="none" xmlns="http://www.w3.org/2000/svg">
<path fill-rule="evenodd" clip-rule="evenodd" d="M1.66699 9.99935C1.66699 5.39698 5.39795 1.66602 10.0003 1.66602C12.2105 1.66602 14.3301 2.54399 15.8929 4.10679C17.4557 5.6696 18.3337 7.78921 18.3337 9.99935C18.3337 14.6017 14.6027 18.3327 10.0003 18.3327C5.39795 18.3327 1.66699 14.6017 1.66699 9.99935ZM10.0003 10.8327H13.3337C13.7939 10.8327 14.167 10.4596 14.167 9.99935C14.167 9.53911 13.7939 9.16602 13.3337 9.16602H10.8337V6.66602C10.8337 6.20578 10.4606 5.83268 10.0003 5.83268C9.54009 5.83268 9.16699 6.20578 9.16699 6.66602V9.99935C9.16699 10.4596 9.54009 10.8327 10.0003 10.8327Z" fill="#637381"/>
</svg>
