<svg width="20" height="20" viewBox="0 0 20 20" fill="none" xmlns="http://www.w3.org/2000/svg">
<path fill-rule="evenodd" clip-rule="evenodd" d="M14.1663 17.5H5.83301V5.83333H6.66634V4.58333C6.66634 3.43274 7.59908 2.5 8.74967 2.5H11.2497C12.4003 2.5 13.333 3.43274 13.333 4.58333V5.83333H14.1663V17.5ZM8.74967 4.16667C8.51956 4.16667 8.33301 4.35321 8.33301 4.58333V5.83333H11.6663V4.58333C11.6663 4.35321 11.4798 4.16667 11.2497 4.16667H8.74967Z" fill="#637381"/>
<path d="M15.833 5.83398V17.5007C17.2137 17.5007 18.333 16.3814 18.333 15.0007V8.33398C18.333 6.95327 17.2137 5.83398 15.833 5.83398Z" fill="#637381"/>
<path d="M4.16699 5.83398C2.78628 5.83398 1.66699 6.95327 1.66699 8.33398V15.0007C1.66699 16.3814 2.78628 17.5007 4.16699 17.5007V5.83398Z" fill="#637381"/>
</svg>
