<svg width="32" height="32" viewBox="0 0 32 32" fill="none" xmlns="http://www.w3.org/2000/svg">
<mask id="mask0_1869_29181" style="mask-type:alpha" maskUnits="userSpaceOnUse" x="0" y="0" width="32" height="32">
<rect width="32" height="32" fill="#D9D9D9"/>
</mask>
<g mask="url(#mask0_1869_29181)">
<path d="M14.8 25.3327H17.1334V23.666C18.2445 23.466 19.2 23.0327 20 22.366C20.8 21.6993 21.2 20.7105 21.2 19.3993C21.2 18.466 20.9334 17.6105 20.4 16.8327C19.8667 16.0549 18.8 15.3771 17.2 14.7993C15.8667 14.3549 14.9445 13.966 14.4334 13.6327C13.9222 13.2993 13.6667 12.8438 13.6667 12.266C13.6667 11.6882 13.8725 11.2327 14.284 10.8993C14.6947 10.566 15.2889 10.3993 16.0667 10.3993C16.7778 10.3993 17.3334 10.5718 17.7334 10.9167C18.1334 11.2607 18.4222 11.6882 18.6 12.1993L20.7334 11.3327C20.4889 10.5549 20.0391 9.87713 19.384 9.29935C18.728 8.72157 18 8.39935 17.2 8.33268V6.66602H14.8667V8.33268C13.7556 8.57713 12.8889 9.06602 12.2667 9.79935C11.6445 10.5327 11.3334 11.3549 11.3334 12.266C11.3334 13.3105 11.6391 14.1549 12.2507 14.7993C12.8614 15.4438 13.8222 15.9993 15.1334 16.466C16.5334 16.9771 17.5058 17.4327 18.0507 17.8327C18.5947 18.2327 18.8667 18.7549 18.8667 19.3993C18.8667 20.1327 18.6054 20.6714 18.0827 21.0154C17.5609 21.3602 16.9334 21.5327 16.2 21.5327C15.4667 21.5327 14.8169 21.3047 14.2507 20.8487C13.6836 20.3936 13.2667 19.7105 13 18.7994L10.8 19.666C11.1111 20.7327 11.5947 21.594 12.2507 22.25C12.9058 22.9051 13.7556 23.3549 14.8 23.5993V25.3327ZM16 29.3327C14.1556 29.3327 12.4222 28.9825 10.8 28.282C9.1778 27.5825 7.76669 26.6327 6.56669 25.4327C5.36669 24.2327 4.41691 22.8216 3.71735 21.1993C3.01691 19.5771 2.66669 17.8438 2.66669 15.9993C2.66669 14.1549 3.01691 12.4216 3.71735 10.7993C4.41691 9.17713 5.36669 7.76602 6.56669 6.56602C7.76669 5.36602 9.1778 4.41579 10.8 3.71535C12.4222 3.01579 14.1556 2.66602 16 2.66602C17.8445 2.66602 19.5778 3.01579 21.2 3.71535C22.8222 4.41579 24.2334 5.36602 25.4334 6.56602C26.6334 7.76602 27.5831 9.17713 28.2827 10.7993C28.9831 12.4216 29.3334 14.1549 29.3334 15.9993C29.3334 17.8438 28.9831 19.5771 28.2827 21.1993C27.5831 22.8216 26.6334 24.2327 25.4334 25.4327C24.2334 26.6327 22.8222 27.5825 21.2 28.282C19.5778 28.9825 17.8445 29.3327 16 29.3327Z" fill="#1C1B1F"/>
</g>
</svg>
