<svg width="32" height="32" viewBox="0 0 32 32" fill="none" xmlns="http://www.w3.org/2000/svg">
<path fill-rule="evenodd" clip-rule="evenodd" d="M22.6666 28H9.33331V9.33333H10.6666V7.33333C10.6666 5.49238 12.159 4 14 4H18C19.8409 4 21.3333 5.49238 21.3333 7.33333V9.33333H22.6666V28ZM14 6.66667C13.6318 6.66667 13.3333 6.96514 13.3333 7.33333V9.33333H18.6666V7.33333C18.6666 6.96514 18.3682 6.66667 18 6.66667H14Z" fill="#212B36"/>
<path d="M25.3333 9.33398V28.0007C27.5425 28.0007 29.3333 26.2098 29.3333 24.0007V13.334C29.3333 11.1248 27.5425 9.33398 25.3333 9.33398Z" fill="#212B36"/>
<path d="M6.66669 9.33398C4.45755 9.33398 2.66669 11.1248 2.66669 13.334V24.0007C2.66669 26.2098 4.45755 28.0007 6.66669 28.0007V9.33398Z" fill="#212B36"/>
</svg>
