<svg width="32" height="32" viewBox="0 0 32 32" fill="none" xmlns="http://www.w3.org/2000/svg">
<circle cx="16" cy="12.666" r="2" fill="#212B36"/>
<path fill-rule="evenodd" clip-rule="evenodd" d="M5.33337 13.226C5.39187 7.37668 10.1504 2.66572 16 2.66602C21.8497 2.66572 26.6082 7.37668 26.6667 13.226C26.6667 20.5327 17.3334 28.666 16.8667 29.0127C16.3677 29.4395 15.6323 29.4395 15.1334 29.0127L15.1312 29.0108C14.7005 28.6376 5.33337 20.5199 5.33337 13.226ZM11.3334 12.666C11.3334 15.2433 13.4227 17.3327 16 17.3327C17.2377 17.3327 18.4247 16.841 19.2999 15.9658C20.175 15.0907 20.6667 13.9037 20.6667 12.666C20.6667 10.0887 18.5774 7.99935 16 7.99935C13.4227 7.99935 11.3334 10.0887 11.3334 12.666Z" fill="#212B36"/>
</svg>
