<svg width="32" height="32" viewBox="0 0 32 32" fill="none" xmlns="http://www.w3.org/2000/svg">
<path d="M12 14.6667C14.9455 14.6667 17.3333 12.2789 17.3333 9.33333C17.3333 6.38781 14.9455 4 12 4C9.05444 4 6.66663 6.38781 6.66663 9.33333C6.66663 12.2789 9.05444 14.6667 12 14.6667Z" fill="#212B36"/>
<path d="M22.6666 17.334C24.8758 17.334 26.6666 15.5431 26.6666 13.334C26.6666 11.1248 24.8758 9.33398 22.6666 9.33398C20.4575 9.33398 18.6666 11.1248 18.6666 13.334C18.6666 15.5431 20.4575 17.334 22.6666 17.334Z" fill="#212B36"/>
<path d="M28 26.6667C28.7363 26.6667 29.3333 26.0697 29.3333 25.3333C29.3311 22.7911 27.8833 20.4714 25.6004 19.3526C23.3176 18.2339 20.5972 18.5108 18.5866 20.0667C15.9161 17.4066 11.9076 16.614 8.4256 18.0575C4.94362 19.5011 2.67173 22.8973 2.66663 26.6667C2.66663 27.4031 3.26358 28 3.99996 28H20C20.7363 28 21.3333 27.4031 21.3333 26.6667" fill="#212B36"/>
</svg>
