<svg width="25" height="24" viewBox="0 0 25 24" fill="none" xmlns="http://www.w3.org/2000/svg">
<path opacity="0.48" d="M16.1346 12.515L13.6696 9.99965C13.6684 9.99847 13.6674 9.99747 13.6662 9.99629C13.664 9.99394 13.6617 9.99159 13.6593 9.98924C13.6577 9.98773 13.6561 9.98605 13.6546 9.98454C13.6525 9.98236 13.6503 9.98035 13.6481 9.97816C13.6467 9.97699 13.6456 9.97581 13.6444 9.97464C13.4163 9.75459 13.1061 9.61914 12.7642 9.61914C12.4139 9.61914 12.097 9.76114 11.8676 9.99075L9.33242 12.5259C8.83744 13.0209 8.83744 13.8235 9.33242 14.3187C9.57999 14.5663 9.90444 14.69 10.2289 14.69C10.5532 14.69 10.8776 14.5663 11.1252 14.3187L11.4107 14.0332C11.4424 14.0014 11.4965 14.0239 11.4965 14.0688V19.0264C11.4965 19.7371 12.0781 20.3358 12.7885 20.3224C13.4774 20.3093 14.0318 19.7468 14.0318 19.055V14.1147C14.0318 14.0698 14.0865 14.0474 14.1181 14.0795L14.3435 14.3096C14.5917 14.5629 14.9202 14.69 15.2488 14.69C15.5775 14.69 15.9063 14.5631 16.1554 14.3083C16.641 13.8121 16.6205 13.0107 16.1346 12.515Z" fill="white"/>
<path d="M19.9749 8.59164C19.774 5.47456 17.1749 3 14.0086 3C13.4354 3 12.8667 3.08157 12.3184 3.24237C10.8857 3.66316 9.6597 4.61435 8.89113 5.88612C8.446 5.66457 7.95622 5.54892 7.45067 5.54892C5.81718 5.54892 4.4593 6.75356 4.23959 8.34122C3.467 8.70209 2.80904 9.26169 2.32497 9.97252C1.78534 10.7653 1.5 11.6904 1.5 12.648C1.5 15.2343 3.5244 17.3217 6.1089 17.3999L10.4232 17.4004V15.7572C10.3591 15.7624 10.2945 15.7649 10.2297 15.7649C9.60414 15.7649 9.01601 15.5214 8.57373 15.0789C7.66064 14.166 7.66064 12.6802 8.57373 11.7671L11.1089 9.23198C11.551 8.78954 12.1393 8.54582 12.765 8.54582C13.375 8.54582 13.9525 8.77896 14.3913 9.20261C14.3921 9.20345 14.3983 9.20932 14.4047 9.2157L16.9026 11.7639C17.7984 12.6779 17.8082 14.1568 16.9243 15.0603C16.4796 15.5148 15.885 15.7649 15.2498 15.7649C15.202 15.7649 15.1543 15.7636 15.107 15.7607V17.4006L19.207 17.3997C21.6142 17.3136 23.5 15.3584 23.5 12.9484C23.5 10.83 22.01 9.02234 19.9749 8.59164Z" fill="white"/>
</svg>
