<svg width="25" height="24" viewBox="0 0 25 24" fill="none" xmlns="http://www.w3.org/2000/svg">
<path d="M17.3333 3.50015C17.3333 3.22401 17.1095 3.00015 16.8333 3.00015H14.3333C11.7126 2.86961 9.4786 4.88025 9.33333 7.50015V10.2002H6.83333C6.55719 10.2002 6.33333 10.424 6.33333 10.7002V13.3002C6.33333 13.5763 6.55719 13.8002 6.83333 13.8002H9.33333V20.5002C9.33333 20.7763 9.55719 21.0002 9.83333 21.0002H12.8333C13.1095 21.0002 13.3333 20.7763 13.3333 20.5002V13.8002H15.9533C16.1821 13.8034 16.3839 13.6511 16.4433 13.4302L17.1633 10.8302C17.2036 10.6804 17.1722 10.5205 17.0782 10.3971C16.9843 10.2738 16.8384 10.201 16.6833 10.2002H13.3333V7.50015C13.3849 6.98725 13.8179 6.59757 14.3333 6.60015H16.8333C17.1095 6.60015 17.3333 6.3763 17.3333 6.10015V3.50015Z" fill="#1877F2"/>
</svg>
