<svg width="24" height="24" viewBox="0 0 24 24" fill="none" xmlns="http://www.w3.org/2000/svg">
<path d="M6.18182 12.2128C6.18182 11.5642 6.28955 10.9423 6.48182 10.359L3.11637 7.78906C2.46046 9.12081 2.09091 10.6214 2.09091 12.2128C2.09091 13.8028 2.46 15.3025 3.115 16.6333L6.47864 14.0583C6.28818 13.4778 6.18182 12.8582 6.18182 12.2128Z" fill="#FBBC05"/>
<path d="M12.0909 6.31167C13.5 6.31167 14.7727 6.81096 15.7727 7.62798L18.6818 4.72302C16.9091 3.17975 14.6364 2.22656 12.0909 2.22656C8.13909 2.22656 4.74273 4.48653 3.11636 7.78866L6.48182 10.3586C7.25727 8.00472 9.46773 6.31167 12.0909 6.31167Z" fill="#EB4335"/>
<path d="M12.0909 18.1134C9.46773 18.1134 7.25727 16.4203 6.48182 14.0664L3.11636 16.6359C4.74273 19.9385 8.13909 22.1985 12.0909 22.1985C14.53 22.1985 16.8586 21.3324 18.6064 19.7098L15.4118 17.2401C14.5105 17.8079 13.3755 18.1134 12.0909 18.1134Z" fill="#34A853"/>
<path d="M21.6364 12.2121C21.6364 11.622 21.5455 10.9866 21.4091 10.3965H12.0909V14.2546H17.4545C17.1864 15.57 16.4564 16.5813 15.4118 17.2395L18.6064 19.7092C20.4423 18.0052 21.6364 15.467 21.6364 12.2121Z" fill="#4285F4"/>
</svg>
