<svg width="25" height="24" viewBox="0 0 25 24" fill="none" xmlns="http://www.w3.org/2000/svg">
<path d="M15.8167 8.40043C14.2687 8.39511 12.7822 9.00562 11.6848 10.0974C10.5875 11.1891 9.96931 12.6725 9.96666 14.2204V20.1004C9.96666 20.3391 10.0615 20.568 10.2303 20.7368C10.399 20.9056 10.628 21.0004 10.8667 21.0004H12.9667C13.4637 21.0004 13.8667 20.5975 13.8667 20.1004V14.2204C13.8663 13.6691 14.1005 13.1437 14.5107 12.7754C14.921 12.4071 15.4686 12.2307 16.0167 12.2904C17.0226 12.4171 17.7746 13.2765 17.7667 14.2904V20.1004C17.7667 20.5975 18.1696 21.0004 18.6667 21.0004H20.7667C21.2637 21.0004 21.6667 20.5975 21.6667 20.1004V14.2204C21.664 12.6725 21.0459 11.1891 19.9485 10.0974C18.8511 9.00562 17.3646 8.39511 15.8167 8.40043Z" fill="#00AAEC"/>
<rect x="3.66666" y="9.2998" width="4.5" height="11.7" rx="0.9" fill="#007EBB"/>
<circle cx="5.91666" cy="5.25" r="2.25" fill="#007EBB"/>
</svg>
