<svg width="84" height="85" viewBox="0 0 84 85" fill="none" xmlns="http://www.w3.org/2000/svg">
<g filter="url(#filter0_dd_1754_24041)">
<circle cx="42" cy="30.6421" r="22" fill="white"/>
<path d="M39.3333 39.9752C39.0218 39.9758 38.7199 39.8673 38.48 39.6685C38.2073 39.4425 38.0358 39.1172 38.0033 38.7645C37.9707 38.4118 38.0799 38.0606 38.3066 37.7885L44.28 30.6419L38.52 23.4819C38.2963 23.2064 38.1916 22.8531 38.2291 22.5003C38.2667 22.1474 38.4433 21.8241 38.72 21.6019C38.9989 21.3565 39.3675 21.2386 39.737 21.2765C40.1065 21.3145 40.4435 21.5049 40.6666 21.8019L47.1066 29.8019C47.5111 30.2939 47.5111 31.0032 47.1066 31.4952L40.44 39.4952C40.1687 39.8224 39.7576 40.0007 39.3333 39.9752Z" fill="#212B36"/>
</g>
<defs>
<filter id="filter0_dd_1754_24041" x="0" y="0.64209" width="84" height="84" filterUnits="userSpaceOnUse" color-interpolation-filters="sRGB">
<feFlood flood-opacity="0" result="BackgroundImageFix"/>
<feColorMatrix in="SourceAlpha" type="matrix" values="0 0 0 0 0 0 0 0 0 0 0 0 0 0 0 0 0 0 127 0" result="hardAlpha"/>
<feMorphology radius="4" operator="erode" in="SourceAlpha" result="effect1_dropShadow_1754_24041"/>
<feOffset dy="12"/>
<feGaussianBlur stdDeviation="12"/>
<feColorMatrix type="matrix" values="0 0 0 0 0.568627 0 0 0 0 0.619608 0 0 0 0 0.670588 0 0 0 0.12 0"/>
<feBlend mode="normal" in2="BackgroundImageFix" result="effect1_dropShadow_1754_24041"/>
<feColorMatrix in="SourceAlpha" type="matrix" values="0 0 0 0 0 0 0 0 0 0 0 0 0 0 0 0 0 0 127 0" result="hardAlpha"/>
<feOffset/>
<feGaussianBlur stdDeviation="1"/>
<feComposite in2="hardAlpha" operator="out"/>
<feColorMatrix type="matrix" values="0 0 0 0 0.568627 0 0 0 0 0.619608 0 0 0 0 0.670588 0 0 0 0.2 0"/>
<feBlend mode="normal" in2="effect1_dropShadow_1754_24041" result="effect2_dropShadow_1754_24041"/>
<feBlend mode="normal" in="SourceGraphic" in2="effect2_dropShadow_1754_24041" result="shape"/>
</filter>
</defs>
</svg>
