<svg width="84" height="85" viewBox="0 0 84 85" fill="none" xmlns="http://www.w3.org/2000/svg">
<g filter="url(#filter0_dd_1754_24042)">
<circle r="22" transform="matrix(-1 0 0 1 42 30.6421)" fill="white"/>
<path d="M44.6667 39.9752C44.9782 39.9758 45.2801 39.8673 45.52 39.6685C45.7927 39.4425 45.9642 39.1172 45.9967 38.7645C46.0293 38.4118 45.9201 38.0606 45.6934 37.7885L39.72 30.6419L45.48 23.4819C45.7037 23.2064 45.8084 22.8531 45.7709 22.5003C45.7333 22.1474 45.5567 21.8241 45.28 21.6019C45.0011 21.3565 44.6325 21.2386 44.263 21.2765C43.8935 21.3145 43.5565 21.5049 43.3334 21.8019L36.8934 29.8019C36.4889 30.2939 36.4889 31.0032 36.8934 31.4952L43.56 39.4952C43.8313 39.8224 44.2424 40.0007 44.6667 39.9752Z" fill="#212B36"/>
</g>
<defs>
<filter id="filter0_dd_1754_24042" x="0" y="0.64209" width="84" height="84" filterUnits="userSpaceOnUse" color-interpolation-filters="sRGB">
<feFlood flood-opacity="0" result="BackgroundImageFix"/>
<feColorMatrix in="SourceAlpha" type="matrix" values="0 0 0 0 0 0 0 0 0 0 0 0 0 0 0 0 0 0 127 0" result="hardAlpha"/>
<feMorphology radius="4" operator="erode" in="SourceAlpha" result="effect1_dropShadow_1754_24042"/>
<feOffset dy="12"/>
<feGaussianBlur stdDeviation="12"/>
<feColorMatrix type="matrix" values="0 0 0 0 0.568627 0 0 0 0 0.619608 0 0 0 0 0.670588 0 0 0 0.12 0"/>
<feBlend mode="normal" in2="BackgroundImageFix" result="effect1_dropShadow_1754_24042"/>
<feColorMatrix in="SourceAlpha" type="matrix" values="0 0 0 0 0 0 0 0 0 0 0 0 0 0 0 0 0 0 127 0" result="hardAlpha"/>
<feOffset/>
<feGaussianBlur stdDeviation="1"/>
<feComposite in2="hardAlpha" operator="out"/>
<feColorMatrix type="matrix" values="0 0 0 0 0.568627 0 0 0 0 0.619608 0 0 0 0 0.670588 0 0 0 0.2 0"/>
<feBlend mode="normal" in2="effect1_dropShadow_1754_24042" result="effect2_dropShadow_1754_24042"/>
<feBlend mode="normal" in="SourceGraphic" in2="effect2_dropShadow_1754_24042" result="shape"/>
</filter>
</defs>
</svg>
