<svg width="531" height="560" viewBox="0 0 531 560" fill="none" xmlns="http://www.w3.org/2000/svg">
<path d="M200.346 559.358H139.244H44.2266C46.7835 527.293 53.0435 451.732 58.9215 386.956L200.346 386.104C201.139 411.027 200.111 530.879 200.346 559.358Z" fill="#263238"/>
<path d="M175.835 440.887C175.364 442.18 167.341 462.723 145.592 467.72L139.244 504.34L132.396 508.307L138.274 462.577C152.747 459.434 165.878 451.851 175.835 440.887Z" fill="black"/>
<path d="M170.927 210.028C185.916 211.939 189.325 212.967 218.832 230.601C242.873 245.032 260.537 255.201 260.537 255.201C260.537 255.201 280.639 275.274 282.432 280.27C284.225 285.267 282.99 299.109 274.056 307.515C266.679 314.421 262.3 312.188 255.952 310.013C248.134 307.368 195.173 284.091 195.173 284.091L170.927 210.028Z" fill="#37474F"/>
<path d="M349.706 183.754C346.267 181.374 345.385 184.665 344.122 185.018C344.122 185.018 348.119 181.021 342.182 176.877C338.538 174.32 336.304 179.551 336.304 178.817C336.304 178.082 341.712 167.942 346.15 158.949C350.352 150.426 347.443 147.693 346.15 146.899C344.856 146.106 343.211 146.576 339.507 152.777C335.804 158.979 324.607 177.377 322.109 181.197C319.61 185.018 317.906 186.781 316.848 181.491C316.392 176.945 314.883 172.568 312.439 168.707C308.09 163.416 304.269 165.327 304.739 169.177C305.386 174.585 304.739 180.933 304.974 189.75C304.974 194.335 304.827 198.567 304.974 201.77C305.797 212.85 299.096 217.435 290.838 225.488C284.137 232.071 272.381 241.094 257.862 255.025C248.604 263.842 245.607 293.232 257.216 303.695C268.825 314.157 276.201 305.781 292.66 284.621C303.24 270.954 317.994 245.473 322.05 239.654C326.106 233.835 327.575 230.161 332.689 227.516C338.694 224.353 343.67 219.54 347.031 213.644C349.03 210.705 352.909 205.268 355.29 200.83C357.67 196.392 358.229 193.159 355.789 191.014C352.41 188.075 351.087 191.954 350.764 191.513C350.44 191.072 354.584 187.163 349.706 183.754Z" fill="#FFA8A7"/>
<path d="M343.034 206.414C341.947 204.562 343.387 201.447 343.387 201.447C342.616 202.514 341.525 203.307 340.271 203.71C339.278 203.895 338.252 203.733 337.364 203.252C336.476 202.77 335.78 201.998 335.393 201.065C335.259 199.607 335.621 198.147 336.421 196.921C335.48 197.667 334.37 198.171 333.189 198.391C331.19 198.773 329.515 197.391 328.956 194.952C328.398 192.513 331.631 186.811 334.834 181.609C332.974 183.28 331.353 185.198 330.014 187.311C328.353 189.387 327.287 191.876 326.928 194.511C325.608 192.365 323.768 190.587 321.579 189.338C326.194 194.599 328.751 208.06 325.959 216.642C327.792 214.228 329.034 211.418 329.585 208.437C330.137 205.456 329.982 202.388 329.133 199.478C329.802 199.968 330.61 200.231 331.44 200.231C332.269 200.231 333.077 199.968 333.747 199.478C333.529 200.463 333.638 201.491 334.057 202.409C334.476 203.326 335.182 204.082 336.069 204.562C336.77 205.134 337.624 205.483 338.525 205.567C339.425 205.651 340.33 205.465 341.124 205.033C341.124 205.033 340.36 206.943 342.858 208.501C345.356 210.058 347.501 208.736 349.147 206.326C348.773 206.768 348.308 207.125 347.784 207.372C347.261 207.619 346.69 207.752 346.111 207.76C345.532 207.768 344.957 207.653 344.427 207.42C343.896 207.188 343.421 206.845 343.034 206.414Z" fill="#F28F8F"/>
<path d="M67.0919 222.667C56.4057 238.042 51.7217 256.798 53.9252 275.392C56.8642 303.048 59.333 320.888 59.8032 331.615C60.3322 348.074 56.3352 414.23 56.3352 414.23C76.6437 438.918 178.774 441.034 201.433 395.656C201.433 395.656 200.346 359.741 200.287 322.945C200.287 296.024 200.64 271.307 197.348 255.348C192.822 234.099 181.507 215.26 171.191 209.911L145.798 208.471L113.793 206.914L67.0919 222.667Z" fill="#455A64"/>
<path d="M104.476 193.688C102.36 183.137 91.5149 172.38 86.5186 163.269C81.5223 154.158 78.7891 147.663 79.083 139.287C79.0191 136.75 79.4883 134.228 80.4604 131.884C81.4324 129.54 82.8855 127.426 84.7258 125.679C83.7854 107.575 102.095 97.1711 114.322 93.7031C126.925 90.2124 140.171 89.7192 152.999 92.263C159.876 93.4974 166.048 96.0543 171.544 90C172.754 92.1633 173.206 94.6692 172.828 97.119C172.45 99.5688 171.263 101.822 169.457 103.519C172.128 103.759 174.691 104.691 176.893 106.223C178.056 106.901 179.013 107.883 179.661 109.063C180.308 110.244 180.621 111.579 180.566 112.924C180.068 114.762 179.047 116.416 177.627 117.685C179.123 118.368 180.324 119.566 181.009 121.061C181.694 122.556 181.819 124.247 181.36 125.826C180.815 127.741 179.697 129.444 178.156 130.705C177.363 131.381 176.276 131.763 175.511 132.439C174.747 133.115 174.718 133.644 174.159 134.232C173.601 134.82 173.807 136.142 173.719 136.73C173.494 138.42 172.913 140.043 172.014 141.491C170.54 143.82 168.523 145.756 166.136 147.134C158.436 151.072 149.795 152.542 141.419 154.511L131.485 156.862C130.927 156.862 127.9 157.244 127.547 157.773L104.476 193.688Z" fill="#263238"/>
<path d="M91.6619 180.463C93.535 181.731 95.7738 182.346 98.0318 182.213C100.29 182.08 102.441 181.207 104.153 179.728L102.213 211.616C108.444 225.9 125.725 219.786 145.563 244.621C145.563 244.621 151.911 234.217 146.709 213.615L147.65 202.917C151.856 202.834 156.055 202.53 160.229 202.006C169.046 200.624 173.63 192.777 176.364 181.021C178.781 170.493 178.911 159.569 176.746 148.986C176.09 146.096 175.852 143.127 176.04 140.169C176.525 133.814 175.518 127.434 173.101 121.536C163.755 114.424 142.536 112.484 123.139 125.004C125.725 136.76 121.434 146.106 113.028 150.808C113.499 153.953 114.116 161.947 108.914 161.947C105.152 161.947 104.77 157.245 100.802 153.13C96.8345 149.015 87.8412 148.251 84.5201 154.453C82.3143 158.91 81.8231 164.022 83.1398 168.817C84.4565 173.613 87.4894 177.757 91.6619 180.463Z" fill="#FFA8A7"/>
<path d="M151.118 142.314L167.135 163.828L152.382 167.678L151.118 142.314Z" fill="#F28F8F"/>
<path d="M141.096 138.846L132.955 142.873C132.447 141.757 132.387 140.489 132.786 139.33C133.185 138.171 134.013 137.209 135.1 136.642C135.637 136.382 136.22 136.233 136.816 136.204C137.411 136.174 138.007 136.265 138.566 136.471C139.126 136.677 139.638 136.993 140.073 137.401C140.507 137.809 140.855 138.301 141.096 138.846Z" fill="#263238"/>
<path d="M172.308 140.727L164.255 136.436C164.509 135.918 164.862 135.455 165.295 135.074C165.728 134.693 166.232 134.401 166.779 134.215C167.325 134.03 167.902 133.954 168.478 133.992C169.054 134.03 169.616 134.182 170.133 134.438C171.24 135 172.085 135.97 172.491 137.143C172.897 138.317 172.831 139.602 172.308 140.727Z" fill="#263238"/>
<path d="M147.65 202.917C134.424 201.712 123.961 200.448 116.849 191.161C113.522 186.337 110.714 181.175 108.473 175.76C109.496 182.515 111.589 189.063 114.674 195.158C118.142 201.183 126.43 206.502 147.238 207.707L147.65 202.917Z" fill="#F28F8F"/>
<path d="M142.33 149.897C142.351 150.621 142.159 151.335 141.778 151.951C141.396 152.567 140.843 153.057 140.186 153.362C139.529 153.667 138.797 153.772 138.08 153.665C137.364 153.558 136.695 153.243 136.156 152.759C135.617 152.275 135.231 151.644 135.047 150.944C134.863 150.243 134.888 149.504 135.12 148.818C135.352 148.131 135.78 147.528 136.351 147.083C136.922 146.637 137.611 146.369 138.333 146.311C138.831 146.283 139.33 146.354 139.8 146.519C140.271 146.685 140.704 146.941 141.076 147.274C141.447 147.607 141.749 148.01 141.964 148.46C142.179 148.91 142.304 149.398 142.33 149.897Z" fill="#263238"/>
<path d="M138.921 173.027L153.616 176.965C153.033 178.952 151.704 180.637 149.907 181.666C148.111 182.696 145.985 182.991 143.976 182.49C143.014 182.215 142.116 181.75 141.338 181.121C140.559 180.492 139.914 179.713 139.443 178.83C138.971 177.947 138.682 176.978 138.592 175.981C138.503 174.984 138.614 173.98 138.921 173.027Z" fill="#B16668"/>
<path d="M148.296 182.373C147.85 180.195 146.618 178.257 144.835 176.929C143.051 175.601 140.842 174.975 138.627 175.172C138.587 176.824 139.101 178.441 140.086 179.767C141.071 181.093 142.472 182.052 144.064 182.49C145.458 182.849 146.925 182.808 148.296 182.373Z" fill="#F28F8F"/>
<path d="M165.813 144.46C166.813 144.498 167.758 144.931 168.441 145.663C169.123 146.395 169.489 147.368 169.457 148.369C169.417 149.093 169.164 149.79 168.731 150.373C168.298 150.955 167.703 151.397 167.02 151.645C166.338 151.892 165.598 151.933 164.892 151.763C164.186 151.593 163.546 151.219 163.051 150.688C162.556 150.157 162.228 149.492 162.108 148.776C161.987 148.061 162.08 147.325 162.374 146.662C162.669 145.998 163.151 145.435 163.763 145.044C164.374 144.653 165.087 144.449 165.813 144.46Z" fill="#263238"/>
<path d="M143.036 260.256C143.506 272.688 137.393 331.38 137.158 339.051C136.922 346.722 149.354 371.527 151.853 375.759C154.351 379.991 156.437 380.843 159.406 374.701C164.15 363.332 166.913 351.235 167.576 338.933C167.576 327.177 156.496 273.453 152.411 258.669C152.411 254.672 143.036 255.201 143.036 260.256Z" fill="#00AB55"/>
<path opacity="0.15" d="M143.036 260.256C143.506 272.688 137.393 331.38 137.158 339.051C136.922 346.722 149.354 371.527 151.853 375.759C154.351 379.991 156.437 380.843 159.406 374.701C164.15 363.332 166.913 351.235 167.576 338.933C167.576 327.177 156.496 273.453 152.411 258.669C152.411 254.672 143.036 255.201 143.036 260.256Z" fill="white"/>
<path d="M139.097 239.008C135.528 238.089 132.097 236.696 128.899 234.864L123.55 244.798C127.384 247.124 131.491 248.97 135.776 250.293C136.664 250.033 137.469 249.547 138.113 248.883C138.757 248.218 139.218 247.398 139.45 246.502C140.079 244.024 139.956 241.415 139.097 239.008Z" fill="#00AB55"/>
<path opacity="0.15" d="M139.097 239.008C135.528 238.089 132.097 236.696 128.899 234.864L123.55 244.798C127.384 247.124 131.491 248.97 135.776 250.293C136.664 250.033 137.469 249.547 138.113 248.883C138.757 248.218 139.218 247.398 139.45 246.502C140.079 244.024 139.956 241.415 139.097 239.008Z" fill="black"/>
<path d="M155.35 229.896C154.189 232.717 152.29 235.174 149.854 237.009L153.822 247.854C153.822 247.854 160.875 243.357 162.051 237.655C163.226 231.954 155.35 229.896 155.35 229.896Z" fill="#00AB55"/>
<path opacity="0.15" d="M155.35 229.896C154.189 232.717 152.29 235.174 149.854 237.009L153.822 247.854C153.822 247.854 160.875 243.357 162.051 237.655C163.226 231.954 155.35 229.896 155.35 229.896Z" fill="black"/>
<path d="M139.097 239.007C143.653 240.212 149.031 239.007 149.854 237.097C151.559 238.592 152.914 240.444 153.823 242.521C154.732 244.598 155.173 246.85 155.115 249.117C155.112 252.554 154.178 255.926 152.411 258.875C152.411 258.875 149.472 256.641 143.036 260.344C140.154 257.352 137.71 253.968 135.776 250.293C135.776 250.293 140.097 244.121 139.097 239.007Z" fill="#00AB55"/>
<path d="M142.183 239.36C141.191 239.32 140.205 239.172 139.244 238.919C136.041 235.451 133.807 233.511 132.543 234.687C129.297 239.146 126.51 243.921 124.226 248.941C122.815 252.115 123.109 252.115 118.73 249.206C111.033 244.094 104.306 237.656 98.8625 230.19C95.4721 225.399 92.8356 220.116 91.0447 214.526C91.0447 214.526 95.9823 207.678 97.4517 205.062C100.391 200.007 100.156 197.92 103.006 198.361V201.917C103.477 206.326 109.854 210.293 116.026 215.613C122.198 220.933 132.161 225.988 134.512 228.28C137.254 231.842 139.814 235.54 142.183 239.36Z" fill="#37474F"/>
<path d="M163.256 241.447C162.55 243.24 156.849 229.162 154.027 229.456C152.911 229.456 151.088 234.364 149.531 237.479C148.788 238.144 147.887 238.61 146.915 238.831C147.591 234.099 147.885 228.545 148.091 226.634C148.217 222.252 147.752 217.873 146.709 213.614L147.65 202.917H150.207C151.625 204.403 152.941 205.984 154.145 207.648C156.878 212.145 161.933 220.315 162.962 225.664C163.932 230.873 164.032 236.206 163.256 241.447Z" fill="#37474F"/>
<path d="M67.0919 222.667C49.4579 228.163 36.4382 234.1 29.7667 249.118C23.0951 264.136 12.1327 301.285 6.01957 323.739C0.817546 342.989 -2.35657 360.8 2.16948 369.323L52.632 349.103L70.7362 296.553C70.7362 296.553 82.8743 242.652 67.0919 222.667Z" fill="#37474F"/>
<path d="M48.8114 322.945C45.2258 327.706 41.17 329.528 32.353 333.408C24.0944 337.052 14.7191 340.461 9.45825 349.19C11.0747 341.049 15.6595 337.082 25.9166 331.556C36.1737 326.031 51.2508 319.8 51.2508 319.8L48.8114 322.945Z" fill="#263238"/>
<path d="M48.8114 322.945C45.2258 327.706 41.17 329.528 32.353 333.408C24.0944 337.052 14.337 339.521 7.87119 348.279C2.581 355.45 -0.563736 363.679 2.16953 369.41C4.05049 373.349 13.4553 376.64 26.9159 375.288C37.6726 374.113 45.2258 366.03 56.3058 358.536C65.7988 352.129 70.7657 348.014 70.7657 348.014L48.8114 322.945Z" fill="#FFA8A7"/>
<path d="M66.798 333.525C62.6834 329.675 61.8311 325.619 55.8062 322.445C49.7812 319.271 46.0781 319.506 39.7005 316.567C33.3228 313.628 28.1502 312.071 23.4478 313.628C18.7454 315.186 19.5977 318.037 23.2127 320.153C26.8277 322.269 33.0877 325.061 37.4374 328.029C41.7872 330.998 45.9899 332.614 46.2544 338.022C46.3477 346.558 45.9847 355.093 45.167 363.591C44.2853 372.673 42.7276 380.02 43.433 380.99C44.1384 381.96 48.0472 382.254 50.2515 377.14C52.4557 372.026 54.9832 353.628 54.9832 353.628C54.9832 353.628 57.1581 366.324 58.128 375.083C59.0978 383.841 59.6268 390.542 59.9207 392.423C60.2146 394.304 66.4159 392.658 67.2095 385.986C67.3944 377.223 67.0214 368.457 66.0926 359.741C66.0926 359.741 71.5592 368.558 74.9096 374.201C78.2601 379.844 82.7861 387.661 84.1968 389.572C85.6076 391.482 89.4576 387.897 88.3408 382.665C87.224 377.434 80.0822 364.737 80.0822 364.737C80.0822 364.737 88.5172 373.025 89.9573 373.819C91.3974 374.612 95.8353 373.819 94.0719 367.941C92.955 364.091 90.3981 361.71 83.5797 354.392C76.7612 347.074 76.7612 343.988 74.7627 340.638C71.8531 336.229 69.7664 336.347 66.798 333.525Z" fill="#FFA8A7"/>
<path d="M23.4478 313.687C22.6541 314.009 21.9116 314.444 21.2435 314.98C20.9107 315.216 20.657 315.548 20.5154 315.93C20.3738 316.313 20.351 316.73 20.45 317.126C21.2467 318.603 22.5519 319.741 24.1238 320.329L33.3816 324.973C34.9099 325.796 36.3206 326.648 37.9076 327.618C39.4947 328.588 40.8466 329.44 42.2574 330.557C43.8573 331.495 45.1505 332.878 45.98 334.537C46.8095 336.196 47.1397 338.06 46.9303 339.903C46.9303 346.839 46.5777 353.746 45.9311 360.652C45.5784 364.091 45.1376 367.529 44.6085 370.939L43.7268 376.052C43.3373 377.727 43.2084 379.452 43.3448 381.166C43.0656 379.453 43.0656 377.707 43.3448 375.994L43.8738 370.85C44.2559 367.412 44.5792 364.003 44.7849 360.564C45.1963 353.687 45.549 346.78 45.4315 339.991C45.583 338.38 45.3409 336.756 44.7261 335.259C43.9305 333.844 42.8129 332.636 41.4638 331.732C40.0825 330.763 38.5248 329.881 37.1435 328.793C35.7622 327.706 34.2045 326.942 32.8232 326.09L23.7417 321.064C22.1111 320.298 20.8082 318.974 20.0679 317.331C19.9871 316.877 20.0415 316.41 20.2244 315.986C20.4073 315.563 20.7106 315.203 21.0966 314.951C21.8131 314.415 22.6055 313.989 23.4478 313.687Z" fill="#F28F8F"/>
<path d="M50.6336 337.111C57.2463 339.785 63.5358 336.64 64.3881 334.995C64.0942 339.521 55.2184 342.43 50.6336 337.111Z" fill="#F28F8F"/>
<path d="M94.3952 371.262C93.8283 371.773 93.0852 372.043 92.3228 372.015C91.5605 371.988 90.8387 371.665 90.3099 371.115C88.6053 369.763 84.4319 365.237 82.4922 363.297C80.5525 361.358 74.0573 354.01 74.0573 354.01L80.141 364.62C80.141 364.62 88.5759 372.908 90.0161 373.702C90.4616 373.885 90.9427 373.965 91.4236 373.937C91.9045 373.908 92.3728 373.772 92.7936 373.537C93.2145 373.303 93.577 372.977 93.8543 372.583C94.1316 372.189 94.3165 371.737 94.3952 371.262Z" fill="#F28F8F"/>
<g filter="url(#filter0_d_1754_24050)">
<rect x="102" y="327" width="331" height="121" rx="20" fill="white" shape-rendering="crispEdges"/>
<path d="M219.013 370.668H223.945C224.125 369.012 225.169 367.428 227.617 367.428C229.921 367.428 231.181 368.652 231.181 370.704C231.181 373.296 229.021 374.124 226.069 374.124H225.025V378.264H226.069C229.813 378.264 231.685 379.344 231.685 382.296C231.685 384.384 230.389 385.968 227.869 385.968C225.169 385.968 223.657 384.348 223.549 382.08H218.653C218.869 387.588 222.793 390.18 227.977 390.18C233.485 390.18 236.509 387.012 236.509 382.728C236.509 379.164 234.745 377.004 232.081 376.176V376.032C233.989 375.384 236.041 373.368 236.041 370.092C236.041 366.204 233.161 363.144 227.761 363.144C222.721 363.144 219.265 365.808 219.013 370.668ZM240.492 376.536C240.492 384.204 242.796 389.928 250.212 389.928C257.628 389.928 259.932 384.204 259.932 376.536C259.932 368.94 257.628 363.252 250.212 363.252C242.796 363.252 240.492 368.94 240.492 376.536ZM254.964 376.536C254.964 381.216 254.46 385.248 250.212 385.248C245.964 385.248 245.46 381.216 245.46 376.536C245.46 372.036 245.964 367.932 250.212 367.932C254.46 367.932 254.964 372.036 254.964 376.536ZM263.765 376.536C263.765 384.204 266.069 389.928 273.485 389.928C280.901 389.928 283.205 384.204 283.205 376.536C283.205 368.94 280.901 363.252 273.485 363.252C266.069 363.252 263.765 368.94 263.765 376.536ZM278.237 376.536C278.237 381.216 277.733 385.248 273.485 385.248C269.237 385.248 268.733 381.216 268.733 376.536C268.733 372.036 269.237 367.932 273.485 367.932C277.733 367.932 278.237 372.036 278.237 376.536ZM294.887 368.004V374.988H288.083V379.38H294.887V386.364H299.639V379.38H306.443V374.988H299.639V368.004H294.887Z" fill="#00AB55"/>
<path d="M135.68 418V403.54H140.33C142.09 403.54 143.42 403.863 144.32 404.51C145.226 405.157 145.68 406.09 145.68 407.31C145.68 408.077 145.48 408.733 145.08 409.28C144.686 409.827 143.993 410.277 143 410.63C143.566 410.75 144.043 410.923 144.43 411.15C144.823 411.377 145.136 411.643 145.37 411.95C145.61 412.25 145.78 412.583 145.88 412.95C145.986 413.317 146.04 413.703 146.04 414.11C146.04 415.417 145.573 416.393 144.64 417.04C143.713 417.68 142.326 418 140.48 418H135.68ZM137.53 416.46H140.46C141.666 416.46 142.583 416.263 143.21 415.87C143.843 415.47 144.16 414.857 144.16 414.03C144.16 413.423 144.003 412.933 143.69 412.56C143.383 412.18 142.966 411.903 142.44 411.73C141.913 411.557 141.326 411.47 140.68 411.47H137.53V416.46ZM137.53 409.9H140.68C141.06 409.9 141.436 409.863 141.81 409.79C142.183 409.717 142.526 409.59 142.84 409.41C143.153 409.23 143.406 408.99 143.6 408.69C143.793 408.383 143.89 408 143.89 407.54C143.89 406.7 143.566 406.08 142.92 405.68C142.28 405.273 141.446 405.07 140.42 405.07H137.53V409.9ZM151.578 418.2C150.911 418.2 150.321 418.083 149.808 417.85C149.294 417.61 148.891 417.267 148.598 416.82C148.311 416.373 148.168 415.833 148.168 415.2C148.168 414.053 148.568 413.2 149.368 412.64C150.168 412.08 151.451 411.78 153.218 411.74L155.068 411.69V410.88C155.068 410.247 154.878 409.747 154.498 409.38C154.118 409.007 153.528 408.82 152.728 408.82C152.134 408.827 151.611 408.967 151.158 409.24C150.711 409.513 150.421 409.96 150.288 410.58H148.657C148.698 409.907 148.888 409.34 149.228 408.88C149.568 408.413 150.041 408.06 150.648 407.82C151.261 407.58 151.984 407.46 152.818 407.46C153.718 407.46 154.464 407.587 155.058 407.84C155.658 408.093 156.104 408.467 156.398 408.96C156.698 409.453 156.848 410.06 156.848 410.78V418H155.268L155.138 416.06C154.738 416.867 154.228 417.427 153.608 417.74C152.994 418.047 152.318 418.2 151.578 418.2ZM152.138 416.87C152.484 416.87 152.828 416.807 153.168 416.68C153.514 416.553 153.831 416.383 154.118 416.17C154.404 415.95 154.631 415.707 154.798 415.44C154.971 415.167 155.061 414.887 155.068 414.6V412.83L153.528 412.86C152.741 412.873 152.081 412.953 151.548 413.1C151.021 413.247 150.624 413.477 150.358 413.79C150.098 414.103 149.968 414.513 149.968 415.02C149.968 415.6 150.168 416.053 150.568 416.38C150.974 416.707 151.498 416.87 152.138 416.87ZM151.468 403.54H149.368L152.098 406.45H153.528L151.468 403.54ZM162.007 407.66V418H160.217V407.66H162.007ZM162.047 403.55V405.47H160.157V403.55H162.047ZM179.826 404.93V406.09H173.646V404.93H179.826ZM173.346 418.2C172.006 418.2 170.943 417.74 170.156 416.82C169.369 415.9 168.976 414.557 168.976 412.79C168.976 411.717 169.133 410.78 169.446 409.98C169.766 409.18 170.239 408.56 170.866 408.12C171.493 407.68 172.273 407.46 173.206 407.46C173.699 407.46 174.136 407.523 174.516 407.65C174.903 407.777 175.236 407.937 175.516 408.13C175.796 408.323 176.023 408.523 176.196 408.73C176.376 408.937 176.509 409.127 176.596 409.3V403.14H178.456V418H177.046L176.846 415.88C176.779 416.08 176.673 416.313 176.526 416.58C176.379 416.84 176.173 417.097 175.906 417.35C175.639 417.597 175.296 417.8 174.876 417.96C174.463 418.12 173.953 418.2 173.346 418.2ZM173.676 416.78C174.723 416.78 175.469 416.463 175.916 415.83C176.369 415.19 176.596 414.147 176.596 412.7C176.589 411.893 176.486 411.207 176.286 410.64C176.093 410.073 175.786 409.643 175.366 409.35C174.953 409.05 174.403 408.9 173.716 408.9C172.863 408.9 172.169 409.203 171.636 409.81C171.103 410.417 170.836 411.38 170.836 412.7C170.836 413.993 171.076 414.997 171.556 415.71C172.043 416.423 172.749 416.78 173.676 416.78ZM184.82 418.2C184.153 418.2 183.563 418.083 183.05 417.85C182.536 417.61 182.133 417.267 181.84 416.82C181.553 416.373 181.41 415.833 181.41 415.2C181.41 414.053 181.81 413.2 182.61 412.64C183.41 412.08 184.693 411.78 186.46 411.74L188.31 411.69V410.88C188.31 410.247 188.12 409.747 187.74 409.38C187.36 409.007 186.77 408.82 185.97 408.82C185.376 408.827 184.853 408.967 184.4 409.24C183.953 409.513 183.663 409.96 183.53 410.58H181.9C181.94 409.907 182.13 409.34 182.47 408.88C182.81 408.413 183.283 408.06 183.89 407.82C184.503 407.58 185.226 407.46 186.06 407.46C186.96 407.46 187.706 407.587 188.3 407.84C188.9 408.093 189.346 408.467 189.64 408.96C189.94 409.453 190.09 410.06 190.09 410.78V418H188.51L188.38 416.06C187.98 416.867 187.47 417.427 186.85 417.74C186.236 418.047 185.56 418.2 184.82 418.2ZM185.38 416.87C185.726 416.87 186.07 416.807 186.41 416.68C186.756 416.553 187.073 416.383 187.36 416.17C187.646 415.95 187.873 415.707 188.04 415.44C188.213 415.167 188.303 414.887 188.31 414.6V412.83L186.77 412.86C185.983 412.873 185.323 412.953 184.79 413.1C184.263 413.247 183.866 413.477 183.6 413.79C183.34 414.103 183.21 414.513 183.21 415.02C183.21 415.6 183.41 416.053 183.81 416.38C184.216 416.707 184.74 416.87 185.38 416.87ZM189.1 404.31C188.993 404.763 188.796 405.153 188.51 405.48C188.23 405.8 187.876 406.047 187.45 406.22C187.03 406.393 186.563 406.48 186.05 406.48C185.556 406.48 185.1 406.397 184.68 406.23C184.26 406.063 183.906 405.82 183.62 405.5C183.333 405.173 183.136 404.777 183.03 404.31H184.38C184.486 404.63 184.683 404.893 184.97 405.1C185.263 405.3 185.623 405.4 186.05 405.4C186.47 405.4 186.83 405.3 187.13 405.1C187.436 404.893 187.646 404.63 187.76 404.31H189.1ZM193.249 418V407.66H195.039V409.16C195.205 408.873 195.435 408.603 195.729 408.35C196.029 408.097 196.389 407.893 196.809 407.74C197.235 407.587 197.725 407.51 198.279 407.51C198.932 407.51 199.532 407.64 200.079 407.9C200.632 408.16 201.072 408.567 201.399 409.12C201.732 409.667 201.899 410.373 201.899 411.24V418H200.049V411.42C200.049 410.613 199.835 410.017 199.409 409.63C198.989 409.237 198.442 409.04 197.769 409.04C197.302 409.04 196.865 409.117 196.459 409.27C196.052 409.417 195.722 409.643 195.469 409.95C195.215 410.25 195.089 410.63 195.089 411.09V418H193.249ZM209.152 421.42C207.525 421.42 206.258 421.183 205.352 420.71C204.452 420.243 204.002 419.573 204.002 418.7C204.002 418.327 204.088 418.01 204.262 417.75C204.435 417.483 204.642 417.263 204.882 417.09C205.122 416.917 205.345 416.78 205.552 416.68C205.758 416.573 205.892 416.497 205.952 416.45C205.838 416.383 205.695 416.3 205.522 416.2C205.355 416.1 205.208 415.967 205.082 415.8C204.955 415.633 204.892 415.417 204.892 415.15C204.892 414.823 205.045 414.523 205.352 414.25C205.658 413.977 206.112 413.773 206.712 413.64C206.105 413.333 205.632 412.927 205.292 412.42C204.952 411.913 204.782 411.363 204.782 410.77C204.782 410.103 204.962 409.523 205.322 409.03C205.688 408.537 206.208 408.16 206.882 407.9C207.555 407.633 208.355 407.5 209.282 407.5C209.955 407.5 210.522 407.58 210.982 407.74C211.442 407.893 211.868 408.113 212.262 408.4C212.368 408.353 212.535 408.283 212.762 408.19C212.995 408.09 213.252 407.983 213.532 407.87C213.812 407.757 214.072 407.65 214.312 407.55C214.558 407.443 214.755 407.363 214.902 407.31L214.892 409.02L213.082 409.36C213.182 409.573 213.262 409.807 213.322 410.06C213.388 410.313 213.422 410.55 213.422 410.77C213.422 411.377 213.262 411.927 212.942 412.42C212.628 412.913 212.152 413.307 211.512 413.6C210.872 413.893 210.072 414.04 209.112 414.04C209.032 414.04 208.928 414.04 208.802 414.04C208.682 414.033 208.578 414.027 208.492 414.02C207.785 414.04 207.298 414.12 207.032 414.26C206.765 414.393 206.632 414.543 206.632 414.71C206.632 414.903 206.782 415.037 207.082 415.11C207.382 415.183 207.892 415.247 208.612 415.3C208.872 415.313 209.192 415.33 209.572 415.35C209.958 415.37 210.385 415.397 210.852 415.43C211.938 415.497 212.775 415.773 213.362 416.26C213.948 416.747 214.242 417.403 214.242 418.23C214.242 419.17 213.822 419.937 212.982 420.53C212.142 421.123 210.865 421.42 209.152 421.42ZM209.482 420.23C210.435 420.23 211.165 420.087 211.672 419.8C212.178 419.513 212.432 419.08 212.432 418.5C212.432 418.087 212.275 417.75 211.962 417.49C211.655 417.223 211.185 417.07 210.552 417.03L207.652 416.84C207.392 416.827 207.122 416.893 206.842 417.04C206.562 417.18 206.322 417.377 206.122 417.63C205.928 417.883 205.832 418.17 205.832 418.49C205.832 419.037 206.128 419.463 206.722 419.77C207.322 420.077 208.242 420.23 209.482 420.23ZM209.162 412.85C209.908 412.85 210.508 412.677 210.962 412.33C211.422 411.983 211.652 411.47 211.652 410.79C211.652 410.09 211.422 409.557 210.962 409.19C210.508 408.823 209.908 408.64 209.162 408.64C208.408 408.64 207.798 408.827 207.332 409.2C206.872 409.567 206.642 410.097 206.642 410.79C206.642 411.443 206.862 411.95 207.302 412.31C207.742 412.67 208.362 412.85 209.162 412.85ZM225.689 407.46C226.429 407.46 227.096 407.603 227.689 407.89C228.282 408.17 228.766 408.57 229.139 409.09C229.519 409.61 229.756 410.223 229.849 410.93H228.209C228.149 410.57 228.009 410.24 227.789 409.94C227.576 409.64 227.292 409.4 226.939 409.22C226.586 409.04 226.172 408.95 225.699 408.95C224.812 408.95 224.092 409.27 223.539 409.91C222.986 410.55 222.709 411.53 222.709 412.85C222.709 414.043 222.962 415 223.469 415.72C223.982 416.433 224.736 416.79 225.729 416.79C226.202 416.79 226.612 416.7 226.959 416.52C227.312 416.333 227.596 416.09 227.809 415.79C228.022 415.483 228.159 415.157 228.219 414.81H229.829C229.742 415.503 229.509 416.103 229.129 416.61C228.749 417.117 228.262 417.51 227.669 417.79C227.082 418.063 226.422 418.2 225.689 418.2C224.762 418.2 223.939 417.997 223.219 417.59C222.506 417.183 221.946 416.583 221.539 415.79C221.132 414.997 220.929 414.023 220.929 412.87C220.929 411.79 221.112 410.847 221.479 410.04C221.852 409.227 222.392 408.593 223.099 408.14C223.812 407.687 224.676 407.46 225.689 407.46ZM236.46 418.2C235.507 418.2 234.674 417.997 233.96 417.59C233.247 417.177 232.694 416.573 232.3 415.78C231.907 414.987 231.71 414.017 231.71 412.87C231.71 411.79 231.894 410.843 232.26 410.03C232.627 409.217 233.164 408.587 233.87 408.14C234.584 407.687 235.447 407.46 236.46 407.46C237.414 407.46 238.24 407.67 238.94 408.09C239.647 408.503 240.194 409.113 240.58 409.92C240.967 410.727 241.16 411.71 241.16 412.87C241.16 413.923 240.98 414.85 240.62 415.65C240.267 416.45 239.74 417.077 239.04 417.53C238.347 417.977 237.487 418.2 236.46 418.2ZM236.46 416.74C237.08 416.74 237.604 416.583 238.03 416.27C238.457 415.957 238.78 415.507 239 414.92C239.22 414.333 239.33 413.637 239.33 412.83C239.33 412.09 239.234 411.427 239.04 410.84C238.847 410.247 238.537 409.777 238.11 409.43C237.69 409.083 237.14 408.91 236.46 408.91C235.834 408.91 235.304 409.067 234.87 409.38C234.437 409.687 234.107 410.133 233.88 410.72C233.66 411.307 233.55 412.01 233.55 412.83C233.55 413.557 233.65 414.217 233.85 414.81C234.05 415.403 234.364 415.873 234.79 416.22C235.217 416.567 235.774 416.74 236.46 416.74ZM237.84 406.45L236.44 405.15L234.93 406.45H233.29L235.8 404.2H237.12L239.58 406.45H237.84ZM243.581 418V407.66H245.371V409.16C245.537 408.873 245.767 408.603 246.061 408.35C246.361 408.097 246.721 407.893 247.141 407.74C247.567 407.587 248.057 407.51 248.611 407.51C249.264 407.51 249.864 407.64 250.411 407.9C250.964 408.16 251.404 408.567 251.731 409.12C252.064 409.667 252.231 410.373 252.231 411.24V418H250.381V411.42C250.381 410.613 250.167 410.017 249.741 409.63C249.321 409.237 248.774 409.04 248.101 409.04C247.634 409.04 247.197 409.117 246.791 409.27C246.384 409.417 246.054 409.643 245.801 409.95C245.547 410.25 245.421 410.63 245.421 411.09V418H243.581ZM259.484 421.42C257.857 421.42 256.59 421.183 255.684 420.71C254.784 420.243 254.334 419.573 254.334 418.7C254.334 418.327 254.42 418.01 254.594 417.75C254.767 417.483 254.974 417.263 255.214 417.09C255.454 416.917 255.677 416.78 255.884 416.68C256.09 416.573 256.224 416.497 256.284 416.45C256.17 416.383 256.027 416.3 255.854 416.2C255.687 416.1 255.54 415.967 255.414 415.8C255.287 415.633 255.224 415.417 255.224 415.15C255.224 414.823 255.377 414.523 255.684 414.25C255.99 413.977 256.444 413.773 257.044 413.64C256.437 413.333 255.964 412.927 255.624 412.42C255.284 411.913 255.114 411.363 255.114 410.77C255.114 410.103 255.294 409.523 255.654 409.03C256.02 408.537 256.54 408.16 257.214 407.9C257.887 407.633 258.687 407.5 259.614 407.5C260.287 407.5 260.854 407.58 261.314 407.74C261.774 407.893 262.2 408.113 262.594 408.4C262.7 408.353 262.867 408.283 263.094 408.19C263.327 408.09 263.584 407.983 263.864 407.87C264.144 407.757 264.404 407.65 264.644 407.55C264.89 407.443 265.087 407.363 265.234 407.31L265.224 409.02L263.414 409.36C263.514 409.573 263.594 409.807 263.654 410.06C263.72 410.313 263.754 410.55 263.754 410.77C263.754 411.377 263.594 411.927 263.274 412.42C262.96 412.913 262.484 413.307 261.844 413.6C261.204 413.893 260.404 414.04 259.444 414.04C259.364 414.04 259.26 414.04 259.134 414.04C259.014 414.033 258.91 414.027 258.824 414.02C258.117 414.04 257.63 414.12 257.364 414.26C257.097 414.393 256.964 414.543 256.964 414.71C256.964 414.903 257.114 415.037 257.414 415.11C257.714 415.183 258.224 415.247 258.944 415.3C259.204 415.313 259.524 415.33 259.904 415.35C260.29 415.37 260.717 415.397 261.184 415.43C262.27 415.497 263.107 415.773 263.694 416.26C264.28 416.747 264.574 417.403 264.574 418.23C264.574 419.17 264.154 419.937 263.314 420.53C262.474 421.123 261.197 421.42 259.484 421.42ZM259.814 420.23C260.767 420.23 261.497 420.087 262.004 419.8C262.51 419.513 262.764 419.08 262.764 418.5C262.764 418.087 262.607 417.75 262.294 417.49C261.987 417.223 261.517 417.07 260.884 417.03L257.984 416.84C257.724 416.827 257.454 416.893 257.174 417.04C256.894 417.18 256.654 417.377 256.454 417.63C256.26 417.883 256.164 418.17 256.164 418.49C256.164 419.037 256.46 419.463 257.054 419.77C257.654 420.077 258.574 420.23 259.814 420.23ZM259.494 412.85C260.24 412.85 260.84 412.677 261.294 412.33C261.754 411.983 261.984 411.47 261.984 410.79C261.984 410.09 261.754 409.557 261.294 409.19C260.84 408.823 260.24 408.64 259.494 408.64C258.74 408.64 258.13 408.827 257.664 409.2C257.204 409.567 256.974 410.097 256.974 410.79C256.974 411.443 257.194 411.95 257.634 412.31C258.074 412.67 258.694 412.85 259.494 412.85ZM280.118 407.66L276.388 418H274.708L270.968 407.66H272.708L275.458 415.68H275.628L278.388 407.66H280.118ZM284.096 407.66V418H282.306V407.66H284.096ZM284.136 403.55V405.47H282.246V403.55H284.136ZM288.67 413.26C288.67 413.913 288.777 414.507 288.99 415.04C289.21 415.567 289.54 415.987 289.98 416.3C290.427 416.613 290.984 416.77 291.65 416.77C292.31 416.77 292.877 416.617 293.35 416.31C293.83 416.003 294.137 415.56 294.27 414.98H296.02C295.894 415.68 295.614 416.27 295.18 416.75C294.747 417.23 294.224 417.593 293.61 417.84C292.997 418.08 292.357 418.2 291.69 418.2C290.724 418.2 289.874 417.99 289.14 417.57C288.407 417.15 287.834 416.547 287.42 415.76C287.007 414.973 286.8 414.03 286.8 412.93C286.8 411.843 286.987 410.89 287.36 410.07C287.734 409.25 288.274 408.61 288.98 408.15C289.694 407.69 290.55 407.46 291.55 407.46C292.524 407.46 293.347 407.67 294.02 408.09C294.694 408.51 295.204 409.103 295.55 409.87C295.904 410.63 296.08 411.533 296.08 412.58V413.26H288.67ZM288.68 412.01H294.3C294.3 411.417 294.2 410.883 294 410.41C293.8 409.93 293.494 409.553 293.08 409.28C292.674 409 292.16 408.86 291.54 408.86C290.894 408.86 290.357 409.017 289.93 409.33C289.51 409.637 289.194 410.033 288.98 410.52C288.774 411 288.674 411.497 288.68 412.01ZM290.63 421.59V419.8H292.5V421.59H290.63ZM292.95 406.45L291.55 405.15L290.04 406.45H288.4L290.91 404.2H292.23L294.69 406.45H292.95ZM302.74 407.46C303.48 407.46 304.147 407.603 304.74 407.89C305.333 408.17 305.817 408.57 306.19 409.09C306.57 409.61 306.807 410.223 306.9 410.93H305.26C305.2 410.57 305.06 410.24 304.84 409.94C304.627 409.64 304.343 409.4 303.99 409.22C303.637 409.04 303.223 408.95 302.75 408.95C301.863 408.95 301.143 409.27 300.59 409.91C300.037 410.55 299.76 411.53 299.76 412.85C299.76 414.043 300.013 415 300.52 415.72C301.033 416.433 301.787 416.79 302.78 416.79C303.253 416.79 303.663 416.7 304.01 416.52C304.363 416.333 304.647 416.09 304.86 415.79C305.073 415.483 305.21 415.157 305.27 414.81H306.88C306.793 415.503 306.56 416.103 306.18 416.61C305.8 417.117 305.313 417.51 304.72 417.79C304.133 418.063 303.473 418.2 302.74 418.2C301.813 418.2 300.99 417.997 300.27 417.59C299.557 417.183 298.997 416.583 298.59 415.79C298.183 414.997 297.98 414.023 297.98 412.87C297.98 411.79 298.163 410.847 298.53 410.04C298.903 409.227 299.443 408.593 300.15 408.14C300.863 407.687 301.727 407.46 302.74 407.46ZM319.655 407.66V409.01H317.145V418H315.285V409.01H313.105V407.66H315.285V406.06C315.285 405.24 315.495 404.617 315.915 404.19C316.335 403.757 316.962 403.54 317.795 403.54H319.745L319.755 404.85H318.205C317.785 404.85 317.498 404.963 317.345 405.19C317.192 405.417 317.115 405.76 317.115 406.22V407.66H319.655ZM321.94 418V407.66H323.7V409.65C323.873 409.157 324.117 408.75 324.43 408.43C324.743 408.103 325.1 407.86 325.5 407.7C325.907 407.54 326.327 407.46 326.76 407.46C326.913 407.46 327.063 407.47 327.21 407.49C327.357 407.51 327.47 407.543 327.55 407.59V409.38C327.45 409.333 327.32 409.303 327.16 409.29C327.007 409.27 326.877 409.26 326.77 409.26C326.357 409.233 325.97 409.26 325.61 409.34C325.25 409.413 324.933 409.543 324.66 409.73C324.387 409.917 324.17 410.163 324.01 410.47C323.857 410.77 323.78 411.137 323.78 411.57V418H321.94ZM330.799 413.26C330.799 413.913 330.906 414.507 331.119 415.04C331.339 415.567 331.669 415.987 332.109 416.3C332.556 416.613 333.113 416.77 333.779 416.77C334.439 416.77 335.006 416.617 335.479 416.31C335.959 416.003 336.266 415.56 336.399 414.98H338.149C338.023 415.68 337.743 416.27 337.309 416.75C336.876 417.23 336.353 417.593 335.739 417.84C335.126 418.08 334.486 418.2 333.819 418.2C332.853 418.2 332.003 417.99 331.269 417.57C330.536 417.15 329.963 416.547 329.549 415.76C329.136 414.973 328.929 414.03 328.929 412.93C328.929 411.843 329.116 410.89 329.489 410.07C329.863 409.25 330.403 408.61 331.109 408.15C331.823 407.69 332.679 407.46 333.679 407.46C334.653 407.46 335.476 407.67 336.149 408.09C336.823 408.51 337.333 409.103 337.679 409.87C338.033 410.63 338.209 411.533 338.209 412.58V413.26H330.799ZM330.809 412.01H336.429C336.429 411.417 336.329 410.883 336.129 410.41C335.929 409.93 335.623 409.553 335.209 409.28C334.803 409 334.289 408.86 333.669 408.86C333.023 408.86 332.486 409.017 332.059 409.33C331.639 409.637 331.323 410.033 331.109 410.52C330.903 411 330.803 411.497 330.809 412.01ZM342.069 413.26C342.069 413.913 342.175 414.507 342.389 415.04C342.609 415.567 342.939 415.987 343.379 416.3C343.825 416.613 344.382 416.77 345.049 416.77C345.709 416.77 346.275 416.617 346.749 416.31C347.229 416.003 347.535 415.56 347.669 414.98H349.419C349.292 415.68 349.012 416.27 348.579 416.75C348.145 417.23 347.622 417.593 347.009 417.84C346.395 418.08 345.755 418.2 345.089 418.2C344.122 418.2 343.272 417.99 342.539 417.57C341.805 417.15 341.232 416.547 340.819 415.76C340.405 414.973 340.199 414.03 340.199 412.93C340.199 411.843 340.385 410.89 340.759 410.07C341.132 409.25 341.672 408.61 342.379 408.15C343.092 407.69 343.949 407.46 344.949 407.46C345.922 407.46 346.745 407.67 347.419 408.09C348.092 408.51 348.602 409.103 348.949 409.87C349.302 410.63 349.479 411.533 349.479 412.58V413.26H342.069ZM342.079 412.01H347.699C347.699 411.417 347.599 410.883 347.399 410.41C347.199 409.93 346.892 409.553 346.479 409.28C346.072 409 345.559 408.86 344.939 408.86C344.292 408.86 343.755 409.017 343.329 409.33C342.909 409.637 342.592 410.033 342.379 410.52C342.172 411 342.072 411.497 342.079 412.01ZM354.628 418.13C354.068 418.13 353.615 418.053 353.268 417.9C352.928 417.747 352.665 417.54 352.478 417.28C352.298 417.02 352.175 416.723 352.108 416.39C352.048 416.05 352.018 415.7 352.018 415.34V403.14H353.838V415.16C353.838 415.68 353.938 416.07 354.138 416.33C354.345 416.59 354.632 416.733 354.998 416.76L355.558 416.77V417.97C355.405 418.017 355.245 418.053 355.078 418.08C354.912 418.113 354.762 418.13 354.628 418.13ZM360.738 418.2C360.071 418.2 359.481 418.083 358.968 417.85C358.454 417.61 358.051 417.267 357.758 416.82C357.471 416.373 357.328 415.833 357.328 415.2C357.328 414.053 357.728 413.2 358.528 412.64C359.328 412.08 360.611 411.78 362.378 411.74L364.228 411.69V410.88C364.228 410.247 364.038 409.747 363.658 409.38C363.278 409.007 362.688 408.82 361.888 408.82C361.294 408.827 360.771 408.967 360.318 409.24C359.871 409.513 359.581 409.96 359.448 410.58H357.818C357.858 409.907 358.048 409.34 358.388 408.88C358.728 408.413 359.201 408.06 359.808 407.82C360.421 407.58 361.144 407.46 361.978 407.46C362.878 407.46 363.624 407.587 364.218 407.84C364.818 408.093 365.264 408.467 365.558 408.96C365.858 409.453 366.008 410.06 366.008 410.78V418H364.428L364.298 416.06C363.898 416.867 363.388 417.427 362.768 417.74C362.154 418.047 361.478 418.2 360.738 418.2ZM361.298 416.87C361.644 416.87 361.988 416.807 362.328 416.68C362.674 416.553 362.991 416.383 363.278 416.17C363.564 415.95 363.791 415.707 363.958 415.44C364.131 415.167 364.221 414.887 364.228 414.6V412.83L362.688 412.86C361.901 412.873 361.241 412.953 360.708 413.1C360.181 413.247 359.784 413.477 359.518 413.79C359.258 414.103 359.128 414.513 359.128 415.02C359.128 415.6 359.328 416.053 359.728 416.38C360.134 416.707 360.658 416.87 361.298 416.87ZM369.167 418V407.66H370.957V409.16C371.123 408.873 371.353 408.603 371.647 408.35C371.947 408.097 372.307 407.893 372.727 407.74C373.153 407.587 373.643 407.51 374.197 407.51C374.85 407.51 375.45 407.64 375.997 407.9C376.55 408.16 376.99 408.567 377.317 409.12C377.65 409.667 377.817 410.373 377.817 411.24V418H375.967V411.42C375.967 410.613 375.753 410.017 375.327 409.63C374.907 409.237 374.36 409.04 373.687 409.04C373.22 409.04 372.783 409.117 372.377 409.27C371.97 409.417 371.64 409.643 371.387 409.95C371.133 410.25 371.007 410.63 371.007 411.09V418H369.167ZM384.83 407.46C385.57 407.46 386.236 407.603 386.83 407.89C387.423 408.17 387.906 408.57 388.28 409.09C388.66 409.61 388.896 410.223 388.99 410.93H387.35C387.29 410.57 387.15 410.24 386.93 409.94C386.716 409.64 386.433 409.4 386.08 409.22C385.726 409.04 385.313 408.95 384.84 408.95C383.953 408.95 383.233 409.27 382.68 409.91C382.126 410.55 381.85 411.53 381.85 412.85C381.85 414.043 382.103 415 382.61 415.72C383.123 416.433 383.876 416.79 384.87 416.79C385.343 416.79 385.753 416.7 386.1 416.52C386.453 416.333 386.736 416.09 386.95 415.79C387.163 415.483 387.3 415.157 387.36 414.81H388.97C388.883 415.503 388.65 416.103 388.27 416.61C387.89 417.117 387.403 417.51 386.81 417.79C386.223 418.063 385.563 418.2 384.83 418.2C383.903 418.2 383.08 417.997 382.36 417.59C381.646 417.183 381.086 416.583 380.68 415.79C380.273 414.997 380.07 414.023 380.07 412.87C380.07 411.79 380.253 410.847 380.62 410.04C380.993 409.227 381.533 408.593 382.24 408.14C382.953 407.687 383.816 407.46 384.83 407.46ZM392.811 413.26C392.811 413.913 392.918 414.507 393.131 415.04C393.351 415.567 393.681 415.987 394.121 416.3C394.568 416.613 395.124 416.77 395.791 416.77C396.451 416.77 397.018 416.617 397.491 416.31C397.971 416.003 398.278 415.56 398.411 414.98H400.161C400.034 415.68 399.754 416.27 399.321 416.75C398.888 417.23 398.364 417.593 397.751 417.84C397.138 418.08 396.498 418.2 395.831 418.2C394.864 418.2 394.014 417.99 393.281 417.57C392.548 417.15 391.974 416.547 391.561 415.76C391.148 414.973 390.941 414.03 390.941 412.93C390.941 411.843 391.128 410.89 391.501 410.07C391.874 409.25 392.414 408.61 393.121 408.15C393.834 407.69 394.691 407.46 395.691 407.46C396.664 407.46 397.488 407.67 398.161 408.09C398.834 408.51 399.344 409.103 399.691 409.87C400.044 410.63 400.221 411.533 400.221 412.58V413.26H392.811ZM392.821 412.01H398.441C398.441 411.417 398.341 410.883 398.141 410.41C397.941 409.93 397.634 409.553 397.221 409.28C396.814 409 396.301 408.86 395.681 408.86C395.034 408.86 394.498 409.017 394.071 409.33C393.651 409.637 393.334 410.033 393.121 410.52C392.914 411 392.814 411.497 392.821 412.01Z" fill="#9D9D9D"/>
</g>
<g filter="url(#filter1_d_1754_24050)">
<rect x="322" y="5" width="203" height="129" rx="20" fill="white" shape-rendering="crispEdges"/>
<path d="M375.501 45.684V61.092H380.325C380.865 59.472 382.197 58.32 384.285 58.32C387.129 58.32 388.605 59.94 388.605 62.892C388.605 65.664 387.273 67.752 384.321 67.752C381.873 67.752 380.397 66.42 379.965 64.584H375.069C375.501 68.868 378.741 72 384.393 72C390.369 72 393.465 68.184 393.465 62.82C393.465 58.752 391.377 54.144 385.257 54.144C383.061 54.144 381.081 55.08 380.109 56.268V50.112H391.773V45.684H375.501ZM397.301 58.536C397.301 66.204 399.605 71.928 407.021 71.928C414.437 71.928 416.741 66.204 416.741 58.536C416.741 50.94 414.437 45.252 407.021 45.252C399.605 45.252 397.301 50.94 397.301 58.536ZM411.773 58.536C411.773 63.216 411.269 67.248 407.021 67.248C402.773 67.248 402.269 63.216 402.269 58.536C402.269 54.036 402.773 49.932 407.021 49.932C411.269 49.932 411.773 54.036 411.773 58.536ZM420.574 58.536C420.574 66.204 422.878 71.928 430.294 71.928C437.71 71.928 440.014 66.204 440.014 58.536C440.014 50.94 437.71 45.252 430.294 45.252C422.878 45.252 420.574 50.94 420.574 58.536ZM435.046 58.536C435.046 63.216 434.542 67.248 430.294 67.248C426.046 67.248 425.542 63.216 425.542 58.536C425.542 54.036 426.046 49.932 430.294 49.932C434.542 49.932 435.046 54.036 435.046 58.536ZM451.695 50.004V56.988H444.891V61.38H451.695V68.364H456.447V61.38H463.251V56.988H456.447V50.004H451.695Z" fill="#00AB55"/>
<path d="M377.433 89.66V91.01H374.923V100H373.063V91.01H370.883V89.66H373.063V88.06C373.063 87.24 373.273 86.6167 373.693 86.19C374.113 85.7567 374.739 85.54 375.572 85.54H377.523L377.533 86.85H375.983C375.563 86.85 375.276 86.9633 375.123 87.19C374.969 87.4167 374.893 87.76 374.893 88.22V89.66H377.433ZM379.718 100V89.66H381.478V91.65C381.651 91.1567 381.894 90.75 382.208 90.43C382.521 90.1033 382.878 89.86 383.278 89.7C383.684 89.54 384.104 89.46 384.538 89.46C384.691 89.46 384.841 89.47 384.988 89.49C385.134 89.51 385.248 89.5433 385.328 89.59V91.38C385.228 91.3333 385.098 91.3033 384.938 91.29C384.784 91.27 384.654 91.26 384.548 91.26C384.134 91.2333 383.748 91.26 383.388 91.34C383.028 91.4133 382.711 91.5433 382.438 91.73C382.164 91.9167 381.948 92.1633 381.788 92.47C381.634 92.77 381.558 93.1367 381.558 93.57V100H379.718ZM388.577 95.26C388.577 95.9133 388.683 96.5067 388.897 97.04C389.117 97.5667 389.447 97.9867 389.887 98.3C390.333 98.6133 390.89 98.77 391.557 98.77C392.217 98.77 392.783 98.6167 393.257 98.31C393.737 98.0033 394.043 97.56 394.177 96.98H395.927C395.8 97.68 395.52 98.27 395.087 98.75C394.653 99.23 394.13 99.5933 393.517 99.84C392.903 100.08 392.263 100.2 391.597 100.2C390.63 100.2 389.78 99.99 389.047 99.57C388.313 99.15 387.74 98.5467 387.327 97.76C386.913 96.9733 386.707 96.03 386.707 94.93C386.707 93.8433 386.893 92.89 387.267 92.07C387.64 91.25 388.18 90.61 388.887 90.15C389.6 89.69 390.457 89.46 391.457 89.46C392.43 89.46 393.253 89.67 393.927 90.09C394.6 90.51 395.11 91.1033 395.457 91.87C395.81 92.63 395.987 93.5333 395.987 94.58V95.26H388.577ZM388.587 94.01H394.207C394.207 93.4167 394.107 92.8833 393.907 92.41C393.707 91.93 393.4 91.5533 392.987 91.28C392.58 91 392.067 90.86 391.447 90.86C390.8 90.86 390.263 91.0167 389.837 91.33C389.417 91.6367 389.1 92.0333 388.887 92.52C388.68 93 388.58 93.4967 388.587 94.01ZM399.846 95.26C399.846 95.9133 399.953 96.5067 400.166 97.04C400.386 97.5667 400.716 97.9867 401.156 98.3C401.603 98.6133 402.159 98.77 402.826 98.77C403.486 98.77 404.053 98.6167 404.526 98.31C405.006 98.0033 405.313 97.56 405.446 96.98H407.196C407.069 97.68 406.789 98.27 406.356 98.75C405.923 99.23 405.399 99.5933 404.786 99.84C404.173 100.08 403.533 100.2 402.866 100.2C401.899 100.2 401.049 99.99 400.316 99.57C399.583 99.15 399.009 98.5467 398.596 97.76C398.183 96.9733 397.976 96.03 397.976 94.93C397.976 93.8433 398.163 92.89 398.536 92.07C398.909 91.25 399.449 90.61 400.156 90.15C400.869 89.69 401.726 89.46 402.726 89.46C403.699 89.46 404.523 89.67 405.196 90.09C405.869 90.51 406.379 91.1033 406.726 91.87C407.079 92.63 407.256 93.5333 407.256 94.58V95.26H399.846ZM399.856 94.01H405.476C405.476 93.4167 405.376 92.8833 405.176 92.41C404.976 91.93 404.669 91.5533 404.256 91.28C403.849 91 403.336 90.86 402.716 90.86C402.069 90.86 401.533 91.0167 401.106 91.33C400.686 91.6367 400.369 92.0333 400.156 92.52C399.949 93 399.849 93.4967 399.856 94.01ZM412.406 100.13C411.846 100.13 411.392 100.053 411.046 99.9C410.706 99.7467 410.442 99.54 410.256 99.28C410.076 99.02 409.952 98.7233 409.886 98.39C409.826 98.05 409.796 97.7 409.796 97.34V85.14H411.616V97.16C411.616 97.68 411.716 98.07 411.916 98.33C412.122 98.59 412.409 98.7333 412.776 98.76L413.336 98.77V99.97C413.182 100.017 413.022 100.053 412.856 100.08C412.689 100.113 412.539 100.13 412.406 100.13ZM418.515 100.2C417.848 100.2 417.258 100.083 416.745 99.85C416.232 99.61 415.828 99.2667 415.535 98.82C415.248 98.3733 415.105 97.8333 415.105 97.2C415.105 96.0533 415.505 95.2 416.305 94.64C417.105 94.08 418.388 93.78 420.155 93.74L422.005 93.69V92.88C422.005 92.2467 421.815 91.7467 421.435 91.38C421.055 91.0067 420.465 90.82 419.665 90.82C419.072 90.8267 418.548 90.9667 418.095 91.24C417.648 91.5133 417.358 91.96 417.225 92.58H415.595C415.635 91.9067 415.825 91.34 416.165 90.88C416.505 90.4133 416.978 90.06 417.585 89.82C418.198 89.58 418.922 89.46 419.755 89.46C420.655 89.46 421.402 89.5867 421.995 89.84C422.595 90.0933 423.042 90.4667 423.335 90.96C423.635 91.4533 423.785 92.06 423.785 92.78V100H422.205L422.075 98.06C421.675 98.8667 421.165 99.4267 420.545 99.74C419.932 100.047 419.255 100.2 418.515 100.2ZM419.075 98.87C419.422 98.87 419.765 98.8067 420.105 98.68C420.452 98.5533 420.768 98.3833 421.055 98.17C421.342 97.95 421.568 97.7067 421.735 97.44C421.908 97.1667 421.998 96.8867 422.005 96.6V94.83L420.465 94.86C419.678 94.8733 419.018 94.9533 418.485 95.1C417.958 95.2467 417.562 95.4767 417.295 95.79C417.035 96.1033 416.905 96.5133 416.905 97.02C416.905 97.6 417.105 98.0533 417.505 98.38C417.912 98.7067 418.435 98.87 419.075 98.87ZM426.944 100V89.66H428.734V91.16C428.901 90.8733 429.131 90.6033 429.424 90.35C429.724 90.0967 430.084 89.8933 430.504 89.74C430.931 89.5867 431.421 89.51 431.974 89.51C432.627 89.51 433.227 89.64 433.774 89.9C434.327 90.16 434.767 90.5667 435.094 91.12C435.427 91.6667 435.594 92.3733 435.594 93.24V100H433.744V93.42C433.744 92.6133 433.531 92.0167 433.104 91.63C432.684 91.2367 432.137 91.04 431.464 91.04C430.997 91.04 430.561 91.1167 430.154 91.27C429.747 91.4167 429.417 91.6433 429.164 91.95C428.911 92.25 428.784 92.63 428.784 93.09V100H426.944ZM442.607 89.46C443.347 89.46 444.014 89.6033 444.607 89.89C445.2 90.17 445.684 90.57 446.057 91.09C446.437 91.61 446.674 92.2233 446.767 92.93H445.127C445.067 92.57 444.927 92.24 444.707 91.94C444.494 91.64 444.21 91.4 443.857 91.22C443.504 91.04 443.09 90.95 442.617 90.95C441.73 90.95 441.01 91.27 440.457 91.91C439.904 92.55 439.627 93.53 439.627 94.85C439.627 96.0433 439.88 97 440.387 97.72C440.9 98.4333 441.654 98.79 442.647 98.79C443.12 98.79 443.53 98.7 443.877 98.52C444.23 98.3333 444.514 98.09 444.727 97.79C444.94 97.4833 445.077 97.1567 445.137 96.81H446.747C446.66 97.5033 446.427 98.1033 446.047 98.61C445.667 99.1167 445.18 99.51 444.587 99.79C444 100.063 443.34 100.2 442.607 100.2C441.68 100.2 440.857 99.9967 440.137 99.59C439.424 99.1833 438.864 98.5833 438.457 97.79C438.05 96.9967 437.847 96.0233 437.847 94.87C437.847 93.79 438.03 92.8467 438.397 92.04C438.77 91.2267 439.31 90.5933 440.017 90.14C440.73 89.6867 441.594 89.46 442.607 89.46ZM450.588 95.26C450.588 95.9133 450.695 96.5067 450.908 97.04C451.128 97.5667 451.458 97.9867 451.898 98.3C452.345 98.6133 452.902 98.77 453.568 98.77C454.228 98.77 454.795 98.6167 455.268 98.31C455.748 98.0033 456.055 97.56 456.188 96.98H457.938C457.812 97.68 457.532 98.27 457.098 98.75C456.665 99.23 456.142 99.5933 455.528 99.84C454.915 100.08 454.275 100.2 453.608 100.2C452.642 100.2 451.792 99.99 451.058 99.57C450.325 99.15 449.752 98.5467 449.338 97.76C448.925 96.9733 448.718 96.03 448.718 94.93C448.718 93.8433 448.905 92.89 449.278 92.07C449.652 91.25 450.192 90.61 450.898 90.15C451.612 89.69 452.468 89.46 453.468 89.46C454.442 89.46 455.265 89.67 455.938 90.09C456.612 90.51 457.122 91.1033 457.468 91.87C457.822 92.63 457.998 93.5333 457.998 94.58V95.26H450.588ZM450.598 94.01H456.218C456.218 93.4167 456.118 92.8833 455.918 92.41C455.718 91.93 455.412 91.5533 454.998 91.28C454.592 91 454.078 90.86 453.458 90.86C452.812 90.86 452.275 91.0167 451.848 91.33C451.428 91.6367 451.112 92.0333 450.898 92.52C450.692 93 450.592 93.4967 450.598 94.01ZM460.538 100V89.66H462.298V91.65C462.471 91.1567 462.714 90.75 463.028 90.43C463.341 90.1033 463.698 89.86 464.098 89.7C464.504 89.54 464.924 89.46 465.358 89.46C465.511 89.46 465.661 89.47 465.808 89.49C465.954 89.51 466.068 89.5433 466.148 89.59V91.38C466.048 91.3333 465.918 91.3033 465.758 91.29C465.604 91.27 465.474 91.26 465.368 91.26C464.954 91.2333 464.568 91.26 464.208 91.34C463.848 91.4133 463.531 91.5433 463.258 91.73C462.984 91.9167 462.768 92.1633 462.608 92.47C462.454 92.77 462.378 93.1367 462.378 93.57V100H460.538ZM471.903 100.2C471.183 100.2 470.513 100.09 469.893 99.87C469.28 99.6433 468.77 99.2933 468.363 98.82C467.956 98.34 467.7 97.73 467.593 96.99H469.273C469.366 97.3967 469.533 97.7367 469.773 98.01C470.02 98.2767 470.326 98.48 470.693 98.62C471.06 98.7533 471.46 98.82 471.893 98.82C472.586 98.82 473.146 98.69 473.573 98.43C474 98.17 474.213 97.77 474.213 97.23C474.213 96.85 474.1 96.5467 473.873 96.32C473.653 96.0867 473.31 95.9167 472.843 95.81L470.703 95.28C469.87 95.08 469.203 94.7667 468.703 94.34C468.203 93.9133 467.953 93.3167 467.953 92.55C467.946 91.9433 468.09 91.41 468.383 90.95C468.676 90.49 469.116 90.1267 469.703 89.86C470.29 89.5933 471.02 89.46 471.893 89.46C473.013 89.46 473.916 89.7133 474.603 90.22C475.296 90.72 475.656 91.4567 475.683 92.43H474.053C473.986 91.9367 473.763 91.5467 473.383 91.26C473.01 90.9667 472.506 90.82 471.873 90.82C471.213 90.82 470.676 90.9533 470.263 91.22C469.85 91.48 469.643 91.8867 469.643 92.44C469.643 92.8067 469.79 93.0967 470.083 93.31C470.376 93.5167 470.81 93.69 471.383 93.83L473.453 94.35C473.933 94.4767 474.326 94.6433 474.633 94.85C474.946 95.0567 475.193 95.2867 475.373 95.54C475.56 95.7933 475.69 96.06 475.763 96.34C475.843 96.6133 475.883 96.8767 475.883 97.13C475.883 97.7633 475.723 98.31 475.403 98.77C475.09 99.2233 474.636 99.5767 474.043 99.83C473.456 100.077 472.743 100.2 471.903 100.2Z" fill="#9D9D9D"/>
</g>
<defs>
<filter id="filter0_d_1754_24050" x="96" y="322" width="343" height="133" filterUnits="userSpaceOnUse" color-interpolation-filters="sRGB">
<feFlood flood-opacity="0" result="BackgroundImageFix"/>
<feColorMatrix in="SourceAlpha" type="matrix" values="0 0 0 0 0 0 0 0 0 0 0 0 0 0 0 0 0 0 127 0" result="hardAlpha"/>
<feOffset dy="1"/>
<feGaussianBlur stdDeviation="3"/>
<feComposite in2="hardAlpha" operator="out"/>
<feColorMatrix type="matrix" values="0 0 0 0 0 0 0 0 0 0 0 0 0 0 0 0 0 0 0.1 0"/>
<feBlend mode="normal" in2="BackgroundImageFix" result="effect1_dropShadow_1754_24050"/>
<feBlend mode="normal" in="SourceGraphic" in2="effect1_dropShadow_1754_24050" result="shape"/>
</filter>
<filter id="filter1_d_1754_24050" x="316" y="0" width="215" height="141" filterUnits="userSpaceOnUse" color-interpolation-filters="sRGB">
<feFlood flood-opacity="0" result="BackgroundImageFix"/>
<feColorMatrix in="SourceAlpha" type="matrix" values="0 0 0 0 0 0 0 0 0 0 0 0 0 0 0 0 0 0 127 0" result="hardAlpha"/>
<feOffset dy="1"/>
<feGaussianBlur stdDeviation="3"/>
<feComposite in2="hardAlpha" operator="out"/>
<feColorMatrix type="matrix" values="0 0 0 0 0 0 0 0 0 0 0 0 0 0 0 0 0 0 0.1 0"/>
<feBlend mode="normal" in2="BackgroundImageFix" result="effect1_dropShadow_1754_24050"/>
<feBlend mode="normal" in="SourceGraphic" in2="effect1_dropShadow_1754_24050" result="shape"/>
</filter>
</defs>
</svg>
