<svg width="680" height="680" viewBox="0 0 680 680" fill="none" xmlns="http://www.w3.org/2000/svg">
<circle cx="304" cy="301" r="203" fill="#00AB55" fill-opacity="0.08"/>
<path opacity="0.2" d="M380.379 528.793L378.39 528.577C377.468 528.519 376.597 528.135 375.934 527.494C375.27 526.852 374.857 525.995 374.769 525.077C373.688 513.658 363.83 505.632 350.988 504.174C339.433 502.877 326.126 507.976 317.392 516.705C316.305 517.857 314.977 518.756 313.503 519.339C312.03 519.921 310.446 520.173 308.864 520.075L299.027 518.995C297.675 518.885 296.393 518.344 295.371 517.451C294.35 516.558 293.642 515.361 293.352 514.036C291.039 504.055 282.089 496.46 270.523 495.164C257.692 493.727 243.251 499.042 234.711 509.38C234.035 510.216 233.167 510.876 232.181 511.304C231.195 511.733 230.12 511.918 229.047 511.843L227.069 511.617C226.602 511.59 226.138 511.715 225.748 511.975C225.358 512.234 225.063 512.612 224.907 513.053L223.275 517.817C223.141 518.133 223.138 518.488 223.266 518.806C223.393 519.123 223.641 519.378 223.956 519.513L226.204 520.594C227.072 521.029 227.762 521.751 228.156 522.638C228.55 523.524 228.624 524.52 228.366 525.455C224.788 540.914 233.771 554.309 249.65 556.081C264.934 557.798 281.462 548.13 288.802 533.913C289.415 532.765 290.304 531.785 291.388 531.063C292.473 530.341 293.72 529.899 295.017 529.776C298.52 529.483 302.047 529.849 305.416 530.856C306.494 531.174 307.412 531.887 307.987 532.853C308.562 533.818 308.752 534.964 308.518 536.063C305.88 550.841 314.798 563.394 330.137 565.112C345.994 566.894 363.17 556.47 370.077 541.346C370.577 540.318 371.307 539.419 372.211 538.718C373.114 538.017 374.167 537.534 375.288 537.305L378.109 536.755C378.501 536.695 378.871 536.531 379.179 536.28C379.487 536.029 379.722 535.701 379.86 535.329L381.492 530.565C381.57 530.375 381.601 530.17 381.584 529.966C381.566 529.763 381.5 529.566 381.392 529.392C381.283 529.219 381.134 529.074 380.958 528.97C380.782 528.866 380.583 528.805 380.379 528.793ZM251.001 552.084C236.268 550.431 228.355 537.219 233.36 522.625C238.365 508.03 254.417 497.519 269.15 499.172C283.883 500.825 291.85 514.036 286.802 528.62C281.754 543.204 265.734 553.79 251.001 552.084ZM291.698 526.233C291.904 525.39 292.077 524.547 292.207 523.716C292.285 523.371 292.484 523.066 292.767 522.854C293.05 522.642 293.399 522.538 293.752 522.56L311.393 524.537C311.549 524.552 311.699 524.607 311.827 524.697C311.955 524.786 312.058 524.908 312.126 525.049C312.193 525.191 312.223 525.347 312.212 525.503C312.201 525.66 312.15 525.81 312.063 525.941C311.642 526.73 311.253 527.529 310.885 528.35C303.773 524.828 295.925 525.466 291.698 526.233ZM331.477 561.115C316.744 559.462 308.777 546.25 313.825 531.656C318.873 517.061 334.893 506.55 349.626 508.203C364.359 509.856 372.272 523.067 367.267 537.651C362.262 552.235 346.21 562.768 331.477 561.115Z" fill="black" fill-opacity="0.7"/>
<path d="M367.321 529.657L252.914 524.85C250.214 524.738 247.519 525.193 245.005 526.187C242.492 527.181 240.215 528.69 238.322 530.619L217.784 551.533C217.595 551.728 217.452 551.964 217.366 552.222C217.281 552.479 217.254 552.753 217.288 553.023C217.322 553.292 217.417 553.551 217.564 553.779C217.712 554.007 217.909 554.2 218.141 554.342C219.161 554.943 220.353 555.187 221.528 555.035C222.703 554.882 223.794 554.341 224.626 553.499L243.694 534.184C244.827 533.034 246.186 532.132 247.686 531.533C249.185 530.935 250.793 530.653 252.406 530.705L366.986 534.486L367.321 529.657Z" fill="#263238"/>
<path d="M214.844 512.578L327.932 530.489C330.602 530.915 333.153 531.895 335.421 533.367C337.688 534.839 339.622 536.769 341.097 539.034L357.095 563.599C357.246 563.826 357.342 564.083 357.378 564.353C357.413 564.622 357.387 564.896 357.3 565.153C357.213 565.41 357.069 565.645 356.878 565.838C356.687 566.031 356.455 566.178 356.198 566.268C355.076 566.668 353.851 566.679 352.722 566.298C351.592 565.918 350.624 565.169 349.972 564.172L335.185 541.486C334.303 540.135 333.15 538.981 331.8 538.098C330.449 537.214 328.929 536.621 327.337 536.355L214.303 517.385L214.844 512.578Z" fill="#263238"/>
<path d="M281.927 531.742C283.267 532.239 281.548 541.681 277.841 544.371C274.133 547.06 272.285 538.656 273.593 536.009C274.901 533.363 277.722 530.154 281.927 531.742Z" fill="#757575" stroke="#263238" stroke-linecap="round" stroke-linejoin="round"/>
<path d="M301.73 533.957C300.314 534.151 299.903 543.733 302.919 547.179C305.934 550.625 309.61 542.858 308.918 539.974C308.226 537.09 306.183 533.341 301.73 533.957Z" fill="#757575" stroke="#263238" stroke-linecap="round" stroke-linejoin="round"/>
<path opacity="0.4" d="M235.565 500.728C242.343 496.72 256.341 490.325 268.577 500.89C280.813 511.455 283.981 521.145 279.062 532.693C274.144 544.241 262.708 558.782 242.926 552.43C223.145 546.078 214.509 513.173 235.565 500.728Z" fill="white"/>
<path opacity="0.4" d="M315.966 510.818C322.754 506.81 336.741 500.415 348.977 510.98C361.214 521.545 364.392 531.224 359.463 542.783C354.533 554.342 343.14 568.915 323.327 562.509C303.513 556.103 294.898 523.262 315.966 510.818Z" fill="white"/>
<path d="M369.959 528.339L367.97 528.113C366.984 528.01 366.05 527.622 365.282 526.996C364.514 526.371 363.945 525.535 363.646 524.591C360.079 513.064 348.675 504.962 335.844 503.526C324.289 502.218 312.431 507.382 305.859 516.208C305.005 517.386 303.857 518.32 302.529 518.917C301.202 519.514 299.741 519.753 298.292 519.611L288.445 518.53C286.999 518.348 285.627 517.791 284.464 516.913C283.301 516.036 282.389 514.869 281.819 513.529C279.394 508.375 275.695 503.925 271.071 500.598C266.446 497.271 261.049 495.178 255.39 494.516C242.559 493.068 229.642 498.448 223.61 508.894C223.111 509.748 222.374 510.437 221.489 510.878C220.604 511.319 219.609 511.493 218.627 511.379L216.649 511.152C216.216 511.104 215.782 511.229 215.441 511.5C215.1 511.772 214.882 512.167 214.833 512.6L214.292 517.407C214.254 517.773 214.34 518.141 214.536 518.453C214.732 518.764 215.027 519.001 215.373 519.125L217.816 520.259C218.761 520.686 219.563 521.375 220.126 522.245C220.69 523.114 220.991 524.127 220.994 525.163C220.963 532.656 223.652 539.906 228.563 545.569C233.473 551.231 240.272 554.922 247.698 555.956C255.124 556.99 262.673 555.298 268.945 551.193C275.218 547.088 279.788 540.849 281.808 533.633C282.136 532.494 282.805 531.483 283.724 530.736C284.644 529.988 285.771 529.54 286.953 529.452C290.449 529.168 293.968 529.534 297.33 530.532C298.479 530.877 299.495 531.564 300.241 532.503C300.987 533.442 301.427 534.586 301.503 535.782C301.857 543.272 304.918 550.379 310.119 555.783C315.32 561.187 322.306 564.522 329.781 565.167C337.256 565.813 344.711 563.725 350.762 559.292C356.814 554.86 361.05 548.383 362.684 541.065C362.916 540.055 363.433 539.133 364.175 538.409C364.917 537.685 365.851 537.19 366.867 536.982L369.505 536.42C369.862 536.366 370.192 536.196 370.444 535.936C370.696 535.677 370.856 535.342 370.899 534.983L371.439 530.176C371.466 529.958 371.449 529.736 371.389 529.524C371.329 529.313 371.226 529.116 371.088 528.944C370.95 528.773 370.779 528.631 370.585 528.527C370.391 528.423 370.178 528.359 369.959 528.339ZM248.893 551.965C243.607 551.372 238.616 549.226 234.551 545.798C230.485 542.37 227.528 537.814 226.054 532.707C224.579 527.6 224.653 522.17 226.266 517.105C227.879 512.039 230.959 507.565 235.116 504.249C239.273 500.933 244.321 498.923 249.621 498.474C254.921 498.025 260.235 499.157 264.892 501.726C269.548 504.296 273.338 508.187 275.781 512.909C278.225 517.631 279.212 522.97 278.619 528.253C277.815 535.325 274.24 541.791 268.677 546.235C263.114 550.679 256.016 552.739 248.937 551.965H248.893ZM282.867 525.833C282.867 524.98 282.867 524.137 282.813 523.294C282.798 523.13 282.82 522.964 282.879 522.809C282.938 522.655 283.032 522.515 283.153 522.403C283.274 522.29 283.419 522.207 283.578 522.159C283.736 522.111 283.904 522.101 284.067 522.128L301.697 524.105C301.864 524.114 302.025 524.162 302.17 524.244C302.315 524.327 302.439 524.441 302.532 524.579C302.625 524.717 302.685 524.875 302.707 525.04C302.729 525.205 302.713 525.373 302.659 525.531C302.421 526.319 302.216 527.129 302.043 527.95C296.035 525.295 289.354 524.555 282.91 525.833H282.867ZM329.348 560.996C324.062 560.403 319.071 558.257 315.005 554.829C310.94 551.401 307.983 546.846 306.508 541.738C305.033 536.631 305.107 531.201 306.72 526.136C308.333 521.07 311.413 516.597 315.57 513.28C319.728 509.964 324.775 507.955 330.075 507.505C335.375 507.056 340.69 508.188 345.346 510.757C350.003 513.327 353.792 517.218 356.236 521.94C358.679 526.662 359.667 532.001 359.073 537.284C358.269 544.352 354.698 550.814 349.139 555.257C343.581 559.701 336.489 561.764 329.412 560.996H329.348Z" fill="#00AB55" stroke="#263238" stroke-linecap="round" stroke-linejoin="round"/>
<path opacity="0.5" d="M231.047 539.175C231.047 539.175 223.545 524.569 233.068 510.796C241.64 498.416 256.438 499.431 262.783 503.526L243.175 527.032C245.692 520.882 248.867 515.022 252.644 509.553C252.644 509.553 237.057 520.605 231.047 539.175Z" fill="white"/>
<path opacity="0.5" d="M311.458 547.417C311.458 547.417 303.967 532.812 313.49 519.049C322.051 506.658 336.86 507.674 343.205 511.768L323.586 535.275C326.364 526.071 333.055 517.796 333.055 517.796C333.055 517.796 317.468 528.847 311.458 547.417Z" fill="white"/>
<path opacity="0.2" d="M238.83 432.898C238.83 432.898 216.962 460.023 215.438 461.73C213.914 463.437 214.357 490.897 210.617 503.267C206.877 515.636 193.971 528.34 165.12 590.952L161.229 468.968L182.491 384.004L238.83 432.898Z" fill="black" fill-opacity="0.7"/>
<path d="M254.882 431.72C254.882 431.72 240.44 365.434 229.026 357.181C222.41 352.406 212.433 350.699 203.721 351.531C197.419 352.125 191.766 354.059 188.588 357.138C180.935 364.473 169.855 368.762 164.472 373.526C159.089 378.29 160.018 394.051 157.176 407.533C154.333 421.014 149.112 421.771 148.69 435.134C148.269 448.497 145.826 489.504 137.729 501.311C129.633 513.119 129.947 521.988 126.996 533.719C124.045 545.451 99.9723 588.554 99.9723 588.554L165.423 598.082C165.423 598.082 170.19 571.334 175.768 549.47C178.405 539.088 181.172 529.787 183.713 524.948C188.542 515.607 192.63 505.901 195.938 495.921C202.813 487.829 205.807 470.61 206.142 455.68L222.886 444.997C235.976 440.567 254.882 431.72 254.882 431.72Z" fill="white"/>
<path opacity="0.4" d="M254.882 431.72C254.882 431.72 240.44 365.434 229.026 357.181C222.41 352.406 212.433 350.699 203.721 351.531C183.334 357.937 178.448 369.788 175.811 372.737C172.298 376.68 168.731 399.625 172.201 412.707C175.67 425.789 174.027 430.726 172.201 437.294C168.115 451.856 183.594 458.651 185.464 463.955C187.334 469.259 188.555 499.496 182.405 509.716C179.162 515.117 171.466 542.642 175.779 549.524C178.416 539.142 181.183 529.841 183.723 525.002C188.553 515.661 192.641 505.955 195.949 495.975C202.824 487.883 205.818 470.664 206.153 455.734L222.897 445.051C235.976 440.567 254.882 431.72 254.882 431.72Z" fill="#00AB55"/>
<path d="M176.124 441.129C176.124 441.129 172.222 437.056 169.001 437.24" stroke="#263238" stroke-linecap="round" stroke-linejoin="round"/>
<path d="M183.215 426.167C183.215 426.167 178.794 418.065 172.406 416.618" stroke="#263238" stroke-linecap="round" stroke-linejoin="round"/>
<path d="M173.433 377.706C173.433 377.706 182.524 381.012 184.318 387.429" stroke="#263238" stroke-linecap="round" stroke-linejoin="round"/>
<path d="M222.886 444.986C222.886 444.986 220.497 442.296 220.367 440.081" stroke="#263238" stroke-linecap="round" stroke-linejoin="round"/>
<path d="M165.423 598.082C165.423 598.082 175.887 540.039 183.713 525.002C188.542 515.661 192.63 505.955 195.938 495.975C202.813 487.884 205.807 470.653 206.142 455.724L222.886 445.04C235.976 440.622 254.882 431.817 254.882 431.817C254.882 431.817 240.44 365.532 229.026 357.278C217.611 349.025 196.219 349.911 188.544 357.278C180.87 364.646 169.812 368.837 164.429 373.601C159.046 378.365 159.975 394.127 157.132 407.608C154.289 421.09 149.069 421.846 148.647 435.209C148.225 448.572 145.782 489.58 137.686 501.387C129.59 513.194 129.903 522.063 126.953 533.795C124.002 545.527 99.929 588.63 99.929 588.63" stroke="#263238" stroke-linecap="round" stroke-linejoin="round"/>
<path d="M153.653 228.646L151.714 211.253C151.682 210.968 151.765 210.682 151.944 210.459C152.123 210.235 152.383 210.091 152.668 210.06L160.027 209.24L162.205 228.769L154.846 229.589C154.563 229.62 154.279 229.539 154.056 229.362C153.832 229.186 153.688 228.928 153.653 228.646Z" fill="#00AB55" stroke="#263238" stroke-linecap="round" stroke-linejoin="round"/>
<path d="M187.073 182.481L204.476 180.542C204.761 180.511 205.047 180.593 205.271 180.772C205.495 180.951 205.638 181.212 205.67 181.496L206.49 188.851L186.938 191.029L186.117 183.663C186.088 183.38 186.172 183.097 186.351 182.876C186.53 182.654 186.79 182.512 187.073 182.481Z" fill="#00AB55" stroke="#263238" stroke-linecap="round" stroke-linejoin="round"/>
<path d="M210.318 179.924L227.722 177.985C228.007 177.954 228.293 178.036 228.516 178.215C228.74 178.394 228.884 178.655 228.916 178.939L229.736 186.294L210.195 188.47L209.375 181.116C209.343 180.831 209.426 180.546 209.605 180.322C209.784 180.098 210.044 179.955 210.329 179.923L210.318 179.924Z" fill="#00AB55" stroke="#263238" stroke-linecap="round" stroke-linejoin="round"/>
<path d="M179.475 442.447L153.652 210.739C152.992 204.832 154.705 198.906 158.414 194.26C162.122 189.614 167.524 186.628 173.433 185.958L510.686 148.407C513.622 148.074 516.594 148.322 519.433 149.139C522.272 149.955 524.923 151.323 527.232 153.164C529.541 155.006 531.465 157.284 532.892 159.869C534.318 162.455 535.221 165.296 535.548 168.23L561.371 399.938C562.03 405.854 560.31 411.79 556.591 416.439C552.871 421.088 547.456 424.071 541.536 424.73L204.283 462.27C201.351 462.597 198.384 462.344 195.551 461.525C192.717 460.706 190.073 459.337 187.769 457.496C185.465 455.655 183.547 453.378 182.124 450.796C180.701 448.214 179.801 445.377 179.475 442.447Z" fill="#00AB55" stroke="#263238" stroke-linecap="round" stroke-linejoin="round"/>
<path d="M541.536 421.792L203.634 459.407C198.57 459.968 193.491 458.497 189.512 455.317C185.533 452.137 182.981 447.507 182.416 442.447L156.473 210.102C155.908 205.039 157.379 199.96 160.562 195.981C163.744 192.002 168.378 189.45 173.444 188.885L511.389 151.281C516.451 150.717 521.531 152.185 525.51 155.364C529.49 158.543 532.043 163.171 532.608 168.23L558.55 400.576C558.828 403.085 558.608 405.625 557.903 408.05C557.199 410.475 556.022 412.737 554.442 414.707C552.862 416.678 550.909 418.318 548.695 419.533C546.48 420.749 544.048 421.516 541.536 421.792Z" fill="#757575" stroke="#263238" stroke-linecap="round" stroke-linejoin="round"/>
<path d="M175.033 325.648C175.063 325.821 175.059 325.998 175.018 326.169C174.978 326.34 174.903 326.5 174.798 326.641C174.693 326.782 174.56 326.9 174.408 326.987C174.256 327.075 174.087 327.13 173.912 327.15C173.738 327.17 173.561 327.154 173.393 327.103C173.225 327.052 173.069 326.968 172.935 326.854C172.801 326.741 172.692 326.601 172.614 326.444C172.536 326.286 172.491 326.115 172.482 325.939C172.451 325.767 172.456 325.589 172.496 325.419C172.537 325.248 172.612 325.087 172.717 324.946C172.822 324.805 172.954 324.688 173.107 324.6C173.259 324.512 173.427 324.457 173.602 324.437C173.776 324.417 173.953 324.433 174.121 324.484C174.289 324.535 174.445 324.62 174.579 324.733C174.713 324.847 174.823 324.986 174.901 325.144C174.979 325.301 175.024 325.472 175.033 325.648Z" fill="#999999" stroke="#263238" stroke-linecap="round" stroke-linejoin="round"/>
<path d="M177.497 337.131C177.552 337.613 177.462 338.1 177.24 338.531C177.017 338.963 176.672 339.318 176.247 339.553C175.823 339.788 175.338 339.891 174.854 339.851C174.37 339.81 173.91 339.627 173.53 339.325C173.15 339.023 172.869 338.615 172.722 338.153C172.574 337.691 172.567 337.195 172.701 336.729C172.835 336.263 173.105 335.847 173.476 335.534C173.846 335.221 174.302 335.025 174.784 334.971C175.431 334.898 176.079 335.084 176.588 335.489C177.097 335.895 177.424 336.485 177.497 337.131Z" fill="#263238"/>
<path d="M174.33 308.753C174.385 309.235 174.295 309.722 174.073 310.153C173.85 310.584 173.505 310.939 173.08 311.174C172.655 311.409 172.171 311.513 171.687 311.472C171.203 311.432 170.742 311.249 170.363 310.947C169.983 310.644 169.702 310.236 169.554 309.774C169.407 309.312 169.4 308.817 169.534 308.351C169.668 307.884 169.938 307.468 170.309 307.155C170.679 306.842 171.135 306.646 171.617 306.592C172.263 306.522 172.91 306.71 173.418 307.114C173.926 307.519 174.254 308.108 174.33 308.753Z" fill="#263238"/>
<path d="M177.757 345.298C177.808 345.77 177.67 346.242 177.373 346.612C177.076 346.982 176.645 347.218 176.173 347.27C175.701 347.321 175.229 347.184 174.859 346.887C174.489 346.59 174.252 346.158 174.2 345.687C174.175 345.454 174.196 345.218 174.261 344.992C174.327 344.767 174.437 344.557 174.584 344.374C174.881 344.004 175.312 343.767 175.784 343.716C176.256 343.664 176.728 343.802 177.098 344.099C177.468 344.395 177.705 344.827 177.757 345.298Z" fill="#263238"/>
<path d="M195.052 443.603L168.882 209.367C168.606 206.869 169.333 204.364 170.904 202.401C172.474 200.438 174.76 199.179 177.259 198.899L517.074 161.09C519.575 160.814 522.083 161.54 524.049 163.109C526.015 164.679 527.277 166.963 527.559 169.462L553.664 403.73C553.802 404.967 553.695 406.219 553.349 407.415C553.003 408.611 552.424 409.727 551.646 410.699C550.868 411.671 549.906 412.48 548.815 413.081C547.724 413.681 546.525 414.061 545.287 414.198L205.472 452.007C202.975 452.274 200.474 451.538 198.52 449.962C196.566 448.386 195.318 446.098 195.052 443.603Z" fill="white"/>
<path opacity="0.3" d="M517.647 161.014L176.676 198.964C175.512 199.092 174.384 199.448 173.358 200.012C172.332 200.576 171.427 201.337 170.696 202.251C169.965 203.166 169.422 204.215 169.097 205.34C168.773 206.465 168.674 207.642 168.807 208.805L195.052 444.197C195.179 445.36 195.536 446.487 196.1 447.513C196.665 448.538 197.426 449.442 198.341 450.173C199.256 450.904 200.306 451.447 201.432 451.771C202.557 452.095 203.735 452.193 204.899 452.061L545.849 414.111C547.013 413.982 548.14 413.625 549.166 413.061C550.192 412.496 551.097 411.736 551.829 410.822C552.56 409.908 553.105 408.859 553.431 407.735C553.757 406.611 553.858 405.433 553.729 404.27L527.495 168.878C527.231 166.531 526.046 164.384 524.2 162.909C522.353 161.435 519.996 160.753 517.647 161.014Z" fill="#00AB55"/>
<path d="M272.879 218.636H272.804L272.901 232.388L267.388 232.993L261.702 207.812L265.605 207.38L269.928 227.246H270.004L269.637 206.926L273.496 206.504L277.722 226.544H277.798L277.581 206.018L281.084 205.619V231.448L275.755 232.031L272.879 218.636Z" fill="#263238"/>
<path d="M288.304 215.73L293.817 215.125L294.217 218.765L288.715 219.381L289.547 226.846L296.476 226.079L296.876 229.719L285.948 230.94L283.105 205.435L294.033 204.214L294.444 207.854L287.515 208.632L288.304 215.73Z" fill="#263238"/>
<path d="M317.998 227.365L313.944 227.818L312.734 223.227L307.815 223.778L307.642 228.477L303.956 228.888L305.199 202.961L311.069 202.313L317.998 227.365ZM307.945 220.3L311.804 219.867L308.475 207.185H308.399L307.945 220.3Z" fill="#263238"/>
<path d="M328.245 226.23C327.799 225.26 327.556 224.208 327.532 223.141L327.078 219.133C326.818 216.756 325.921 215.978 324.094 216.173L322.711 216.335L323.867 226.716L319.857 227.159L317.014 201.621L323.067 200.952C327.218 200.487 329.218 202.216 329.661 206.159L329.888 208.157C330.18 210.782 329.521 212.554 327.834 213.558V213.634C329.931 214.25 330.796 216.065 331.077 218.722L331.52 222.665C331.565 223.724 331.83 224.761 332.299 225.712L328.245 226.23ZM321.424 204.862L322.3 212.694L323.867 212.521C325.37 212.359 326.202 211.603 326.029 209.561L325.748 207.044C325.543 205.219 324.84 204.495 323.413 204.646L321.424 204.862Z" fill="#263238"/>
<path d="M336.882 210.329L342.384 209.713L342.795 213.353L337.282 213.969L338.114 221.445L345.043 220.667L345.454 224.307L334.493 225.528L331.65 200.023L342.589 198.813L342.989 202.454L336.071 203.221L336.882 210.329Z" fill="#263238"/>
<path d="M357.593 222.957L353.582 223.411L350.707 197.905L354.717 197.452L355.939 208.384L360.5 207.876L359.355 196.955L363.44 196.49L366.283 221.995L362.197 222.449L360.976 211.528L356.425 212.025L357.593 222.957Z" fill="#263238"/>
<path d="M366.316 196.22L370.326 195.777L373.169 221.283L369.159 221.726L366.316 196.22Z" fill="#263238"/>
<path d="M384.465 219.986C384.023 219.014 383.78 217.964 383.751 216.897L383.308 212.889C383.049 210.523 382.141 209.734 380.325 209.94L378.941 210.091L380.098 220.483L376.088 220.926L373.245 195.421L379.298 194.751C383.449 194.287 385.448 196.015 385.892 199.947L386.108 201.956C386.4 204.582 385.751 206.342 384.065 207.358V207.433C386.162 208.049 387.037 209.875 387.308 212.532L387.751 216.465C387.788 217.524 388.053 218.563 388.529 219.511L384.465 219.986ZM377.655 198.618L378.53 206.45L380.098 206.278C381.589 206.105 382.433 205.349 382.206 203.307L381.925 200.801C381.719 198.975 381.017 198.24 379.59 198.402L377.655 198.618Z" fill="#263238"/>
<path d="M387.902 193.768L391.912 193.325L394.755 218.819L390.745 219.273L387.902 193.768Z" fill="#263238"/>
<path d="M399.252 199.623H399.187L401.241 218.096L397.631 218.496L394.788 192.98L399.825 192.418L405.565 207.228H405.64L403.943 191.964L407.51 191.564L410.353 217.07L406.235 217.523L399.252 199.623Z" fill="#263238"/>
<path d="M417.725 201.892L423.335 201.265L424.243 209.357C424.697 213.429 422.914 215.99 418.979 216.432C415.045 216.875 412.742 214.758 412.288 210.685L410.807 197.42C410.353 193.336 412.137 190.776 416.071 190.344C420.006 189.912 422.308 192.007 422.762 196.091L423.044 198.565L419.249 198.986L418.893 196.221C418.687 194.406 417.812 193.801 416.525 193.941C415.239 194.082 414.526 194.859 414.731 196.685L416.266 210.459C416.471 212.284 417.347 212.846 418.622 212.705C419.898 212.565 420.622 211.82 420.428 209.994L419.898 205.295L418.082 205.5L417.725 201.892Z" fill="#263238"/>
<path d="M427.346 209.475L425.8 200.314L424.622 189.738L428.632 189.285L429.81 199.925L430.329 209.205L427.346 209.475ZM430.967 210.879L431.399 214.747L427.529 215.179L427.108 211.311L430.967 210.879Z" fill="#263238"/>
<path d="M398.733 409.628L340.254 416.11C337.955 416.367 335.628 416.168 333.406 415.526C331.184 414.884 329.11 413.81 327.303 412.367C325.496 410.923 323.991 409.138 322.875 407.113C321.759 405.088 321.053 402.863 320.797 400.565C320.54 398.268 320.739 395.943 321.381 393.723C322.023 391.503 323.096 389.431 324.539 387.625C325.983 385.819 327.768 384.316 329.793 383.199C331.818 382.083 334.043 381.377 336.341 381.12L394.831 374.638C397.13 374.38 399.458 374.577 401.681 375.219C403.904 375.861 405.978 376.935 407.785 378.378C409.592 379.822 411.097 381.608 412.213 383.634C413.329 385.66 414.034 387.885 414.288 390.184C414.546 392.481 414.349 394.808 413.707 397.029C413.064 399.251 411.99 401.324 410.546 403.13C409.101 404.936 407.314 406.439 405.287 407.555C403.26 408.67 401.033 409.374 398.733 409.628Z" fill="#00AB55" stroke="#263238" stroke-linecap="round" stroke-linejoin="round"/>
<path d="M356.112 404.713L353.485 405.005L352.707 402.056L349.518 402.412L349.399 405.459L347.01 405.729L347.821 388.898L351.626 388.466L356.112 404.713ZM349.626 400.133L352.134 399.852L349.972 391.62L349.626 400.133Z" fill="#263238"/>
<path d="M363.678 391.253L363.916 393.413C364.219 396.06 363.095 397.637 360.5 397.929L359.268 398.058L359.96 404.281L357.366 404.573L355.517 388.034L359.355 387.601C361.906 387.299 363.343 388.606 363.678 391.253ZM358.382 390.097L359.009 395.693L360.241 395.552C361.062 395.466 361.473 395.034 361.322 393.856L361.052 391.372C360.922 390.194 360.425 389.859 359.603 389.956L358.382 390.097Z" fill="#263238"/>
<path d="M372.553 390.259L372.791 392.419C373.082 395.066 371.969 396.643 369.364 396.935L368.143 397.075L368.834 403.287L366.229 403.579L364.392 387.04L368.218 386.607C370.823 386.348 372.25 387.612 372.553 390.259ZM367.256 389.103L367.872 394.699L369.105 394.558C369.937 394.472 370.337 394.04 370.186 392.862L369.915 390.378C369.775 389.2 369.288 388.876 368.456 388.962L367.256 389.103Z" fill="#263238"/>
<path d="M373.299 386.035L375.904 385.743L377.482 399.916L381.806 399.441L382.065 401.807L375.19 402.574L373.299 386.035Z" fill="#263238"/>
<path d="M383.513 396.07L378.995 385.376L381.719 385.073L384.519 392.398L385.6 384.641L388.086 384.371L386.032 395.79L386.637 401.277L384.043 401.558L383.513 396.07Z" fill="#263238"/>
<path d="M406.455 425.01L336.154 432.841L336.396 435.01L406.697 427.179L406.455 425.01Z" fill="#999999" stroke="#263238" stroke-linecap="round" stroke-linejoin="round"/>
<path d="M507.595 350.094L227.923 381.217C227.923 381.217 215.773 355.118 223.124 338.179C230.474 321.24 252.731 330.898 262.156 315.18C271.582 299.462 260.665 289.048 271.042 267.518C281.419 245.989 311.155 234.505 333.358 243.947C355.56 253.388 363.073 267.626 377.19 263.64C391.307 259.654 399.349 241.333 427.324 242.672C455.299 244.012 461.309 283.161 459.687 302.476C458.066 321.791 513.842 304.55 507.595 350.094Z" fill="white"/>
<path d="M424.016 265.531L423.757 263.197L406.246 265.153L406.764 269.884L407.705 278.289L425.216 276.344L424.016 265.531Z" fill="white"/>
<path opacity="0.2" d="M407.721 278.131L418.754 276.902L417.308 263.933L406.275 265.162L407.721 278.131Z" fill="black"/>
<path d="M424.016 265.531L423.757 263.197L406.246 265.153L406.764 269.884L407.705 278.289L425.216 276.344L424.016 265.531Z" stroke="#263238" stroke-linecap="round" stroke-linejoin="round"/>
<path d="M417.325 263.91L417.455 265.066" stroke="#263238" stroke-linecap="round" stroke-linejoin="round"/>
<path d="M408.71 292.494L406.71 274.54L416.082 267.454L425.367 266.417L428.005 290.161L408.71 292.494Z" fill="#263238"/>
<path opacity="0.2" d="M408.71 292.494L419.141 291.338L416.471 267.41L406.71 274.54L408.71 292.494Z" fill="black"/>
<path d="M408.71 292.494L406.71 274.54L416.082 267.454L425.367 266.417L428.005 290.161L408.71 292.494Z" stroke="#263238" stroke-linecap="round" stroke-linejoin="round"/>
<path opacity="0.2" d="M416.914 271.386L417.466 276.387" stroke="white" stroke-linecap="round" stroke-linejoin="round"/>
<path opacity="0.2" d="M417.801 279.369L418.979 289.934" stroke="white" stroke-linecap="round" stroke-linejoin="round"/>
<path d="M336.944 346.063L333.528 346.443C333.009 346.501 332.489 346.351 332.081 346.025C331.674 345.699 331.412 345.225 331.355 344.707L330.53 337.31L337.845 336.495L338.673 343.914C338.724 344.427 338.572 344.94 338.249 345.342C337.925 345.744 337.457 346.003 336.944 346.063Z" fill="#999999" stroke="#263238" stroke-linecap="round" stroke-linejoin="round"/>
<path d="M334.125 357.058L338.701 356.548L337.527 346.016L332.95 346.526L334.125 357.058Z" fill="#757575" stroke="#263238" stroke-linecap="round" stroke-linejoin="round"/>
<path d="M329.629 337.412L339.044 336.353L341.627 332.032L326.148 333.761L329.629 337.412Z" fill="#757575" stroke="#263238" stroke-linecap="round" stroke-linejoin="round"/>
<path d="M356.112 320.549L343.14 321.986L338.817 308.385H336.979L341.303 322.548C340.943 322.591 340.615 322.774 340.388 323.057C340.162 323.339 340.056 323.7 340.092 324.06L340.406 326.826C340.517 327.729 340.979 328.553 341.693 329.119C342.407 329.685 343.315 329.948 344.221 329.85L355.333 328.619C355.762 328.567 356.153 328.349 356.423 328.011C356.692 327.674 356.817 327.244 356.771 326.815L356.112 320.549Z" fill="#999999" stroke="#263238" stroke-linecap="round" stroke-linejoin="round"/>
<path d="M357.193 327.355L356.533 327.419C356.083 327.47 355.63 327.358 355.257 327.102C354.884 326.846 354.615 326.464 354.501 326.026L350.707 311.097C350.524 310.397 350.118 309.776 349.55 309.328C348.983 308.88 348.285 308.628 347.561 308.612L336.936 308.342C336.541 308.329 336.165 308.174 335.875 307.906C335.585 307.639 335.402 307.275 335.358 306.883C335.309 306.454 335.433 306.022 335.703 305.684C335.972 305.346 336.365 305.128 336.795 305.079L338.125 304.939L348.664 305.382C349.921 305.432 351.128 305.889 352.103 306.684C353.078 307.479 353.767 308.569 354.069 309.789L358.079 326.08C358.107 326.222 358.106 326.368 358.076 326.51C358.047 326.652 357.989 326.786 357.906 326.905C357.823 327.024 357.718 327.125 357.595 327.202C357.472 327.279 357.336 327.331 357.193 327.355Z" fill="#BFBFBF"/>
<path d="M357.193 327.355L356.533 327.419C356.083 327.47 355.63 327.358 355.257 327.102C354.884 326.846 354.615 326.464 354.501 326.026L350.707 311.097C350.524 310.397 350.118 309.776 349.55 309.328C348.983 308.88 348.285 308.628 347.561 308.612L336.936 308.342C336.541 308.329 336.165 308.174 335.875 307.906C335.585 307.639 335.402 307.275 335.358 306.883V306.883C335.309 306.454 335.433 306.022 335.703 305.684C335.972 305.346 336.365 305.128 336.795 305.079L338.125 304.939L348.664 305.382C349.921 305.432 351.128 305.889 352.103 306.684C353.078 307.479 353.767 308.569 354.069 309.789L358.079 326.08C358.107 326.222 358.106 326.368 358.076 326.51C358.047 326.652 357.989 326.786 357.906 326.905C357.823 327.024 357.718 327.125 357.595 327.202C357.472 327.279 357.336 327.331 357.193 327.355" stroke="#263238" stroke-linecap="round" stroke-linejoin="round"/>
<path d="M292.996 280.212L307.805 328.565L341.065 324.859L341.778 319.588L333.65 292.786L328.245 274.778C327.899 273.646 327.172 272.668 326.187 272.01C325.202 271.353 324.019 271.056 322.84 271.17L297.038 274C296.266 274.081 295.525 274.35 294.881 274.783C294.236 275.216 293.708 275.8 293.342 276.485C293.041 277.053 292.856 277.674 292.796 278.314C292.737 278.953 292.805 279.598 292.996 280.212Z" fill="#00AB55"/>
<path opacity="0.2" d="M292.996 280.211L307.804 328.564L341.065 324.859L341.778 319.587L333.65 292.786L305.891 295.875L300.659 278.818C300.404 277.981 299.865 277.258 299.136 276.774C298.406 276.289 297.531 276.072 296.66 276.16L293.417 276.517C292.793 277.644 292.642 278.973 292.996 280.211Z" fill="black"/>
<path d="M292.996 280.212L307.805 328.565L341.065 324.859L341.778 319.588L333.65 292.786L328.245 274.778C327.899 273.646 327.172 272.668 326.187 272.01C325.202 271.353 324.019 271.056 322.84 271.17L297.038 274C296.266 274.081 295.525 274.35 294.881 274.783C294.236 275.216 293.708 275.8 293.342 276.485C293.041 277.053 292.856 277.674 292.796 278.314C292.737 278.953 292.805 279.598 292.996 280.212V280.212Z" stroke="#263238" stroke-linecap="round" stroke-linejoin="round"/>
<path d="M319.252 366.19C326.072 361.653 347.226 359.298 354.923 362.226L358.165 360.919C349.983 356.695 338.709 356.522 338.709 356.522L333.747 357.073C333.747 357.073 322.84 359.709 315.782 365.629L319.252 366.19Z" fill="#999999" stroke="#263238" stroke-linecap="round" stroke-linejoin="round"/>
<path d="M354.685 364.203C354.769 364.963 355.153 365.659 355.751 366.137C356.349 366.615 357.112 366.836 357.874 366.752C358.635 366.667 359.331 366.284 359.81 365.687C360.288 365.089 360.509 364.326 360.425 363.565C360.383 363.188 360.267 362.824 360.084 362.492C359.901 362.16 359.655 361.867 359.359 361.63C359.062 361.394 358.723 361.218 358.358 361.112C357.994 361.007 357.613 360.974 357.236 361.016C356.859 361.058 356.494 361.173 356.162 361.356C355.83 361.539 355.537 361.785 355.3 362.081C355.063 362.377 354.887 362.717 354.781 363.081C354.676 363.445 354.643 363.826 354.685 364.203Z" fill="#BFBFBF" stroke="#263238" stroke-linecap="round" stroke-linejoin="round"/>
<path d="M314.139 368.719C314.212 369.282 314.45 369.81 314.823 370.239C315.196 370.667 315.687 370.976 316.235 371.126C316.783 371.277 317.363 371.263 317.903 371.085C318.442 370.908 318.918 370.575 319.269 370.129C319.62 369.682 319.832 369.142 319.877 368.576C319.923 368.011 319.8 367.444 319.525 366.947C319.25 366.45 318.834 366.046 318.329 365.785C317.825 365.523 317.255 365.417 316.69 365.478C316.308 365.52 315.939 365.639 315.604 365.825C315.268 366.012 314.973 366.263 314.736 366.565C314.499 366.866 314.323 367.212 314.221 367.582C314.118 367.951 314.091 368.338 314.139 368.719Z" fill="#BFBFBF" stroke="#263238" stroke-linecap="round" stroke-linejoin="round"/>
<path d="M319.803 335.889L352.35 332.27C353.747 332.114 355.099 331.685 356.329 331.006C357.559 330.328 358.643 329.414 359.52 328.316C360.396 327.219 361.048 325.959 361.437 324.61C361.826 323.26 361.945 321.847 361.787 320.452C361.744 320.036 361.618 319.632 361.418 319.265C361.217 318.898 360.946 318.574 360.619 318.312C360.292 318.051 359.916 317.857 359.513 317.742C359.111 317.627 358.689 317.594 358.274 317.643L310.712 322.937C310.301 322.982 309.903 323.109 309.541 323.308C309.179 323.508 308.859 323.777 308.601 324.1C308.343 324.423 308.151 324.794 308.037 325.191C307.923 325.588 307.888 326.004 307.934 326.415C308.083 327.819 308.51 329.18 309.188 330.418C309.867 331.656 310.785 332.747 311.889 333.629C312.993 334.51 314.261 335.163 315.619 335.551C316.978 335.939 318.4 336.054 319.803 335.889Z" fill="#00AB55"/>
<path opacity="0.2" d="M307.967 326.231L308.064 327.106C308.36 329.75 309.694 332.169 311.774 333.83C313.854 335.491 316.508 336.259 319.154 335.964L352.988 332.194C354.298 332.05 355.567 331.65 356.722 331.015C357.877 330.38 358.895 329.524 359.718 328.496C360.542 327.467 361.154 326.286 361.52 325.021C361.886 323.755 361.999 322.43 361.851 321.121L361.754 320.236C361.695 319.673 361.474 319.139 361.117 318.7C360.76 318.261 360.283 317.935 359.744 317.762L359.927 319.393C360.031 320.337 359.755 321.283 359.161 322.024C358.568 322.765 357.704 323.241 356.76 323.347L326.743 326.696C325.797 326.799 324.849 326.524 324.106 325.931C323.362 325.338 322.884 324.475 322.775 323.53L322.57 321.618L310.593 322.947C309.81 323.037 309.094 323.432 308.602 324.048C308.11 324.663 307.882 325.448 307.967 326.231Z" fill="black"/>
<path d="M319.803 335.889L352.35 332.27C353.747 332.114 355.099 331.685 356.329 331.006C357.559 330.328 358.643 329.414 359.52 328.316C360.396 327.219 361.048 325.959 361.437 324.61C361.826 323.26 361.945 321.847 361.787 320.452V320.452C361.744 320.036 361.618 319.632 361.418 319.265C361.217 318.898 360.946 318.574 360.619 318.312C360.292 318.051 359.916 317.857 359.513 317.742C359.111 317.627 358.689 317.594 358.274 317.643L310.712 322.937C310.301 322.982 309.903 323.109 309.541 323.308C309.179 323.508 308.859 323.777 308.601 324.1C308.343 324.423 308.151 324.794 308.037 325.191C307.923 325.588 307.888 326.004 307.934 326.415C308.083 327.819 308.51 329.18 309.188 330.418C309.867 331.656 310.785 332.747 311.889 333.629C312.993 334.51 314.261 335.163 315.619 335.551C316.978 335.939 318.4 336.054 319.803 335.889V335.889Z" stroke="#263238" stroke-linecap="round" stroke-linejoin="round"/>
<path d="M319.716 324.6L306.81 326.036L302.421 312.436L300.595 312.382L304.918 326.555C304.739 326.574 304.565 326.628 304.407 326.714C304.249 326.801 304.11 326.918 303.997 327.058C303.884 327.199 303.801 327.361 303.751 327.534C303.701 327.707 303.687 327.888 303.708 328.067L304.01 330.833C304.116 331.746 304.579 332.581 305.298 333.156C306.016 333.73 306.933 333.998 307.848 333.901L318.96 332.659C319.172 332.636 319.378 332.571 319.565 332.469C319.753 332.366 319.918 332.227 320.052 332.061C320.185 331.894 320.285 331.703 320.344 331.497C320.403 331.292 320.421 331.078 320.397 330.865L319.716 324.6Z" fill="#999999" stroke="#263238" stroke-linecap="round" stroke-linejoin="round"/>
<path d="M320.851 331.395L320.181 331.471C319.731 331.521 319.278 331.406 318.907 331.148C318.535 330.89 318.27 330.505 318.16 330.066L314.366 315.148C314.18 314.449 313.774 313.829 313.207 313.379C312.64 312.93 311.944 312.675 311.22 312.652L300.595 312.382C300.2 312.372 299.822 312.22 299.53 311.954C299.239 311.689 299.052 311.327 299.006 310.935C298.96 310.504 299.087 310.073 299.358 309.735C299.629 309.397 300.023 309.18 300.454 309.131L301.773 308.979L312.323 309.422C313.581 309.475 314.788 309.934 315.763 310.731C316.737 311.527 317.427 312.619 317.728 313.841L321.727 330.174C321.764 330.316 321.769 330.463 321.744 330.607C321.718 330.75 321.662 330.887 321.579 331.007C321.496 331.127 321.388 331.227 321.262 331.302C321.137 331.376 320.997 331.423 320.851 331.438" fill="#BFBFBF"/>
<path d="M320.851 331.395L320.181 331.471C319.731 331.521 319.278 331.406 318.907 331.148C318.535 330.89 318.27 330.505 318.16 330.066L314.366 315.148C314.18 314.449 313.774 313.829 313.207 313.379C312.64 312.93 311.944 312.675 311.22 312.652L300.595 312.382C300.2 312.372 299.822 312.22 299.53 311.954C299.239 311.689 299.052 311.327 299.006 310.935V310.935C298.96 310.504 299.087 310.073 299.358 309.735C299.629 309.397 300.023 309.18 300.454 309.131L301.773 308.979L312.323 309.422C313.581 309.475 314.788 309.934 315.763 310.731C316.737 311.527 317.427 312.619 317.728 313.841L321.727 330.174C321.764 330.316 321.769 330.463 321.744 330.607C321.718 330.75 321.662 330.887 321.579 331.007C321.496 331.127 321.388 331.227 321.262 331.302C321.137 331.376 320.997 331.423 320.851 331.438V331.438" stroke="#263238" stroke-linecap="round" stroke-linejoin="round"/>
<path d="M343.951 297.55L331.92 298.846L331.996 299.495C332.008 299.652 332.052 299.806 332.125 299.947C332.198 300.087 332.298 300.212 332.42 300.313C332.542 300.413 332.683 300.489 332.835 300.534C332.987 300.579 333.147 300.593 333.304 300.575H333.617L372.91 296.2C373.011 296.189 373.108 296.158 373.198 296.11C373.287 296.061 373.365 295.995 373.428 295.915C373.492 295.836 373.539 295.745 373.567 295.647C373.594 295.549 373.603 295.447 373.591 295.346L373.472 294.266L343.951 297.55Z" fill="#999999" stroke="#263238" stroke-linecap="round" stroke-linejoin="round"/>
<path d="M380.498 273.201L378.541 292.646C378.501 293.051 378.322 293.431 378.035 293.72C377.747 294.009 377.369 294.191 376.963 294.234L346.643 297.615C346.462 297.634 346.28 297.612 346.11 297.551C345.939 297.49 345.784 297.392 345.656 297.264C345.529 297.135 345.432 296.979 345.372 296.808C345.313 296.637 345.293 296.455 345.313 296.275L347.475 276.83C347.519 276.43 347.699 276.057 347.983 275.772C348.268 275.487 348.642 275.308 349.042 275.264L379.168 271.839C379.351 271.818 379.536 271.838 379.71 271.899C379.883 271.961 380.04 272.061 380.169 272.193C380.297 272.324 380.394 272.483 380.451 272.658C380.508 272.833 380.524 273.019 380.498 273.201Z" fill="#BFBFBF" stroke="#263238" stroke-linecap="round" stroke-linejoin="round"/>
<path d="M363.83 282.458L366.175 282.199L367.072 284.23L365.624 286.51L363.278 286.769L362.381 284.749L363.83 282.458Z" fill="white" stroke="#263238" stroke-linecap="round" stroke-linejoin="round"/>
<path d="M410.483 267.367L410.224 265.023L392.712 266.989L393.242 271.721L394.172 280.125L411.683 278.17L410.483 267.367Z" fill="white"/>
<path opacity="0.2" d="M394.073 279.34L405.16 278.105L403.784 265.769L392.698 267.004L394.073 279.34Z" fill="black"/>
<path d="M410.483 267.367L410.224 265.023L392.712 266.989L393.242 271.721L394.172 280.125L411.683 278.17L410.483 267.367Z" stroke="#263238" stroke-linecap="round" stroke-linejoin="round"/>
<path d="M403.792 265.736L403.922 266.903" stroke="#263238" stroke-linecap="round" stroke-linejoin="round"/>
<path d="M395.177 294.331L393.177 276.366L402.549 269.279L411.834 268.253L414.482 291.997L395.177 294.331Z" fill="#00AB55"/>
<path opacity="0.2" d="M402.549 269.279L405.197 293.121L395.166 294.234L393.177 276.366L402.549 269.279Z" fill="black"/>
<path d="M395.177 294.331L393.177 276.366L402.549 269.279L411.834 268.253L414.482 291.997L395.177 294.331Z" stroke="#263238" stroke-linecap="round" stroke-linejoin="round"/>
<path d="M403.381 273.211L403.943 278.213" stroke="#263238" stroke-linecap="round" stroke-linejoin="round"/>
<path d="M404.268 281.206L405.446 291.771" stroke="#263238" stroke-linecap="round" stroke-linejoin="round"/>
<path d="M390.808 297.835L386.2 298.348L393.386 362.787L397.995 362.274L390.808 297.835Z" fill="#00AB55"/>
<path opacity="0.2" d="M390.808 297.835L386.2 298.348L393.386 362.787L397.995 362.274L390.808 297.835Z" fill="black"/>
<path d="M390.808 297.835L386.2 298.348L393.386 362.787L397.995 362.274L390.808 297.835Z" stroke="#263238" stroke-linecap="round" stroke-linejoin="round"/>
<path d="M362.522 301.007L431.01 293.38L438.187 357.819L433.583 358.326L426.827 297.669L362.943 304.788L362.522 301.007Z" fill="#00AB55" stroke="#263238" stroke-linecap="round" stroke-linejoin="round"/>
<path d="M417.509 291.252L317.209 302.422L317.598 305.976L432.945 293.142L432.545 289.577L424.124 290.517L417.509 291.252Z" fill="#00AB55"/>
<path opacity="0.6" d="M417.509 291.252L317.209 302.422L317.598 305.976L432.945 293.142L432.545 289.577L424.124 290.517L417.509 291.252Z" fill="white"/>
<path d="M417.509 291.252L317.209 302.422L317.598 305.976L432.945 293.142L432.545 289.577L424.124 290.517L417.509 291.252Z" stroke="#263238" stroke-linecap="round" stroke-linejoin="round"/>
<path d="M326.732 370.22L319.543 305.782L365.375 300.683L372.564 365.121L367.948 365.629L361.192 304.983L324.57 309.055L331.337 369.713L326.732 370.22Z" fill="#00AB55"/>
<path opacity="0.2" d="M326.732 370.22L319.543 305.782L365.375 300.683L372.564 365.121L367.948 365.629L361.192 304.983L324.57 309.055L331.337 369.713L326.732 370.22Z" fill="white"/>
<path d="M326.732 370.22L319.543 305.782L365.375 300.683L372.564 365.121L367.948 365.629L361.192 304.983L324.57 309.055L331.337 369.713L326.732 370.22Z" stroke="#263238" stroke-linecap="round" stroke-linejoin="round"/>
<path d="M435.788 310.178C432.106 307.238 427.649 305.431 422.959 304.976C418.268 304.522 413.546 305.439 409.368 307.618C405.19 309.796 401.735 313.141 399.425 317.245C397.114 321.35 396.047 326.037 396.353 330.737C396.659 335.437 398.325 339.946 401.149 343.716C403.973 347.487 407.833 350.356 412.258 351.974C416.684 353.592 421.485 353.89 426.077 352.832C430.669 351.773 434.854 349.403 438.123 346.011L441.787 348.938L444.576 345.449L440.911 342.522C444.244 337.462 445.565 331.341 444.617 325.358C443.67 319.375 440.521 313.962 435.788 310.178ZM437.182 342.435C434.546 345.713 430.996 348.136 426.982 349.397C422.968 350.659 418.669 350.702 414.631 349.522C410.592 348.341 406.994 345.991 404.292 342.766C401.59 339.542 399.906 335.59 399.452 331.409C398.999 327.228 399.796 323.007 401.743 319.279C403.69 315.55 406.7 312.483 410.392 310.465C414.084 308.447 418.291 307.568 422.483 307.94C426.674 308.312 430.661 309.918 433.939 312.555C436.117 314.303 437.929 316.463 439.27 318.911C440.612 321.359 441.458 324.048 441.759 326.823C442.06 329.598 441.811 332.406 441.026 335.084C440.24 337.763 438.934 340.261 437.182 342.435Z" fill="#757575" stroke="#263238" stroke-linecap="round" stroke-linejoin="round"/>
<path d="M472.388 370.533C472.11 370.885 471.764 371.178 471.371 371.396C470.979 371.613 470.547 371.751 470.101 371.801C469.655 371.851 469.203 371.813 468.772 371.688C468.341 371.563 467.939 371.354 467.589 371.074L440.955 349.792C440.879 349.732 440.817 349.658 440.771 349.574C440.724 349.49 440.695 349.397 440.685 349.302C440.675 349.206 440.684 349.11 440.712 349.018C440.74 348.926 440.785 348.84 440.847 348.766L444.197 344.574C444.318 344.424 444.494 344.326 444.686 344.304C444.879 344.282 445.072 344.336 445.224 344.456L471.859 365.737C472.565 366.303 473.018 367.126 473.117 368.026C473.216 368.925 472.954 369.827 472.388 370.533Z" fill="#999999" stroke="#263238" stroke-linecap="round" stroke-linejoin="round"/>
<path d="M293.504 373.925L290.38 374.271L276.317 319.577L279.333 318.799L293.504 373.925Z" fill="#999999" stroke="#263238" stroke-linecap="round" stroke-linejoin="round"/>
<path d="M291.517 294.343L254.152 303.938L260.17 327.343L297.535 317.748L291.517 294.343Z" fill="#263238"/>
<path d="M266.696 316.401L266.934 317.319C267.03 317.538 267.073 317.776 267.062 318.015C267.051 318.253 266.984 318.486 266.868 318.695C266.752 318.904 266.59 319.084 266.393 319.22C266.196 319.356 265.971 319.444 265.734 319.479L265.205 319.609L265.886 322.256L264.805 322.547L262.989 315.504L264.621 315.083C264.844 315.003 265.083 314.975 265.319 315.001C265.555 315.027 265.781 315.107 265.981 315.234C266.182 315.361 266.35 315.532 266.474 315.734C266.598 315.937 266.674 316.165 266.696 316.401ZM264.34 316.228L264.945 318.604L265.475 318.475C265.821 318.377 265.972 318.172 265.842 317.664L265.572 316.584C265.442 316.076 265.215 315.968 264.859 316.055L264.34 316.228Z" fill="#00AB55"/>
<path d="M267.107 316.239C267.031 316.012 267.002 315.772 267.022 315.534C267.043 315.296 267.112 315.064 267.226 314.854C267.34 314.643 267.496 314.459 267.685 314.312C267.874 314.165 268.091 314.058 268.322 313.998C268.554 313.939 268.796 313.927 269.032 313.965C269.269 314.003 269.494 314.09 269.696 314.219C269.897 314.348 270.07 314.517 270.203 314.716C270.336 314.915 270.426 315.139 270.469 315.375L271.409 319.037C271.486 319.263 271.515 319.503 271.494 319.742C271.474 319.98 271.404 320.212 271.29 320.422C271.176 320.632 271.02 320.817 270.831 320.964C270.643 321.111 270.426 321.218 270.194 321.277C269.962 321.337 269.721 321.348 269.484 321.31C269.248 321.272 269.022 321.186 268.821 321.057C268.619 320.928 268.446 320.758 268.313 320.559C268.18 320.361 268.09 320.136 268.048 319.901L267.107 316.239ZM269.172 319.685C269.301 320.193 269.572 320.322 269.928 320.236C270.285 320.149 270.447 319.89 270.328 319.393L269.345 315.591C269.215 315.083 268.945 314.953 268.588 315.04C268.231 315.126 268.069 315.385 268.199 315.882L269.172 319.685Z" fill="#00AB55"/>
<path d="M272.22 313.041C272.446 312.963 272.688 312.938 272.925 312.967C273.163 312.996 273.391 313.078 273.592 313.208C273.793 313.339 273.962 313.513 274.086 313.718C274.209 313.923 274.285 314.153 274.306 314.392L274.36 314.608L273.279 314.878L273.204 314.586C273.074 314.089 272.815 313.949 272.469 314.035C272.123 314.121 271.961 314.37 272.09 314.878C272.22 315.385 272.544 315.709 273.431 316.152C274.512 316.736 275.009 317.233 275.214 318.054C275.324 318.281 275.382 318.529 275.384 318.782C275.386 319.034 275.332 319.284 275.226 319.513C275.12 319.742 274.965 319.944 274.771 320.106C274.578 320.268 274.35 320.384 274.106 320.448C273.862 320.511 273.606 320.52 273.358 320.473C273.11 320.426 272.876 320.325 272.672 320.176C272.468 320.028 272.299 319.836 272.178 319.615C272.057 319.394 271.986 319.148 271.971 318.896L271.852 318.464L272.933 318.194L273.063 318.702C273.193 319.199 273.463 319.328 273.82 319.231C274.176 319.134 274.339 318.907 274.209 318.399C274.079 317.892 273.766 317.568 272.879 317.114C271.744 316.541 271.301 316.034 271.096 315.223C271.001 315.008 270.955 314.774 270.962 314.539C270.969 314.304 271.028 314.073 271.136 313.864C271.244 313.655 271.397 313.472 271.585 313.33C271.772 313.187 271.989 313.089 272.22 313.041Z" fill="#00AB55"/>
<path d="M274.522 312.533L275.603 312.252L277.419 319.295L276.338 319.576L274.522 312.533Z" fill="#00AB55"/>
<path d="M276.122 312.123L279.538 311.248L279.797 312.252L278.641 312.555L280.197 318.583L279.116 318.874L277.527 312.89L276.371 313.181L276.122 312.123Z" fill="#00AB55"/>
<path d="M280.014 311.118L281.094 310.837L282.9 317.881L281.819 318.162L280.014 311.118Z" fill="#00AB55"/>
<path d="M282.273 312.338C282.196 312.112 282.167 311.872 282.188 311.634C282.208 311.395 282.278 311.164 282.392 310.953C282.506 310.743 282.662 310.559 282.851 310.411C283.039 310.264 283.256 310.157 283.488 310.098C283.72 310.038 283.961 310.027 284.198 310.065C284.434 310.103 284.66 310.189 284.862 310.318C285.063 310.448 285.236 310.617 285.369 310.816C285.502 311.015 285.592 311.239 285.634 311.474L286.575 315.136C286.651 315.363 286.68 315.603 286.66 315.841C286.639 316.08 286.57 316.311 286.456 316.521C286.342 316.732 286.186 316.916 285.997 317.063C285.808 317.211 285.591 317.317 285.36 317.377C285.128 317.437 284.886 317.448 284.65 317.41C284.413 317.372 284.188 317.286 283.986 317.156C283.785 317.027 283.612 316.858 283.479 316.659C283.346 316.46 283.256 316.236 283.213 316.001L282.273 312.338ZM284.337 315.795C284.467 316.292 284.737 316.422 285.094 316.335C285.451 316.249 285.613 316.001 285.483 315.493L284.51 311.69C284.381 311.193 284.11 311.053 283.754 311.15C283.397 311.247 283.235 311.485 283.364 311.993L284.337 315.795Z" fill="#00AB55"/>
<path d="M287.418 311.291L288.726 316.39L287.731 316.649L285.905 309.649L287.299 309.293L289.461 313.225L288.38 309.012L289.364 308.763L291.18 315.807L290.034 316.098L287.418 311.291Z" fill="#00AB55"/>
<path d="M271.301 309.26L271.69 309.163C272.036 309.076 272.285 308.871 272.144 308.331L270.761 302.929L271.842 302.638L273.204 307.931C273.56 309.335 272.901 309.897 272.069 310.092L271.528 310.21L271.301 309.26Z" fill="#00AB55"/>
<path d="M272.977 304.247C272.9 304.02 272.871 303.781 272.892 303.542C272.912 303.304 272.981 303.072 273.096 302.862C273.21 302.652 273.366 302.467 273.554 302.32C273.743 302.173 273.96 302.066 274.192 302.006C274.424 301.947 274.665 301.936 274.902 301.974C275.138 302.012 275.364 302.098 275.565 302.227C275.767 302.356 275.939 302.526 276.072 302.724C276.205 302.923 276.296 303.147 276.338 303.383L277.279 307.045C277.355 307.272 277.384 307.512 277.364 307.75C277.343 307.988 277.274 308.22 277.16 308.43C277.046 308.64 276.889 308.825 276.701 308.972C276.512 309.119 276.295 309.226 276.063 309.286C275.832 309.345 275.59 309.356 275.354 309.318C275.117 309.281 274.891 309.194 274.69 309.065C274.489 308.936 274.316 308.767 274.183 308.568C274.05 308.369 273.959 308.145 273.917 307.909L272.977 304.247ZM275.041 307.693C275.171 308.201 275.441 308.331 275.787 308.244C276.133 308.158 276.317 307.898 276.187 307.402L275.214 303.599C275.084 303.091 274.814 302.962 274.457 303.048C274.101 303.134 273.928 303.394 274.058 303.891L275.041 307.693Z" fill="#00AB55"/>
<path d="M280.349 302.228L280.413 302.476C280.525 302.745 280.55 303.042 280.486 303.327C280.423 303.611 280.273 303.868 280.057 304.064C280.716 304.151 281.138 304.604 281.267 305.35L281.419 305.922C281.517 306.145 281.562 306.388 281.548 306.631C281.535 306.874 281.464 307.111 281.342 307.321C281.22 307.532 281.049 307.711 280.845 307.843C280.64 307.976 280.407 308.058 280.165 308.083L278.425 308.526L276.619 301.493L278.284 301.007C278.499 300.911 278.733 300.868 278.967 300.882C279.202 300.895 279.43 300.965 279.632 301.084C279.834 301.204 280.005 301.37 280.13 301.569C280.254 301.768 280.329 301.994 280.349 302.228ZM277.981 302.228L278.457 304.097L278.889 303.978C279.311 303.881 279.516 303.632 279.365 303.07L279.268 302.671C279.138 302.174 278.911 301.99 278.511 302.098L277.981 302.228ZM278.716 305.101L279.278 307.262L279.905 307.1C280.284 307.003 280.435 306.776 280.305 306.257L280.143 305.641C279.981 304.993 279.711 304.842 279.214 304.972L278.716 305.101Z" fill="#00AB55"/>
<path d="M483.479 238.6L432.858 244.228C432.012 244.328 431.24 244.757 430.708 245.422C430.176 246.087 429.927 246.935 430.015 247.782L432.004 265.596C432.105 266.439 432.533 267.209 433.196 267.741C433.859 268.272 434.704 268.522 435.55 268.437L441.873 267.735L437.55 278.537L446.024 267.302L486.116 262.841C486.962 262.741 487.735 262.311 488.267 261.646C488.799 260.981 489.047 260.134 488.959 259.287L486.97 241.462C486.875 240.625 486.457 239.858 485.805 239.324C485.153 238.789 484.319 238.53 483.479 238.6Z" fill="white" stroke="#263238" stroke-linecap="round" stroke-linejoin="round"/>
<path d="M440.23 258.962C440.112 258.704 440.046 258.425 440.036 258.141L439.917 257.061C439.852 256.424 439.614 256.219 439.128 256.273H438.76L439.063 259.038L437.982 259.157L437.225 252.351L438.836 252.178C439.046 252.116 439.269 252.105 439.484 252.146C439.7 252.187 439.902 252.279 440.075 252.415C440.247 252.55 440.385 252.725 440.476 252.924C440.567 253.124 440.609 253.342 440.598 253.561L440.663 254.101C440.731 254.37 440.714 254.653 440.615 254.912C440.517 255.171 440.341 255.393 440.111 255.549C440.674 255.711 440.901 256.197 440.987 256.899L441.095 257.979C441.11 258.265 441.184 258.544 441.311 258.8L440.23 258.962ZM438.414 253.259L438.652 255.354L439.063 255.3C439.463 255.3 439.69 255.063 439.625 254.512L439.549 253.842C439.495 253.356 439.312 253.161 438.933 253.205L438.414 253.259Z" fill="#263238"/>
<path d="M442.587 254.728L444.057 254.555L444.165 255.527L442.695 255.689L442.911 257.688L444.76 257.482L444.868 258.455L441.949 258.779L441.192 251.973L444.111 251.649L444.219 252.621L442.371 252.826L442.587 254.728Z" fill="#263238"/>
<path d="M444.814 253.216C444.782 252.999 444.794 252.778 444.85 252.566C444.905 252.354 445.003 252.156 445.137 251.982C445.271 251.809 445.439 251.664 445.63 251.557C445.821 251.45 446.032 251.382 446.25 251.358C446.468 251.334 446.689 251.355 446.898 251.418C447.108 251.481 447.304 251.585 447.472 251.726C447.641 251.866 447.779 252.038 447.88 252.233C447.98 252.428 448.04 252.641 448.056 252.859L448.456 256.392C448.495 256.72 448.458 257.052 448.348 257.364C448.413 257.494 448.5 257.504 448.672 257.483H448.77L448.878 258.433H448.727C448.547 258.476 448.36 258.464 448.187 258.401C448.014 258.338 447.863 258.225 447.754 258.077C447.521 258.185 447.273 258.254 447.019 258.282C446.796 258.326 446.566 258.319 446.345 258.262C446.125 258.205 445.921 258.1 445.747 257.954C445.573 257.808 445.433 257.625 445.339 257.418C445.245 257.211 445.198 256.986 445.203 256.759L444.814 253.216ZM446.284 256.705C446.338 257.191 446.575 257.353 446.911 257.31C447.246 257.267 447.44 257.072 447.386 256.586L446.975 252.913C446.921 252.427 446.694 252.265 446.348 252.297C446.003 252.33 445.819 252.546 445.873 253.032L446.284 256.705Z" fill="#263238"/>
<path d="M449.58 251.034L450.164 256.284C450.218 256.77 450.456 256.921 450.791 256.878C451.126 256.835 451.332 256.64 451.278 256.165L450.694 250.915L451.699 250.796L452.283 255.981C452.306 256.194 452.288 256.409 452.228 256.615C452.168 256.82 452.068 257.012 451.934 257.179C451.8 257.346 451.634 257.485 451.447 257.588C451.259 257.691 451.053 257.756 450.84 257.78C450.627 257.803 450.411 257.785 450.206 257.725C450 257.665 449.808 257.565 449.641 257.431C449.474 257.297 449.335 257.132 449.232 256.944C449.129 256.757 449.063 256.55 449.04 256.338L448.456 251.152L449.58 251.034Z" fill="#263238"/>
<path d="M452.423 250.72L453.504 250.601L454.261 257.396L453.18 257.515L452.423 250.72Z" fill="#263238"/>
<path d="M457.266 257.061C457.148 256.803 457.082 256.524 457.071 256.24L456.953 255.16C456.888 254.534 456.65 254.317 456.163 254.371H455.796L456.099 257.137L455.018 257.256L454.261 250.461L455.872 250.277C456.083 250.217 456.305 250.208 456.52 250.251C456.736 250.293 456.938 250.386 457.11 250.523C457.282 250.659 457.419 250.834 457.51 251.034C457.601 251.233 457.644 251.452 457.634 251.671L457.698 252.2C457.768 252.469 457.752 252.752 457.653 253.012C457.555 253.271 457.378 253.493 457.147 253.648C457.709 253.81 457.936 254.296 458.023 255.009L458.142 256.089C458.148 256.371 458.218 256.648 458.347 256.899L457.266 257.061ZM455.45 251.368L455.688 253.453H456.099C456.499 253.453 456.726 253.205 456.661 252.665L456.585 251.995C456.531 251.509 456.347 251.314 455.969 251.358L455.45 251.368Z" fill="#263238"/>
<path d="M459.568 252.827L461.038 252.665L461.147 253.637L459.677 253.799L459.893 255.787L461.741 255.581L461.849 256.554L458.941 256.878L458.174 250.083L461.093 249.759L461.201 250.731L459.352 250.936L459.568 252.827Z" fill="#263238"/>
<path d="M464.541 254.263L464.725 249.359L466.216 249.197L466.973 255.992L465.957 256.111L465.416 251.228L465.287 256.175L464.271 256.294L462.963 251.573L463.503 256.381L462.563 256.478L461.806 249.683L463.298 249.521L464.541 254.263Z" fill="#263238"/>
<path d="M468.4 251.844L469.859 251.682L469.967 252.654L468.508 252.816L468.724 254.804L470.572 254.599L470.68 255.571L467.762 255.895L467.005 249.1L469.924 248.776L470.032 249.748L468.183 249.953L468.4 251.844Z" fill="#263238"/>
<path d="M471.772 250.461L472.324 255.387L471.361 255.484L470.605 248.689L471.945 248.538L473.48 252.492L473.026 248.419L473.977 248.311L474.734 255.106L473.653 255.236L471.772 250.461Z" fill="#263238"/>
<path d="M474.421 248.268L477.728 247.9L477.836 248.873L476.755 249.002L477.404 254.825L476.323 254.944L475.674 249.121L474.593 249.24L474.421 248.268Z" fill="#263238"/>
<path d="M479.62 247.62C480.701 247.501 481.263 248.063 481.382 249.154V249.359L480.377 249.478V249.197C480.322 248.711 480.106 248.549 479.76 248.581C479.415 248.614 479.252 248.83 479.306 249.316C479.36 249.802 479.62 250.148 480.387 250.688C480.764 250.885 481.088 251.169 481.332 251.517C481.577 251.864 481.734 252.265 481.793 252.686C481.849 252.901 481.857 253.126 481.816 253.344C481.774 253.563 481.684 253.769 481.553 253.948C481.421 254.127 481.251 254.275 481.055 254.38C480.859 254.485 480.642 254.545 480.42 254.555C480.198 254.595 479.97 254.586 479.752 254.527C479.534 254.467 479.333 254.36 479.162 254.213C478.991 254.066 478.855 253.883 478.764 253.677C478.673 253.47 478.629 253.246 478.636 253.021V252.6L479.652 252.492L479.706 252.978C479.76 253.464 479.987 253.615 480.333 253.572C480.679 253.529 480.863 253.334 480.809 252.848C480.755 252.362 480.495 252.006 479.728 251.476C479.351 251.279 479.028 250.995 478.783 250.647C478.539 250.3 478.381 249.899 478.323 249.478C478.107 248.408 478.571 247.728 479.62 247.62Z" fill="#263238"/>
<path d="M213.882 382.783L521.841 348.506" stroke="#263238" stroke-linecap="round" stroke-linejoin="round"/>
<path d="M216.119 378.451C214.74 377.822 213.231 377.528 211.716 377.596C210.201 377.664 208.724 378.09 207.407 378.84C205.129 380.21 203.346 382.268 202.316 384.717C198.716 392.214 188.804 409.38 187.074 414.306C185.345 419.232 181.67 432.854 177.595 438.752C173.519 444.651 171.563 453.325 171.563 453.325L174.806 535.642C176.524 523.608 182.372 509.715 182.372 509.715C187.991 506.371 192.655 501.639 195.916 495.974C196.898 494.806 197.767 493.547 198.511 492.215C204.499 481.639 206.607 463.112 206.077 448.864C205.526 432.714 210.336 425.098 217.968 410.546C225.599 395.995 221.805 381.26 216.119 378.451Z" fill="white"/>
<path opacity="0.4" d="M216.119 378.451C214.735 377.84 213.229 377.557 211.717 377.625C210.206 377.692 208.731 378.108 207.407 378.84C212.109 379.823 218.324 381.844 217.135 385.462C215.276 391.177 208.369 383.302 205.31 386.165C202.251 389.027 191.463 405.231 199.289 411.605C207.115 417.979 205.44 429.559 200.564 433.07C195.689 436.581 199.419 444.067 201.743 456.047C203.159 463.296 200.662 480.051 198.5 492.161C204.488 481.585 206.596 463.058 206.066 448.81C205.515 432.66 210.325 425.044 217.957 410.492C225.588 395.941 221.794 381.066 216.119 378.451Z" fill="#00AB55"/>
<path d="M174.817 535.588C176.535 523.565 182.383 509.661 182.383 509.661C188.003 506.315 192.67 501.584 195.938 495.92C203.883 486.554 206.65 464.949 206.099 448.81C205.548 432.67 210.423 425.098 217.989 410.482C225.556 395.865 222.41 381.433 216.098 378.451C211.698 376.377 205.904 377.22 202.294 384.717C198.684 392.214 188.782 409.38 187.053 414.295C185.323 419.21 181.648 432.854 177.573 438.763C173.498 444.672 171.563 453.325 171.563 453.325" stroke="#263238" stroke-linecap="round" stroke-linejoin="round"/>
<path d="M193.971 415.343C193.971 415.343 200.597 415.549 203.699 417.85" stroke="#263238" stroke-linecap="round" stroke-linejoin="round"/>
<path d="M169.044 451.748C169.044 451.748 167.585 448.724 174.136 445.332" stroke="#263238" stroke-linecap="round" stroke-linejoin="round"/>
<path opacity="0.2" d="M401.079 390.086C414.288 390.194 430.815 449.695 435.961 456.544C435.961 456.544 509.735 459.083 519.031 469.367C528.327 479.651 523.722 488.337 529.84 498.092C535.958 507.847 537.71 524.288 537.71 524.288L553.924 551.63L484.43 584.902C484.43 584.902 447.3 563.643 438.242 558.846C429.183 554.05 402.344 543.571 395.209 530.025C388.075 516.478 387.718 503.763 386.183 498.135C384.649 492.507 414.482 475.654 414.482 475.654L401.079 390.086Z" fill="black" fill-opacity="0.7"/>
<path d="M563.176 557.031C557.188 551.5 550.897 545.624 545.719 540.762C539.115 534.562 534.326 530.035 534.326 530.035C530.392 521.782 526.933 519.006 522.576 512.492C518.22 505.977 518.89 499.107 517.864 490.011C516.837 480.915 513.151 473.083 510.891 467.725C508.632 462.367 508.449 456.825 507.995 455.626C507.541 454.427 500.698 449.144 497.531 444.823C496.111 442.897 494.375 441.224 492.397 439.876C490.184 438.307 487.639 437.268 484.96 436.84C483.849 436.691 482.725 436.669 481.609 436.775C479.407 437.126 477.238 437.657 475.123 438.363C472.334 439.033 465.287 435.63 461.222 435.792C460.466 435.792 459.72 435.9 458.963 436.008C455.465 436.661 452.024 437.59 448.673 438.784C445.008 439.865 439.776 437.467 435.993 437.186H435.917C435.076 437.094 434.224 437.201 433.431 437.499C429.853 439.001 423.011 441.291 423.011 441.291C423.011 441.291 421.249 436.635 419.368 430.185C419.044 429.105 418.709 428.025 418.352 426.945C417.033 423.012 415.596 419.545 414.709 416.282C414.475 415.447 414.283 414.599 414.137 413.744C413.337 409.023 412.321 405.426 410.472 398.361L410.278 397.604C409.694 395.444 409.197 393.283 408.645 391.382C407.273 386.802 405.403 383.626 400.636 384.015C396.442 384.36 394.15 387.039 394.031 394.126C393.912 401.213 392.561 401.029 394.431 410.913C396.301 420.798 395.609 427.539 397.112 432.422C398.614 437.304 399.825 447.189 399.825 447.189C397.739 446.703 396.215 447.891 396.085 448.745C395.955 449.598 396.388 457.527 396.604 463.22C396.787 468.276 393.458 473.785 392.626 477.501C392.626 477.501 392.626 477.566 392.626 477.588C392.533 477.989 392.479 478.397 392.464 478.809C392.345 482.438 394.561 489.611 396.787 498.934C399.014 508.257 398.949 518.379 402.797 524.061C403.593 525.207 404.567 526.217 405.684 527.054C410.31 530.608 417.79 532.844 425.454 538.494C435.02 545.569 441.863 550.82 447.527 552.537C451.591 553.79 453.558 555.13 454.758 557.236C455.237 558.16 455.601 559.14 455.839 560.153C456.38 562.108 457.817 563.394 460.228 565.447C463.999 568.596 467.476 572.082 470.616 575.86C473.556 579.36 478.42 586.209 483.587 593.825L563.176 557.031Z" fill="white"/>
<path opacity="0.4" d="M414.093 413.712C414.24 414.567 414.431 415.415 414.666 416.25C408.462 416.553 397.706 422.214 398.366 425.746C399.187 430.067 401.079 440.276 403.77 442.101C406.462 443.927 411.521 444.327 411.521 444.327C411.186 444.433 410.857 444.559 410.537 444.705L410.429 444.759C409.02 445.434 407.848 446.518 407.067 447.87C403.651 453.606 405.921 463.966 408.602 468.568C419.747 487.71 413.585 506.442 409.553 505.297C405.522 504.152 400.971 486.511 401.057 482.093C401.128 479.507 400.848 476.923 400.225 474.412C398.517 474.261 395.371 475.828 392.539 477.502C392.539 477.502 392.539 477.448 392.539 477.415C393.372 473.699 396.701 468.19 396.517 463.134C396.301 457.441 395.858 449.512 395.998 448.659C396.139 447.805 397.652 446.617 399.738 447.103C399.738 447.103 398.517 437.229 397.025 432.336C395.534 427.442 396.215 420.723 394.345 410.827C392.475 400.932 393.826 401.105 393.945 394.04C394.064 386.975 396.355 384.318 400.549 383.929C405.338 383.54 407.186 386.716 408.559 391.296C407.911 390.931 407.24 390.609 406.548 390.335C404.816 389.55 402.852 389.446 401.046 390.043C398.971 390.853 397.609 393.446 396.971 396.006C396.042 399.69 396.615 403.32 398.733 401.537C401.133 399.528 406.862 398.631 410.397 398.296C412.321 405.394 413.293 409.034 414.093 413.712Z" fill="#00AB55"/>
<path opacity="0.4" d="M455.828 560.175C455.592 559.165 455.229 558.189 454.747 557.269C453.548 555.163 451.58 553.823 447.516 552.57C441.852 550.809 435.01 545.559 425.443 538.527C417.779 532.877 410.31 530.641 405.673 527.086C410.753 528.448 416.569 525.736 419.412 529.128C423.541 534.022 438.706 539.304 438.706 539.304C454.477 548.886 455.828 560.175 455.828 560.175Z" fill="#00AB55"/>
<path opacity="0.4" d="M435.885 437.121C434.307 437.121 432.642 448.237 433.085 451.921C434.285 461.438 445.895 488.92 439.571 489.731C436.966 490.076 430.805 477.416 429.129 471.236C424.06 452.44 422.935 444.392 422.935 444.392C422.935 444.392 419.076 434.237 418.277 426.88C418.633 427.961 418.968 429.041 419.293 430.121C421.174 436.603 422.935 441.226 422.935 441.226C422.935 441.226 429.778 438.936 433.356 437.435C434.162 437.13 435.029 437.023 435.885 437.121Z" fill="#00AB55"/>
<path opacity="0.4" d="M458.931 436.041C455.688 437.121 453.148 441.151 450.586 442.371C447.451 443.873 439.614 437.888 435.961 437.219C439.744 437.499 444.976 439.941 448.64 438.817C451.992 437.623 455.433 436.694 458.931 436.041Z" fill="#00AB55"/>
<path opacity="0.4" d="M481.587 436.743C480.442 439.181 479.673 441.778 479.306 444.445C478.701 453.671 489.035 485.582 483.436 481.283C476.193 475.698 476.28 450.322 470.032 442.134C468.032 439.509 462.314 435.922 461.222 435.76C465.287 435.598 472.334 439.001 475.123 438.331C477.231 437.626 479.393 437.095 481.587 436.743Z" fill="#00AB55"/>
<path opacity="0.4" d="M545.698 540.719C540.174 536.852 534.467 533.266 531.094 532.185C522.814 529.657 519.679 525.704 517.291 518.498C514.902 511.293 516.815 511.001 517.291 503.191C517.766 495.38 511.518 487.332 512.297 489.212C513.075 491.092 512.88 505.416 510.524 506.658C508.168 507.901 505.119 499.042 503.044 491.697C500.968 484.351 496.742 448.885 493.996 442.404C493.614 441.457 493.081 440.578 492.418 439.8C494.396 441.149 496.132 442.821 497.553 444.748C500.72 449.069 507.562 454.33 508.016 455.551C508.47 456.771 508.643 462.292 510.913 467.65C513.183 473.008 516.858 480.829 517.885 489.936C518.912 499.042 518.263 505.913 522.598 512.416C526.933 518.92 530.413 521.707 534.348 529.96C534.305 530.025 539.093 534.519 545.698 540.719Z" fill="#00AB55"/>
<path opacity="0.4" d="M456.174 456.058C458.239 457.398 464.714 479.824 466.984 485.226C469.254 490.627 469.556 504.671 466.93 500.998C464.303 497.325 447.754 450.603 456.174 456.058Z" fill="#00AB55"/>
<path d="M481.62 590.952C477.188 584.524 473.167 578.929 470.605 575.882C467.465 572.104 463.988 568.618 460.217 565.468C457.807 563.394 456.369 562.13 455.828 560.175C455.592 559.165 455.229 558.189 454.747 557.269C453.548 555.163 451.58 553.823 447.516 552.57C441.852 550.809 435.01 545.559 425.443 538.526C417.779 532.877 410.31 530.64 405.673 527.086C404.557 526.25 403.582 525.239 402.787 524.094C398.971 518.455 399.003 508.268 396.777 498.967C394.55 489.666 392.334 482.471 392.453 478.841C392.468 478.43 392.522 478.021 392.615 477.621C392.615 477.621 392.615 477.567 392.615 477.534C393.447 473.818 396.777 468.309 396.593 463.253C396.377 457.56 395.934 449.631 396.074 448.777C396.215 447.924 397.728 446.736 399.814 447.222C399.814 447.222 398.593 437.348 397.101 432.454C395.609 427.561 396.29 420.841 394.42 410.946C392.55 401.051 393.901 401.224 394.02 394.159C394.139 387.094 396.431 384.436 400.625 384.047C405.413 383.658 407.262 386.834 408.635 391.415C409.207 393.305 409.716 395.433 410.267 397.637L410.461 398.393C412.31 405.458 413.326 409.056 414.126 413.776C414.273 414.632 414.464 415.479 414.699 416.315C415.585 419.556 417.023 423.045 418.341 426.977C418.698 428.058 419.033 429.138 419.358 430.218C421.238 436.7 423 441.323 423 441.323C423 441.323 429.843 439.033 433.421 437.532C434.213 437.234 435.065 437.127 435.907 437.218H435.982C439.766 437.499 444.997 439.941 448.662 438.817C452.013 437.623 455.454 436.694 458.952 436.041V436.041C459.709 435.933 460.455 435.857 461.211 435.825C465.276 435.663 472.324 439.066 475.112 438.396C477.227 437.69 479.396 437.159 481.598 436.808C482.714 436.702 483.838 436.723 484.949 436.873C487.628 437.301 490.173 438.339 492.386 439.908C494.364 441.257 496.1 442.929 497.52 444.856C500.687 449.177 507.53 454.438 507.984 455.659C508.438 456.879 508.611 462.4 510.881 467.758C513.151 473.116 516.826 480.937 517.853 490.044C518.88 499.15 518.231 506.021 522.566 512.524C526.9 519.027 530.381 521.815 534.315 530.068C534.315 530.068 539.104 534.594 545.709 540.795C550.303 545.116 555.772 550.215 561.123 555.173" stroke="#263238" stroke-linecap="round" stroke-linejoin="round"/>
<path d="M399.771 447.146C401.403 453.973 402.808 462.605 402.614 466.375C402.419 470.145 405.943 481.758 405.23 487.181" stroke="#263238" stroke-linecap="round" stroke-linejoin="round"/>
<path d="M404.581 451.683C404.581 451.683 408.051 445.201 411.575 444.326C415.099 443.451 419.141 444.921 422.979 444.445C426.816 443.97 430.026 440.297 433.442 438.785" stroke="#263238" stroke-linecap="round" stroke-linejoin="round"/>
<path d="M401.317 426.156C401.317 426.156 407.165 422.278 411.045 423.823" stroke="#263238" stroke-linecap="round" stroke-linejoin="round"/>
<path d="M405.457 421.997C407.065 421.331 408.852 421.229 410.526 421.706" stroke="#263238" stroke-linecap="round" stroke-linejoin="round"/>
<path d="M399.782 405.793C401.83 404.794 404.074 404.259 406.354 404.227" stroke="#263238" stroke-linecap="round" stroke-linejoin="round"/>
<path d="M392.583 477.458C394.212 476.082 395.975 474.873 397.847 473.85" stroke="#263238" stroke-linecap="round" stroke-linejoin="round"/>
<path d="M404.97 481.207C404.226 483.283 403.697 485.429 403.392 487.613" stroke="#263238" stroke-linecap="round" stroke-linejoin="round"/>
<path d="M395.771 389.06C395.771 389.06 396.669 397.194 397.825 397.702C398.982 398.21 406.808 397 407.1 395.487C407.392 393.975 406.127 388.163 406.127 388.163C406.127 388.163 399.663 381.347 395.771 389.06Z" stroke="#263238" stroke-linecap="round" stroke-linejoin="round"/>
<path d="M396.55 463.177C396.55 463.177 402.127 458.456 401.187 453.844C400.246 449.231 398.387 449.717 396.02 450.257" stroke="#263238" stroke-linecap="round" stroke-linejoin="round"/>
<path d="M498.028 449.922C499.974 457.106 502.947 478.701 503.433 481.855C503.919 485.01 506.07 492.896 506.07 492.896" stroke="#263238" stroke-linecap="round" stroke-linejoin="round"/>
<path d="M448.737 444.187C457.947 452.494 450.208 450.355 465.903 496.742" stroke="#263238" stroke-linecap="round" stroke-linejoin="round"/>
<path d="M534.305 530.025C534.305 530.025 527.127 526.784 525.452 524.332" stroke="#263238" stroke-linecap="round" stroke-linejoin="round"/>
<path d="M449.267 547.946C451.796 550.528 454.531 556.848 454.672 557.237" stroke="#263238" stroke-linecap="round" stroke-linejoin="round"/>
</svg>
