<svg width="24" height="24" viewBox="0 0 24 24" fill="none" xmlns="http://www.w3.org/2000/svg">
<path opacity="0.48" d="M9.79172 18.7493C7.8392 18.7493 6.25 17.1601 6.25 15.2076V6.66602H4.79172C3.52753 6.66602 2.5 7.69339 2.5 8.95758V20.2076C2.5 21.4718 3.52753 22.4993 4.79172 22.4993H15.2083C16.4725 22.4993 17.5 21.4718 17.5 20.2076V18.7493H9.79172Z" fill="#637381"/>
<path d="M20.8333 3.9445C20.8333 2.59424 19.8074 1.5 18.5417 1.5H9.79172C8.52585 1.5 7.5 2.59424 7.5 3.9445V15.0555C7.5 16.4058 8.52585 17.5 9.79172 17.5H18.5417C19.8074 17.5 20.8333 16.4058 20.8333 15.0555V3.9445Z" fill="#637381"/>
</svg>
