<svg width="32" height="32" viewBox="0 0 32 32" fill="none" xmlns="http://www.w3.org/2000/svg">
<rect width="32" height="32" rx="16" fill="#00AB55"/>
<path d="M24.9002 11.5982C24.6913 10.8127 24.0732 10.1931 23.2869 9.9807C21.8651 9.59961 16.1603 9.59961 16.1603 9.59961C16.1603 9.59961 10.4585 9.59961 9.0338 9.9807C8.25035 10.1902 7.63229 10.8098 7.42047 11.5982C7.04034 13.0236 7.04034 15.9996 7.04034 15.9996C7.04034 15.9996 7.04034 18.9756 7.42047 20.4011C7.62939 21.1865 8.24745 21.8062 9.0338 22.0185C10.4585 22.3996 16.1603 22.3996 16.1603 22.3996C16.1603 22.3996 21.8651 22.3996 23.2869 22.0185C24.0703 21.8091 24.6884 21.1894 24.9002 20.4011C25.2803 18.9756 25.2803 15.9996 25.2803 15.9996C25.2803 15.9996 25.2803 13.0236 24.9002 11.5982Z" fill="white"/>
<path d="M14.3381 18.7429L19.0765 15.9996L14.3381 13.2563V18.7429Z" fill="#00AB55"/>
</svg>
