<svg width="32" height="32" viewBox="0 0 32 32" fill="none" xmlns="http://www.w3.org/2000/svg">
<rect width="32" height="32" rx="16" fill="#00AB55"/>
<path d="M22.7113 11.4164C22.2732 11.6202 21.8126 11.7621 21.341 11.8386C21.5615 11.7978 21.8859 11.3687 22.0151 11.1951C22.2113 10.9331 22.3608 10.6341 22.4561 10.3132C22.4561 10.2894 22.4782 10.2553 22.4561 10.2383C22.445 10.2317 22.4325 10.2283 22.4199 10.2283C22.4072 10.2283 22.3948 10.2317 22.3836 10.2383C21.8715 10.5381 21.3264 10.7669 20.7614 10.9193C20.7417 10.9258 20.7207 10.9264 20.7007 10.921C20.6807 10.9156 20.6625 10.9044 20.648 10.8886C20.604 10.832 20.5566 10.7786 20.5062 10.7286C20.2757 10.5054 20.0142 10.3227 19.7313 10.1872C19.3493 10.0178 18.9368 9.94448 18.5248 9.97269C18.125 9.99998 17.7347 10.1159 17.3782 10.3132C17.027 10.5212 16.7185 10.8038 16.4709 11.144C16.2106 11.4942 16.0226 11.9005 15.9197 12.3357C15.8348 12.7497 15.8252 13.1776 15.8913 13.5956C15.8913 13.6671 15.8913 13.6773 15.8346 13.6671C13.5886 13.3096 11.7458 12.4481 10.2401 10.5992C10.1739 10.5175 10.1393 10.5175 10.0857 10.5992C9.43049 11.6752 9.74865 13.3777 10.5677 14.2187C10.6779 14.3311 10.7913 14.44 10.911 14.5422C10.5355 14.5134 10.1692 14.4034 9.8337 14.2187C9.7707 14.1744 9.73605 14.1983 9.7329 14.28C9.72397 14.3933 9.72397 14.5072 9.7329 14.6205C9.79863 15.1634 9.99659 15.6778 10.3065 16.1109C10.6165 16.5441 11.0273 16.8805 11.4969 17.0857C11.6114 17.1387 11.7307 17.1786 11.8529 17.2049C11.5053 17.2789 11.1487 17.2904 10.7976 17.2389C10.722 17.2219 10.6937 17.2662 10.722 17.3445C11.1851 18.7065 12.19 19.1219 12.9271 19.3534C13.0279 19.3704 13.1287 19.3704 13.2421 19.3977C13.2421 19.3977 13.2421 19.3977 13.2232 19.4181C13.0058 19.8471 12.127 20.1366 11.7238 20.2864C10.9878 20.5721 10.2031 20.6813 9.42419 20.6065C9.30134 20.586 9.27299 20.5894 9.24149 20.6065C9.20998 20.6235 9.24149 20.6609 9.27614 20.695C9.43364 20.8073 9.59115 20.9061 9.75495 21.0014C10.2426 21.2889 10.7581 21.5173 11.2922 21.6824C14.058 22.5064 17.1703 21.9003 19.2462 19.6701C20.8779 17.9199 21.4512 15.5058 21.4512 13.0882C21.4512 12.9963 21.5552 12.9418 21.615 12.8942C22.0279 12.5465 22.3918 12.1359 22.6955 11.6752C22.7481 11.6065 22.7751 11.5191 22.7711 11.43C22.7711 11.3789 22.7711 11.3892 22.7113 11.4164Z" fill="white"/>
</svg>
