<svg width="32" height="32" viewBox="0 0 32 32" fill="none" xmlns="http://www.w3.org/2000/svg">
<rect width="32" height="32" rx="16" fill="#00AB55"/>
<path d="M12.3191 22.4839V13.8398H9.44844V22.4839H12.3194H12.3191ZM10.8844 12.6598C11.8852 12.6598 12.5083 11.996 12.5083 11.1665C12.4895 10.3181 11.8852 9.67285 10.9034 9.67285C9.92091 9.67285 9.27924 10.3181 9.27924 11.1664C9.27924 11.996 9.9021 12.6597 10.8655 12.6597H10.8841L10.8844 12.6598ZM13.908 22.4839H16.7784V17.6572C16.7784 17.3992 16.7971 17.1405 16.873 16.9562C17.0804 16.4398 17.5527 15.9053 18.3459 15.9053C19.3843 15.9053 19.8 16.6979 19.8 17.8601V22.4839H22.6703V17.5277C22.6703 14.8727 21.2543 13.6372 19.3658 13.6372C17.8174 13.6372 17.1373 14.5033 16.7595 15.0933H16.7786V13.8401H13.9081C13.9456 14.651 13.9079 22.4842 13.9079 22.4842L13.908 22.4839Z" fill="white"/>
</svg>
