<svg width="151" height="126" viewBox="0 0 151 126" fill="none" xmlns="http://www.w3.org/2000/svg">
<path opacity="0.5" d="M0.039978 0.148438H60.6562V57.1539C60.6562 74.7058 56.0887 89.2052 46.9537 100.652C37.9735 112.099 24.8129 120.264 7.47186 125.148L0.272224 103.628C6.15579 101.644 11.033 99.5837 14.9037 97.447C18.7745 95.1576 21.8711 92.6393 24.1936 89.892C26.516 86.9922 28.1418 83.7107 29.0708 80.0477C29.9997 76.3847 30.4642 72.1112 30.4642 67.2272H0.039978V0.148438ZM90.3837 0.148438H151V57.1539C151 74.7058 146.432 89.2052 137.297 100.652C128.317 112.099 115.157 120.264 97.8156 125.148L90.616 103.628C96.4996 101.644 101.377 99.5837 105.247 97.447C109.118 95.1576 112.215 92.6393 114.537 89.892C116.86 86.9922 118.486 83.7107 119.415 80.0477C120.344 76.3847 120.808 72.1112 120.808 67.2272H90.3837V0.148438Z" fill="#CACCCF"/>
</svg>
